<?xml version="1.0" encoding="utf-8"?>
<!-- Generator: Adobe Illustrator 22.0.1, SVG Export Plug-In . SVG Version: 6.00 Build 0)  -->
<svg version="1.1" id="Camada_1" xmlns="http://www.w3.org/2000/svg" xmlns:xlink="http://www.w3.org/1999/xlink" x="0px" y="0px"
	 viewBox="0 0 755.3 255.4" style="enable-background:new 0 0 755.3 255.4;" xml:space="preserve">
<style type="text/css">
	.st0{fill:#162A42;}
	.st1{fill:#FF8800;}
	.st2{fill:#FEFEFE;}
	.st3{fill:#030303;}
	.st4{fill:none;stroke:#162A42;stroke-width:3;stroke-miterlimit:10;}
	.st5{fill:#F7F7F7;}
	.st6{fill:#00E959;}
	.st7{fill:#383838;}
</style>
<g>
	<g>
		<g>
			<path class="st0" d="M205,223H37.8c-5.6,0-10.2-4.6-10.2-10.2V66.2c0-5.6,4.6-10.2,10.2-10.2H205c5.6,0,10.2,4.6,10.2,10.2v146.6
				C215.2,218.4,210.6,223,205,223z"/>
		</g>
		<g>
			<g>
				<path class="st0" d="M88.5,242.4l-1.9-6c2.9,4.4,9.9,7.6,15.9,11c-1.5-1.7-2.8-3.1-3.8-7.9c1.7,2.7,16.7,8.9,23-1
					c4.6,6,21.5,4.9,24,0.3c-0.6,3.9-1.2,5.2-5.3,8.6c10.8-2.3,17.5-8.7,18.7-11.3c-0.5,3.1-1.6,5.5-3.5,7.2
					c41.1-17,40.3-65.8,41.7-67.8L116.6,50L46,175.4C46,203.1,68.6,235.9,88.5,242.4z"/>
			</g>
			<g id="XMLID_1_">
				<g>
					<path class="st0" d="M198.9,70.1c3.6,4.5,4.1,9.5,2.9,14.9c0,0,0,0.1,0,0.1c-1,2.9-1,5.7-0.5,8.8c0.8,4.4,0.2,8.8-1.8,12.9
						c-0.9,1.8-2,3.4-3.2,4.9c-0.4,0.4-0.6,0.9-0.5,1.5c0.2,2.5-0.6,4.8-1.8,6.9c-4.5,7.4-9.3,14.5-14,21.7
						c-1.6-0.1-3.1-0.2-4.7-0.3c3.3-5,6.8-9.8,9.8-15c1.8-3.2,4-6.2,5.5-9.6c0.6-1.3,0.7-2.6,0-3.8c-0.4-0.8-1.1-1.2-2-1
						c-2.3,0.4-4.6,1.1-6.5,2.6c-0.1-0.1-0.1-0.1-0.2-0.2c1.3-1.8,3.3-2.5,5.3-3.1c3.8-1.1,6.4-3.5,8-7.1c1.2-2.8,1.6-5.7,1.5-8.8
						c-0.2-4.3-1.8-7.4-4.5-9.4c0.9,0.2,1.6-0.1,2.1-0.9c1,0,1.7-0.8,2.1-2.2c1.2-4.3,1.9-10.6-2.5-11.7c0,0-0.1,0-0.1,0
						c0.6-0.8,0.7-2.2,0.9-3c0.4-1.9,0.3-3.8-0.1-5.7c-0.5-3.3-2.1-6-5-7.9c-0.7-0.4-1.5-0.9-2,0.2c-0.1,0.1-0.1,0.2-0.2,0.4
						c-0.5-0.2-1-0.2-1.3,0.6c-0.1,0.2-0.2,0.5-0.3,0.7c-0.9,0.4-2,0.8-3.2,1c1.3-0.8,2.4-2,3-3.4c2.9-6.2-1.6-17.1-11.1-16.8
						c-0.1,0-0.2,0-0.3,0c-0.6,0-0.8-0.2-0.9-1c-0.1-1.8-0.6-3.4-1.5-5c-1.4-2.6-4.3-4-7.2-3.5c-1,0.1-1.5,0.4-1.7,1
						c-1.1,0.2-1.5,0.6-1.7,1.5c-0.1-4.8-3.3-8.6-8.5-9.6c-2.3-0.5-4.6-0.5-6.8,0.7c-0.3,0.2-0.5,0.3-0.7,0.5
						c-0.3,0.1-0.6,0.3-0.8,0.4c-0.8,0.5-1.3,1-1.3,1.9l-0.7,0c0-0.2,0-0.4,0-0.6c-0.5-4.9-6.8-8.4-11.3-6.3
						c-0.4,0.2-0.7,0.4-0.8,0.7c-0.2,0.1-0.5,0.2-0.7,0.3c-0.7,0.3-1.2,0.6-0.7,1.6l-0.4,0.2c-1-2.1-2.8-3.3-5.6-4
						c-6.6-1.6-12.8-0.6-18.8,2.4c-0.8,0.4-1.5,0.8-2.2,1.3c-2,1.1-3.7,2.5-5.1,4.2c-0.5,0.6-0.8,1.2-0.5,1.7c0,0,0,0,0,0
						c-2.9-2.2-6.2-2.5-9.6-2c-5.8,0.9-10,4.1-13.4,8.6c-0.4,0.5-0.7,1-0.4,1.6c0.3,0.6,1,0.4,1.6,0.4c1.9-0.1,3.8-0.6,5.7-1.2
						c2.1-0.7,4.1-1.4,6.4-2.2c-0.4,0.7-0.9,0.9-1.3,1.2c-3.8,2.1-7.9,3.3-12,4.6c-3.2,1-6.5,1.9-9.4,3.6c-3.3,1.9-6.1,4.3-7.1,8.2
						c-0.6,2.3,0.6,3.7,3,3.7c1.6,0,2.7-0.9,3.9-1.8c3.9-3,8.5-4.3,13.4-4.4c1.1,0,2.3,0,3.3-0.7c0.6-0.5,1-1.1,1.5-1.6
						c2.3-2.3,5.2-3.5,8-4.9c3.1-1.5,5.8-3.5,7.6-6.4c1.2-1.9,1.2-3.6,0.2-5.1c0.6,0.6,1.1,1.3,1.6,1.9c0.9,1.1,2,1.6,3.4,1.6
						c2.5-0.1,4.9-0.5,7.2-1.1c1.4-0.4,2.7-0.8,3.9-1.5c1.2-0.3,2.1-0.7,3.4-2.2c0,0,0,0,0,0c0,0.1-0.1,0.2-0.1,0.3c0,0,0,0,0,0
						c-0.7,1-4.4,3.6-7.3,4.2c-2.7,0.6-5.5,1.1-8.1,2c-1.3,0.5-2.5,1.1-3.6,1.9c-2.2,1.1-4,2.8-4.6,5.2c-0.1,0.6-0.3,1.1-0.3,1.6
						c-0.4-0.4-0.9-0.6-1.7-0.6c-1.6,0-3,0.6-4.4,1.3c-6.4,3-8.4,8.2-7.2,15.2c0,0.1,0,0.2,0,0.2c0.2,0.8,0.5,1.5,0.9,2.2
						c0.8,1.5,1.8,2.8,1.8,2.9l0,0c-0.6-0.5-1.2-1-1.7-1.6c-2.6-2.9-3-6.4-2.6-10.1c0.2-1.4-0.4-2.2-1.8-2.5
						c-0.5-0.1-1.1-0.2-1.6-0.1c-6.5,0.3-11.6,2.9-14.5,8.8c-2.2,4.4-2.4,8.8,0.6,13c0.2,0.2,0.3,0.5,0.1,0.8
						c-0.7-0.6-1.3-1.2-1.7-2c-2.4-4-1.9-8.1-0.4-12.2c0.2-0.5,0.6-1,0.1-1.5c-0.4-0.5-1-0.3-1.5-0.1c-0.4,0.1-0.7,0.2-1.1,0.4
						c-6.1,2.9-9,8.4-7.7,14.9c1,5.1,3.7,8.8,9.2,9.9c0.9,0.2,1.8,0.4,3,0.6c-7.2,0.9-11.5-2.3-13.8-8.6c-0.7,1.2-0.8,2.3-1,3.4
						c-1,5.9,0.5,10.8,5.5,14.4c0.6,0.5,1.2,0.6,2,0.4c2.2-0.7,4.5-0.8,6.8-0.3c1.9,0.4,3.7,0.9,5.3,2.1c-0.2-2.9,0-5.6,0.5-8
						l0.8,0.1c-0.4,1.8-0.5,3.6-0.5,5.5c0,1.5,0.1,3,0.3,4.5c-2.6-1.8-5.5-2.9-8.8-2.9c-2.4,0-4.4,0.6-6,1.9c0,0,0,0,0,0
						c-2,0.9-3.4,2.6-4.3,4.8c-1.3,3.5-0.5,6.8,1.2,9.8c1.8,3.4,4.7,5.5,8.8,5.7c1.5,0.1,2.9,0.3,4.3,0.8c0.8,0.3,1.5,0.7,2.1,1.3
						c-1.6-0.7-3.4-0.4-5.1,0.7c-0.1,0.1-0.3,0.2-0.4,0.3c-0.4,0.2-0.8,0.4-1.1,0.6c-1.1,0.7-1.4,1.7-1.3,2.9
						c0.1,1.7,0.6,3.3,1.3,4.8c2.2,4.7,5.3,8.8,8,13.1c-0.5-0.2-1-0.3-1.5-0.5c-0.6-0.2-1.2-0.4-1.9-0.6c-0.5-0.8-1.1-1.6-1.6-2.3
						c-2.3-3.5-5-6.9-6.6-10.9c-0.8-2.1-1.4-4.3-1-6.6c0.1-0.6-0.1-0.9-0.6-1.2c-8.2-4.5-9.5-15.1-7.2-21.6c0.3-0.8,0.2-1.4-0.3-2
						c-4.2-6.7-4.7-13.7-1.8-21c0.3-0.8,0.5-1.5,0.4-2.4c-0.5-6.4,2.4-11.3,7-15.4c0.5-0.5,0.9-0.9,0.8-1.7
						c-0.3-5.3,2.1-9.3,6.1-12.6c1.6-1.3,3.4-2.3,5.2-3.3c0.5-0.2,0.8-0.6,1.1-1c4-5.9,9.1-10.5,15.6-13.6c3.9-1.8,7.9-2.5,12.2-2.1
						c0.5,0.1,0.9-0.1,1.3-0.3c7.9-5.6,16.6-8.5,26.4-8c2.4,0.1,4.7,0.6,6.9,1.5c0.6,0.2,1.1,0.2,1.7,0c5-2,9.8-1.4,14.3,1.5
						c1.1,0.7,2.1,1,3.4,0.9c5.8-0.4,11.1,1.2,15.7,4.8c0.7,0.6,1.4,1.3,1.9,2c0.5,0.8,1.1,1,1.9,1.1c5.5,0.6,9.6,3,11.4,8.4
						c0.2,0.7,0.8,0.9,1.4,1.1c6.9,2.6,11.7,7.2,13.3,14.5c0.4,1.9,1.1,3.1,2.5,4.4c5.3,4.8,6.6,10.9,5.4,17.6
						C198.6,69.1,198.5,69.6,198.9,70.1z"/>
					<path class="st1" d="M196.6,95.4c0.2,3-0.2,6-1.5,8.8c-1.6,3.5-4.1,6-8,7.1c-2,0.6-4,1.3-5.3,3.1c0,0.1-0.1,0.1-0.1,0.2
						c0.1,0,0.2,0,0.3,0c1.9-1.4,4.2-2.1,6.5-2.6c0.9-0.2,1.6,0.2,2,1c0.7,1.3,0.6,2.6,0,3.8c-1.5,3.4-3.7,6.4-5.5,9.6
						c-3,5.2-6.5,10-9.8,15c-3.1-0.1-6.2-0.2-9.4-0.2l0-0.4c2.4-0.6,4.4-1.8,6-3.6c3.2-3.6,3.7-7.9,3.4-12.4
						c-0.1-1.6-0.4-3.1-0.6-4.7c-0.2-1.6,0.4-3.1,1-4.6c1.4-3.5,3-6.9,4-10.6c0.8-3,3.2-4.4,6-5.4c1.1-0.4,2.2-0.6,3.3-1
						c-1.5-0.4-3-0.2-4.5,0.1c-1.2,0.3-2.3,0.7-3.5,1c-1.3,0.4-2,0.1-2.4-1.2c-0.4-1.4-0.4-2.8,0-4.2c0.8-3,1.6-5.9,2.5-8.9
						c0.4-1.3,1.3-1.9,2.5-1.8c2.3,0,4.4,0.4,6.2,1.2c0.2,0.1,0.5,0.3,0.7,0.5c0.6,0.5,1.2,0.8,1.7,0.9
						C194.8,88,196.4,91.2,196.6,95.4z"/>
					<path class="st1" d="M66.2,127C66.2,127,66.2,127,66.2,127C66.3,126.9,66.3,126.9,66.2,127C66.3,126.9,66.2,126.9,66.2,127
						C66.2,126.9,66.2,127,66.2,127C66.2,127,66.2,127,66.2,127C66.2,127,66.2,127,66.2,127z M177.8,73.5
						C177.8,73.5,177.8,73.6,177.8,73.5L177.8,73.5C177.8,73.5,177.8,73.5,177.8,73.5z M177.8,73.5c0-0.1,0-0.1-0.1-0.1
						C177.7,73.4,177.8,73.5,177.8,73.5z M66.2,127c0.1,0.1,0.2,0.1,0.3,0.2c0.4,0.7,1.1,1,1.8,1.3c1.4,0.5,2.8,0.4,4.2,0.4
						c3.2-0.1,3.9,0.5,4.7,3.5c0.7,2.9,1.9,5.6,4.1,7.7c0.3,0.3,0.5,0.7,1.1,0.7c0-0.1,0.1-0.2,0-0.2c0-0.1-0.1-0.1-0.1-0.2
						c0-0.1-0.1-0.1-0.1-0.2c0,0,0,0,0,0c-1.5-1.7-2.4-3.7-3-5.8c-1-3.6-0.9-7,1.6-10.2c1-1.3,1.6-2.8,2.2-4.3
						c1.7-4.6,2-9.1-0.9-13.3c-1.1-1.6-1.1-3-0.3-4.7c2.6-5,2.4-10.1-0.5-15c-0.1-0.2-0.2-0.6-0.6-0.4c0.1,0.3,0.3,0.7,0.4,1
						c1.7,5.8,1.3,11.1-3.3,15.6c-3.6,3.6-11.1,6.2-16.7,0.9c-0.2-0.2-0.5-0.6-0.9-0.3c0.2,0.2,0.3,0.4,0.5,0.6
						c1.8,2.8,4.3,4.2,7.6,4.4c2.7,0.1,5.1-0.7,7.6-1.6c2.7-1,3.9-0.4,5.2,2.1c0.3,0.5,0.5,1.1,0.6,1.6c1.1,5.6-0.4,10.4-4.4,14.3
						c-1,1-2.1,1.8-3.2,2.3c-0.3,0.1-0.5,0.2-0.8,0.3c-0.3,0.1-0.5,0.2-0.8,0.2c-1.1,0.3-2.1,0.3-3.2,0.1c-0.2,0-0.3-0.1-0.5-0.1
						c-0.1,0-0.2,0-0.2-0.1c-0.2-0.1-0.3-0.1-0.5-0.2c0,0,0,0,0,0c-0.4-0.2-0.8-0.4-1.2-0.6h0c0,0,0,0-0.1,0c-0.1,0-0.2-0.1-0.2,0
						c0,0,0,0,0,0C66.4,126.9,66.3,126.9,66.2,127L66.2,127z M136.7,75.4c-1.1-0.8-1.7-1.2-1.6-0.5c0.4,3.1-0.4,5.3-2.4,6.9
						c-0.3,0.1-0.6,0.3-0.9,0.4c-1.7,0.7-3.4,0.9-5.2,0.8c-0.9,0-3.3-1.5-5.6-3c-0.6-5-4.3-3-4.3-3s2,1.5,4.3,3v0
						c0.1,1.3,0.2,2.6,0.2,3.9c0,0,0,0,0,0c-2.8-4-8.4-6.7-7.2-1.8c0.3,1.3,4.1,1.7,7.2,1.8c0,0,0,0,0,0c0,3.2-0.5,6.2-1.7,9.2
						c-1.1,1.4-2.4,2.9-3.5,4.6c-1,1.6-2.3,2.9-3.8,3.9c-3.1,1.6-6.7,2.2-10.1,1.3c-4.8-1.2-6.9-4.7-7.8-9.1c-0.4-2-0.5-4.1-0.4-6.2
						c0.2-3.1,0.4-6.3-0.7-9.4c-1-3-3-4.9-6.1-5.8c-0.2-0.1-0.4,0-0.6-0.2c0.7-0.2,1.4-0.5,2-0.9c0.4-0.2,0.8-0.5,1.1-0.7
						c0.1-0.1,0.3-0.1,0.4-0.2c3.6-2.1,5.9-5.2,7.7-8.7c0.5-1.1,1-2.2,1.5-3.3c0.2-0.4,0.4-0.8,0.8-1.1c0.4-0.1,0.9-0.1,1.4,0.2
						c1,0.6,1,1.5,0.8,2.4c-0.3,1.2-0.6,2.4-1.1,3.6c-1.6,4.3-1,8.5,0.5,12.6c0.8,2.2,1.9,4.3,2.5,6.6c0.9,3.1,0.9,6.1-0.6,9.1
						c-0.1,0.1-0.2,0.3-0.4,0.4c0,0.1-0.1,0.3-0.1,0.3c0.1,0.1,0.2,0,0.2-0.1c0.1-0.1,0.3-0.2,0.4-0.4c2.3-2.5,2.4-5.4,2-8.5
						c-0.4-2.4-1.3-4.6-2.2-6.9c-1.2-3-2.1-6.1-1.8-9.4c-0.1,2.7,0.5,5.3,1.4,7.9c0.8,2.2,1.9,4.3,2.5,6.6c0.9,3.1,0.9,6.1-0.6,9.1
						c-0.1,0.1-0.2,0.3-0.4,0.4c0,0.1-0.1,0.3-0.1,0.3c0.1,0.1,0.2,0,0.2-0.1c0.1-0.1,0.3-0.2,0.4-0.4c2.3-2.5,2.4-5.4,2-8.5
						c-0.4-2.4-1.3-4.6-2.2-6.9c-1.3-3.2-2.2-6.4-1.7-9.9c0.3-2.3,1.6-4.3,3.4-5.7c0.6-0.3,1.3-0.5,2-0.7c2-0.5,4-0.9,6-1.4
						c1.5-0.4,2.9-1,4-1.9c2.6-1.3,4.3-3.5,5.4-6.4c0.7-1.8,1-3.7,0.9-5.6c-0.5,0.4-0.4,1-0.5,1.5c-0.4,1.9-1.1,3.6-1.9,5
						c0.6-1.8,1-3.6,0.9-5.6c-0.5,0.4-0.4,1-0.5,1.5c-0.9,3.9-2.7,6.9-5.3,8.7c-2.5,1.3-5.6,1.8-9.1,1.3c-3.9-0.5-7.5-1.6-10.2-4.6
						c-3.5-3.8-4.6-8.5-3.3-13.3c0.5-1.8,1.6-3.2,3.1-4.3c0.7-0.3,1.4-0.6,2.1-0.9c2.6-1,5.4-1.4,8.1-2c3.3-0.7,6.3-1.9,8.4-4.6
						c0.1-0.2,0.3-0.3,0.4-0.5c0,0,0,0,0,0c0.1-0.1,0.1-0.2,0.1-0.3c0-0.2,0.1-0.3,0.1-0.6c-1,1.2-2.2,2.1-3.5,2.7
						c-0.7,0.1-1.4,0.3-2.4,0.5c-2.4,0.6-4.8,1-7.2,1.1c-1.4,0-2.5-0.4-3.4-1.6c-0.7-0.9-1.4-1.9-2.3-2.6c-1.1-0.9-0.8-1.6-0.1-2.5
						c1-1.3,2.2-2.4,3.5-3.3c0.2-0.1,0.5-0.2,0.7-0.4c6-3,12.2-4,18.8-2.4c3.9,1,6,3,6.3,7.1c0.4,5.3-1.4,9.6-5.9,12.6
						c-2.8,1.6-5.8,2.6-8.9,3.4c-0.4,0.1-0.8,0.2-1.1,0.4c0.7,0,1.3,0,2-0.1c-0.8,0.2-1.6,0.4-2.4,0.6c-0.4,0.1-0.8,0.2-1.1,0.4
						c2.3,0,4.6-0.5,6.8-1.2c2.4-0.8,4.6-1.7,6.6-3.1c2.5-1.4,4.7-3.3,6.3-5.9c2.3-3.9,2.9-8,0.7-12.1c-0.2-0.5-0.3-0.8-0.2-1
						c4.4-1.5,10.1,1.9,10.6,6.6c0.3,2.8-0.7,5.1-2.3,7.3c-1,1.3-2,2.5-3,3.7c-0.3,0.3-0.5,0.7-0.8,1c-2.3,2.9-3,6.1-1.5,9.6
						c2.8,6.4,0.3,13.7-5.2,18c-0.1,0.1-0.2,0.3-0.2,0.5c-1.2,0.9-2.1,1.4-2.1,1.5c1.9,2.9,1.7-0.2,2.1-1.5c0.6-0.4,1.3-0.9,1.9-1.5
						c0.9-0.5,4.5-2.8,6-5.5c1.1-1.9,1.6-3.9,2.1-6c0.1-0.5,0.3-1,0.6-1.4c2.8-1,5.6-2.1,8.5-2.8c6.9-1.5,9.3,3.4,8.8,8.7
						c-0.3,2.6-1.9,4.5-3.7,6.2c-0.7,0.7-1.4,1.3-2.2,1.9c0.9,0.1,1.5-0.4,2.1-0.9c0.1,0,0.1-0.1,0.2-0.1c0.5-0.1,0.9-0.5,1.4-0.8
						c0.8-0.6,1.6-1.2,2.3-1.9c0.3-0.3,0.6-0.6,1-0.8c3.5-1.7,6.9-0.3,9.5,2c3.8,3.4,4.2,7.9,2.9,12.4c-1.2,4.2-4.4,6.5-7.7,8.9
						c-1,0.7-2,1.5-2.9,2.4c0,0-0.1,0-0.1,0c-3.2-0.8-6.5-1.1-9.8-0.7c-3.3,0.4-6.1,1.5-8.5,3.2c0,0,0,0,0,0
						c-3.1,1.7-5.6,4.3-7.7,7.5c-1,1.6-1.9,3.4-2.2,5.3c-0.4,2.1-1.3,3.6-2.6,4.6c-1,0.5-2.1,0.8-3.4,1.1c-2.1,0.4-4.1,0.6-6.3,0.7
						c0.8,0.3,1.6,0.5,2.4,0.7c-1.3,0.2-2.6,0.2-4,0.3c1.7,0.7,3.5,0.8,5.3,0.7c1.9-0.1,3.8-0.6,5.7-1c1.8-0.4,2.6-0.1,3.6,1.4
						c2.1,3.2,4.7,5.6,8.4,6.9c1.3,0.5,1.6,1.5,1.5,2.7c-0.2,3.1-1.7,5.5-4.3,7.3c-0.3,0.2-0.6,0.4-0.9,0.6c0,0,0,0.1,0,0.1
						c0.5,0.2,0.8,0,1.2-0.2c0.7-0.3,1.3-0.7,1.9-1.1c2.4-1.3,4.2-3.1,5.1-5.6c0.4-1.3,1-2.3,1.9-3c0.5-0.2,1.1-0.4,1.7-0.5
						c1.6-0.3,2.9-0.9,4.1-1.8c0,0,0,0,0,0c1.8-0.9,3.3-2.3,4.6-3.9c-0.5-0.3-0.7,0.1-0.9,0.2c-0.3,0.2-0.6,0.4-0.9,0.6
						c-0.3,0-0.5,0.2-0.6,0.4c-0.1,0.1-0.2,0.1-0.3,0.2l0,0c-3.8,2.1-7.8,2.9-12.3,1.4c-4.4-1.5-7.1-5.3-7.4-9.9
						c-0.4-6.2,2.6-11.5,7-14.5c1.5-0.8,3.1-1.4,4.8-1.7c2.9-0.5,5.9-0.6,8.5,1.2c1.1,0.7,1.9,1.5,1.5,3.1c-0.2,1.1-0.2,2.3,0.3,3.4
						c0.1-1.9,0.5-3.7,1.3-5.3c0,0.3,0,0.6-0.1,0.9c-0.2,1.1-0.2,2.3,0.3,3.4c0.1-2.8,0.9-5.4,2.8-7.5c1-1.2,2.3-2.1,3.6-3
						c0.5-0.3,1-0.7,1.5-1c2.9-2,5.5-4.3,6.8-7.7c2.3-5.8,0.4-15.3-8.2-18c-0.3-0.1-0.6-0.2-0.8-0.3c-2.4-0.5-3.8-2-4.3-4.3
						c-0.3-1.3-0.8-2.6-1.4-3.9c-1.9-3.6-5.4-4.5-9-4c-1.7,0.3-3.4,0.8-5.1,1.5c-0.1,0.1-0.3,0.1-0.4,0.2c-1,0.4-2.1,0.6-3.1,0.6
						c-2.1,0-3.6-1.1-4.2-3.1c-0.9-3,0.3-5.5,2.2-7.7c0.6-0.7,1.1-1.3,1.7-1.9c1-1.1,2-2.1,2.9-3.2c1.8-2,2.7-4.4,2.1-7.1
						c-0.2-0.8,0-1.4,0.5-1.9c1.9-0.8,3.9-0.7,5.9-0.3c6,1.2,9.3,6.1,8.3,12.1c-0.4,2.3-0.6,4.7-0.4,7.1c0.5,6.2,5.1,8.5,10.2,7.9
						c1.8-0.2,3.4-0.9,4.6-1.8c1-0.5,1.8-1.1,2.5-1.8c-1.3,0.4-2.4,0.9-3.6,1.2c-3.2,0.8-6.1,0.4-8.5-2.1c-1.3-1.4-1.7-3.2-1.9-5
						c-0.2-2.1,0.1-4.1,0.3-6.2c0.1-0.9,0-1.8,0-2.7c0-0.5,0-0.9,0.2-1.2c0.1,0,0.1,0,0.2,0c3-0.5,5.8,0.9,7.2,3.5
						c0.9,1.6,1.4,3.2,1.5,5c0,0.9,0.4,1,1.1,1c0.4,0,0.8,0,1.2,0c8.7,0.6,12.6,10.8,9.9,16.7c-1.1,2.3-5.6,3.1-9,3.3
						c-2.3,0.2-4.1,0.1-4.1,0.1s5.1,2.9,7.4,2.7c3.3-0.4,5.9-1.7,7.5-4.6c0.7-0.3,1.3-0.8,1.7-1.2c0.2,0.1,0.4,0.2,0.6,0.4
						c2.9,1.9,4.5,4.6,5,7.9c0.3,1.9,0.5,3.8,0.1,5.7c-0.2,0.9,0.6,1-0.2,1.9c-0.6-0.1-1.2-0.2-2-0.3c-1.5-1.2-3.2-1.8-5.2-1.8
						c-0.3-0.2-0.7-0.4-1-0.6c-0.2-0.1-0.5,0.2-0.8,0c0.2,0.2,0.4,0.4,0.6,0.7c-0.4,0.1-0.8,0.1-1.3,0.3c-0.3,0-0.6,0-0.9,0
						c0.3,0.2,0.5,0.1,0.8,0c0,0,0.1,0,0.1,0c0.8,0.1,1.6,0.4,2.4,0.8c1.9,1.7,4.2,3,6.7,2c0,0,0,0,0,0c2.9,3.4,3.7,7.4,2.5,11.7
						c-0.1,0.5-0.3,1-0.6,1.3c-0.7,0-1.4-0.3-2.3-0.9c-2.2-1.7-4.9-2.2-7.5-2.7c-2.2-0.4-3.5-1.6-4.1-3.7c-0.5-1.6-1.2-3.1-2.4-4.3
						c0.7,2.2,1.3,4.3,1.5,6.6c-0.2-0.4-0.4-0.8-0.6-1.4c-0.5-1.6-1.2-3.1-2.4-4.3c1,3,1.7,6.1,1.5,9.3c-0.5,6.5-2.9,11.7-8.3,15.4
						c0,0,0,0,0,0c-6.8,3.8-13.8,4.4-21.1,1.9c-0.4-0.1-0.7-0.3-1.2-0.1c2.2,1.2,4.4,2,6.7,2.5c-2.3-0.2-4.7-0.6-7.1-1.5
						c-0.4-0.1-0.7-0.3-1.2-0.1c3.9,2.1,8,3.2,12.4,3c4.6-0.2,8.8-1.8,12.6-4.3c0.5-0.3,1.1-0.6,1.6-1c0.7-0.3,1.5-0.5,2.4,0
						c1.5,0.8,1.9,2.3,1.8,3.8c-0.3,6.5-2.9,12.2-8,15.6c-1.8,1-3.9,1.8-6.3,2.2c-4.2,0.8-8.3,0.5-12.5-1c0.9,1,1.9,1.2,2.8,1.5
						c1.1,0.4,2.2,0.6,3.3,0.9c0,0,0,0,0,0c-2.5-0.1-5.1-0.5-7.7-1.5c0.9,1,1.9,1.2,2.8,1.5c1.1,0.4,2.2,0.6,3.3,0.9
						c1.4,0.4,1.5,0.7,1.2,2c-0.6,2.4-2,4.2-4,5.6c-0.3,0.2-0.7,0.5-1,0.7c-4.8,2.7-10,3.8-15.7,2.5c-8.1-1.8-10.8-11.2-5.1-17.1
						c0.4-0.4,0.8-0.7,1.1-1.3c-0.7,0.3-1.3,0.7-1.9,1.1c-1.5,0.7-2.5,1.7-3.3,2.9c-1.5,2-2.1,4.3-2.6,6.7c-0.2,0.9-0.5,1.6-1.1,2.2
						c-0.2,0.1-0.4,0.1-0.6,0.2c-6.1,1.5-12.1,1.9-17.9-1c-5.1-2.5-8.4-6.3-8.4-12.3c0-0.1,0-0.2,0-0.2c0-0.1-0.1-0.1-0.2-0.3
						c-0.8,3.3-0.1,6.2,1.8,8.9c0.4,0.6,0.9,1.2,1.4,1.8c0.3,0.4,0.5,0.8,0.6,1.2c-3.2-2.4-5.2-5.8-5.2-10.4c0-0.1,0-0.2,0-0.2
						c0-0.1-0.1-0.1-0.2-0.3c-0.8,3.3-0.1,6.2,1.8,8.9c0.4,0.6,0.9,1.2,1.4,1.8c1,1.4,1,2.3,0,3.7c-0.7,0.9-1.4,1.7-2.3,2.3
						c-1.4,0.7-2.9,1.1-4.5,1.3c-0.4,0-0.7,0.1-1.1,0.2c0.7,0.1,1.5,0.2,2.2,0.2c-0.8,0.3-1.7,0.4-2.6,0.5c-0.4,0-0.7,0.1-1.1,0.2
						c3.4,0.7,6.5-0.2,9.4-2.1c0.2-0.1,0.4-0.2,0.6-0.4c0.3-0.2,0.7-0.4,1-0.6c0.3-0.2,0.5-0.3,0.8-0.5c0.1-0.1,0.3-0.1,0.4-0.2
						c1.3-0.6,2.7-0.6,4.1-0.2c1.2,0.4,2.5,0.8,3.7,1.3c1.1,0.4,1.6,1.3,1.8,2.4c0.2,1.4,0.4,2.9,0.8,4.3c0.5,1.9,1.7,3.5,3.3,4.5
						c-6.8,0.3-13.6,0.6-20.4,0.7c-5.2,0.1-10.4-0.2-15.4-1.4c-3.5-0.8-6.9-2.1-10.3-3.3c-0.4-0.6-0.7-1.1-1.1-1.7
						c-0.1-0.1-0.1-0.2-0.2-0.3c0.9,0.3,1.9,0.7,2.8,1c-0.4-0.6-0.7-1.1-1.1-1.7c-2.8-4.4-6-8.6-8.2-13.4c-0.7-1.5-1.2-3.1-1.3-4.8
						c-0.1-1,0.2-1.9,0.9-2.6c2.4-1,4.9-0.3,6.5,2c0.2,0.4,0.4,0.8,0.8,1c0-1.5-0.7-3-1.8-4.1c1,0.4,1.8,1.1,2.5,2.1
						c0.2,0.4,0.4,0.8,0.8,1c-0.1-2.4-1.7-4.6-3.9-5.4c-1.4-0.5-2.9-0.7-4.3-0.8c-4.1-0.2-6.9-2.3-8.8-5.7c-1.7-3.1-2.5-6.4-1.2-9.8
						c0.6-1.6,1.5-2.9,2.7-3.8c0,0,0,0,0,0c1.3-0.6,2.8-0.9,4.5-0.9c3.8,0.1,7.1,1.5,10,3.9c0.1,0.1,0.3,0.2,0.4,0.3
						c0,0,0.1,0,0.3,0.1c-0.1-0.8-0.3-1.5-0.4-2.3c0.4,0.3,0.8,0.6,1.2,0.9c0.1,0.1,0.3,0.2,0.4,0.3c0,0,0.1,0,0.3,0.1
						c-0.4-2.3-0.6-4.5-0.7-6.7c-0.1-3.9,0.6-7.7,2.8-11c0.8-1.2,1.7-2.1,2.7-2.9c1.6-0.8,3.4-1.2,5.3-1.4c2.7-0.2,5.4-0.1,7.8,1.4
						c2.7,1.7,3.8,4.3,4.3,7.3c0.5,3.1,0,6.2-0.1,9.3c-0.1,3.7,0.4,7.2,2.5,10.4c2.1,3.1,5.4,4.3,9,4.7c3.3,0.4,3.3,0.3,4.1,3.6
						c1.4,5.3,4.8,8.5,10.3,9.6c-1.6-1-3.3-1.9-4.7-3.3c-0.8-0.8-1.4-1.7-1.9-2.6c1.8,2.6,4.6,4.2,8.2,4.9c-1.6-1-3.3-1.9-4.7-3.3
						c-2.4-2.4-3.5-5.3-3.5-8.7c0-0.8,0.2-1.4,0.7-1.9c0.5-0.3,1.1-0.6,1.6-1c4.2-2.3,7-5.9,8.7-10.4c0.9-2.3,1.5-4.6,1.7-7
						c0-0.3,0.1-0.6,0.2-0.8c0.1,0,0.1,0,0.2,0c1.6-0.3,3.2-0.4,4.8-0.7c2.5-0.4,4.9-1.3,6.9-2.8c1-0.6,2-1.2,2.9-2
						c1-0.4,2.1-0.2,3.3,0.1c4.4,1.3,9.2,0.3,12.9-2.3c2.7-1.5,5-3.8,6.3-6.6c0.1-0.2,0.3-0.4,0.1-0.8c-0.5,0.7-1.1,1.4-1.8,2
						c0-0.1,0.1-0.2,0.1-0.3c0.1-0.2,0.3-0.4,0.1-0.8c-1.4,1.8-2.9,3.3-4.7,4.5c-0.1,0.1-0.2,0.1-0.3,0.2c-3.2,2.1-6.6,2.9-10.3,2.3
						c-0.4-0.1-0.8-0.2-1.1-0.3C140,77.7,138,76.3,136.7,75.4z M160.6,70.4C160.6,70.4,160.5,70.4,160.6,70.4c-0.1-0.1-0.2,0-0.2,0
						C160.4,70.4,160.5,70.5,160.6,70.4C160.5,70.5,160.6,70.5,160.6,70.4z M67.6,118.9c0-0.1,0.1-0.3-0.2-0.3c0,0,0,0,0,0
						c0,0,0,0,0,0l0,0c0,0,0,0,0,0c0,0,0,0,0,0.1c0,0.1,0,0.1,0,0.2c0,0,0,0,0,0.1s0,0,0.1,0.1C67.5,119,67.6,119,67.6,118.9z"/>
					<path class="st2" d="M192,84.2c0.8,0.6,1.6,0.9,2.3,0.9c-0.5,0.8-1.3,1.1-2.1,0.9c-0.7-0.5-1.5-1-2.4-1.3
						c-2.1-1.3-4.5-1.7-6.8-2.2c-1.7-0.3-2.8-1.1-3.5-2.3c0,0,0,0,0,0c-0.2-2.2-0.8-4.4-1.5-6.6c1.2,1.2,1.9,2.7,2.4,4.3
						c0.6,2.1,1.9,3.2,4.1,3.7C187.1,82,189.7,82.5,192,84.2z"/>
					<path class="st1" d="M192.8,71L192.8,71c-0.3,0.3-0.6,0.6-0.9,0.7c-0.3-0.4-0.7-0.7-1.1-1C191.6,70.9,192.3,71,192.8,71z"/>
					<path class="st1" d="M192,71.8c0.1,0.1,0.2,0.2,0.3,0.4c-2.5,1-4.8-0.3-6.7-2C187.8,71.2,190.1,72.8,192,71.8z"/>
					<path class="st1" d="M190.9,70.7c0.4,0.3,0.7,0.6,1.1,1c-1.9,1-4.2-0.5-6.4-1.6c-0.4-0.3-0.8-0.7-1.1-1.1
						c0.4-0.1,0.8-0.1,1.2-0.1C187.8,70.1,189.5,70.5,190.9,70.7z"/>
					<path class="st1" d="M192.1,86c-0.5-0.1-1.1-0.4-1.7-0.9c-0.2-0.2-0.5-0.3-0.7-0.5C190.6,85,191.4,85.5,192.1,86z"/>
					<path class="st2" d="M190.9,70.7c-1.4-0.2-3.1-0.7-5.2-1.8C187.6,69,189.4,69.5,190.9,70.7z"/>
					<path class="st0" d="M184.4,98.5c1.5-0.3,3-0.6,4.5-0.1c-1.1,0.4-2.2,0.7-3.3,1c-2.8,1-5.2,2.4-6,5.4c-1,3.7-2.6,7.1-4,10.6
						c-0.6,1.5-1.2,2.9-1,4.6c0.2,1.6,0.5,3.1,0.6,4.7c0.3,4.5-0.2,8.8-3.4,12.4c-1.6,1.8-3.6,3-6,3.6c1.2-0.9,2.4-1.7,3.4-2.7
						c3.5-3.6,4.7-8,3.7-12.9c-0.5-2.3-2.2-3.9-4.2-3.6c-3.4,0.4-6.7,1.2-9.1,3.9c-2.2,2.5-4.5,4.9-7.3,6.9
						c-5.5,4-14.5,5.9-20.9,2.7c0.5,0.2,1.1,0.4,1.7,0.5c6.3,1.4,12,0,17.2-3.5c0.9-0.5,1.7-1.1,2.6-1.7c1.9-1.4,3.4-3.3,4-5.6
						c0.4-1.4,0.2-1.7-1.1-2c1.6,0,3.3-0.1,4.9-0.4c3-0.6,5.6-1.7,7.8-3.2c6-3.3,9.2-9.4,9.5-16.6c0.1-1.5-0.3-3.1-1.8-3.8
						c-1.5-0.8-2.7,0.2-3.8,0.9c0,0-0.1,0-0.1,0.1c-0.5,0.2-1,0.6-1.4,0.9c0,0-0.1,0.1-0.2,0.1c-3.4,2-7,3.2-11,3.3
						c-2,0.1-3.8-0.1-5.7-0.5c4.8,0.3,9.5-0.8,14-3.3c0.5-0.3,1-0.6,1.5-0.9c0,0,0,0,0,0c6.5-3.6,9.3-9.3,9.8-16.3
						c0.1-0.9,0.1-1.8,0-2.7c0.7,1.2,1.9,2,3.5,2.3c2.4,0.5,4.8,0.9,6.8,2.2c-1.8-0.7-3.8-1.1-6.2-1.2c-1.2,0-2.1,0.5-2.5,1.8
						c-0.9,2.9-1.8,5.9-2.5,8.9c-0.3,1.4-0.4,2.8,0,4.2c0.4,1.3,1.1,1.6,2.4,1.2C182.1,99.2,183.2,98.8,184.4,98.5z"/>
					<path class="st2" d="M186,55.8c0.3-0.8,0.8-0.8,1.3-0.6c-0.3,0.5-0.9,0.9-1.7,1.2C185.8,56.3,185.9,56.1,186,55.8z"/>
					<path class="st1" d="M184.7,68.4c0.4,0.2,0.7,0.4,1,0.6c-0.4,0-0.8,0-1.2,0.1c-0.2-0.2-0.4-0.4-0.6-0.7
						C184.1,68.7,184.4,68.3,184.7,68.4z"/>
					<path class="st2" d="M184.5,69.1c0.4,0.4,0.7,0.7,1.1,1.1c-0.8-0.4-1.6-0.7-2.4-0.8C183.6,69.2,184.1,69.2,184.5,69.1z"/>
					<path class="st3" d="M181.9,114.3c0.1,0.1,0.1,0.1,0.2,0.2c-0.1,0-0.2,0-0.3,0C181.8,114.5,181.8,114.4,181.9,114.3z"/>
					<path class="st0" d="M182.5,57.5c-2.2,1.4-5.2,1.9-7.7,0.9c0,0,0,0,0.2,0C175.8,58.3,179.3,58.2,182.5,57.5z"/>
					<path class="st3" d="M177.8,73.5C177.8,73.5,177.8,73.5,177.8,73.5L177.8,73.5C177.8,73.6,177.8,73.5,177.8,73.5z"/>
					<path class="st3" d="M177.7,73.4c0.1,0,0.1,0,0.1,0.1C177.8,73.5,177.7,73.4,177.7,73.4z"/>
					<path class="st2" d="M176.3,45c-0.6,0.7-1.5,1.3-2.5,1.8c0.3-0.3,0.6-0.5,0.9-0.9c-1.3,0.4-2.4,0.9-3.6,1.2
						c-3.2,0.8-6.1,0.4-8.5-2.1c-1.3-1.4-1.7-3.2-1.9-5c-0.2-2.1,0.1-4.1,0.3-6.2c0.1-0.8,0-1.6,0-2.4c0-0.4,0-0.7,0-1.1
						c0.1-0.9,0.6-1.3,1.7-1.5c-0.1,0.3-0.2,0.7-0.2,1.2c0,0.9,0.1,1.8,0,2.7c-0.2,2.1-0.5,4.1-0.3,6.2c0.2,1.8,0.6,3.6,1.9,5
						c2.4,2.5,5.3,2.9,8.5,2.1C173.9,45.9,175.1,45.5,176.3,45z"/>
					<path class="st0" d="M174.8,46c-0.3,0.3-0.6,0.6-0.9,0.9c-0.9,0.4-2,0.7-3.1,0.9c-5.1,0.6-9.7-1.7-10.2-7.9
						c-0.2-2.4,0-4.7,0.4-7.1c0.1-0.5,0.1-0.9,0.2-1.4c0,0.8,0,1.6,0,2.4c-0.2,2.1-0.5,4.1-0.3,6.2c0.2,1.8,0.6,3.6,1.9,5
						c2.4,2.5,5.3,2.9,8.5,2.1C172.4,46.9,173.5,46.4,174.8,46z"/>
					<path class="st1" d="M172.9,125.2c1,4.9-0.2,9.2-3.7,12.9c-1,1-2.2,1.8-3.4,2.7l0,0.4c-12.6-0.1-25.3,0.5-37.9,1.1
						c-4.1,0.2-8.1,0.4-12.2,0.6c-0.1,0-0.1-0.1-0.2-0.1c-3-1.8-4.3-5-3.3-8.2c0.3-1.1,1-1.8,2.1-1.9c2.7-0.2,5.3-0.8,8-1.3
						c2-0.4,3.8,0,5.3,1c1,1.1,2.3,2.1,3.9,2.7c6.4,3.2,15.4,1.4,20.9-2.7c2.7-2,5-4.4,7.3-6.9c2.4-2.7,5.7-3.4,9.1-3.9
						C170.7,121.3,172.5,122.9,172.9,125.2z"/>
					<path class="st2" d="M164.2,57.1c8.6,2.7,10.4,12.2,8.2,18c-1.3,3.4-3.9,5.7-6.8,7.7c-0.5,0.3-1,0.7-1.5,1l0-0.1
						c2.9-2,5.5-4.3,6.8-7.7c1-2.6,1.2-6,0.3-9.2c-0.4-2.2-1.4-4.2-3.4-5.9c-0.3-0.3-0.7-0.6-1-0.8c0,0-0.1-0.1-0.1-0.1
						c-1.1-0.9-2.5-1.6-4-2.1c-0.3-0.1-0.6-0.2-0.8-0.3c-2.4-0.5-3.8-2-4.3-4.3c-0.1-0.4-0.2-0.8-0.3-1.2c-0.3-2.1-1.2-4-2.9-5
						c-1.9-1.6-4.5-2-7.1-1.6c-1.3,0.2-2.6,0.6-3.9,1l-0.1-0.3c0.1-0.1,0.3-0.1,0.4-0.2c1.6-0.7,3.3-1.2,5.1-1.5
						c3.6-0.6,7.1,0.4,9,4c0.7,1.2,1.1,2.5,1.4,3.9c0.6,2.3,1.9,3.8,4.3,4.3C163.7,56.9,163.9,57,164.2,57.1z"/>
					<path class="st0" d="M171.2,66.9c0.9,3.2,0.7,6.5-0.3,9.2c-1.3,3.4-3.9,5.7-6.8,7.7c-1.8,1.2-3.7,2.4-5.1,4.1
						c-0.6,0.7-1.1,1.5-1.5,2.2c-0.1-1-0.8-1.6-1.6-2.1c-1.7-1.2-3.5-1.6-5.3-1.6l0-0.7c2.2,0,4.3,0.3,6.4,0.9
						c0.5,0.1,0.8,0.1,1.2-0.4c0.1-0.2,0.3-0.4,0.5-0.6c0.5,0.1,0.7,0,1.1-0.4c0.9-1.2,2.1-2.1,3.4-3c3.3-2.3,6.5-4.7,7.7-8.9
						C171.3,71.2,171.5,69,171.2,66.9z"/>
					<path class="st2" d="M170.8,100.6c0.5-0.3,0.9-0.7,1.4-0.9c-0.5,0.3-1.1,0.7-1.6,1C170.7,100.7,170.8,100.6,170.8,100.6z"/>
					<path class="st2" d="M169.5,99.3c-0.5,0.3-1,0.6-1.5,0.9c-4.6,2.6-9.2,3.7-14,3.3c-2.3-0.5-4.5-1.4-6.7-2.5
						c0.5-0.2,0.9,0,1.2,0.1C155.8,103.7,162.7,103.1,169.5,99.3z"/>
					<path class="st1" d="M167.8,61c1.9,1.7,3,3.7,3.4,5.9c-0.7-2.5-2.1-4.9-4.4-6.7C167.1,60.4,167.5,60.7,167.8,61z"/>
					<path class="st2" d="M164.1,83.7L164.1,83.7c-1.3,1-2.5,1.9-3.6,3.1c-1.9,2.2-2.7,4.7-2.8,7.5c-0.5-1.1-0.6-2.3-0.3-3.4
						c0.1-0.3,0.1-0.6,0.1-0.9c0.4-0.8,0.9-1.5,1.5-2.2C160.4,86.1,162.2,84.9,164.1,83.7z"/>
					<path class="st0" d="M162.7,58c1.6,0.5,2.9,1.2,4,2.1c-2.8-2-6.4-2.9-9.9-0.2c-0.8,0.4-1.7,1-2.5,1.8c-0.7,0.6-1.4,1.2-2.2,1.8
						c-0.2,0.1-0.5,0.1-0.8,0c0.8-0.7,1.5-1.3,2.2-1.9c1.7-1.8,3.4-3.6,3.7-6.2c0.1-1,0.1-2.1-0.1-3c0.1,0.4,0.2,0.8,0.3,1.2
						c0.6,2.3,1.9,3.8,4.3,4.3C162.1,57.8,162.4,57.9,162.7,58z"/>
					<path class="st2" d="M162.2,121.4c2.4-0.5,4.4-1.2,6.3-2.2c-2.2,1.5-4.8,2.6-7.8,3.2c-1.6,0.3-3.3,0.5-4.9,0.4c0,0,0,0,0,0
						c-1.1-0.3-2.2-0.5-3.3-0.9c-0.9-0.3-1.9-0.5-2.8-1.5C153.9,121.8,158.1,122.2,162.2,121.4z"/>
					<path class="st1" d="M161.2,30.3c0,0.3,0,0.7,0,1.1c0-0.1,0-0.2,0-0.3C161.1,30.8,161.1,30.5,161.2,30.3z"/>
					<path class="st3" d="M160.5,70.3C160.5,70.4,160.6,70.4,160.5,70.3c0.1,0.1,0,0.1,0,0.2C160.5,70.5,160.4,70.4,160.5,70.3
						C160.4,70.4,160.5,70.4,160.5,70.3z"/>
					<path class="st2" d="M160.3,70.7c0.2,0.4,0,0.6-0.1,0.8c-1.3,2.8-3.6,5.1-6.3,6.6c2-1.4,3.6-3.2,4.7-5.4
						C159.1,72.1,159.7,71.4,160.3,70.7z"/>
					<path class="st2" d="M158.5,85.6C158.5,85.6,158.6,85.6,158.5,85.6c-0.1,0.2-0.2,0.4-0.4,0.6c-0.3,0.4-0.6,0.5-1.2,0.4
						c-2.1-0.5-4.3-0.9-6.4-0.9c-1.1,0-2.2,0.1-3.4,0.2c-2.6,0.4-4.9,1.1-7,2.3c2.4-1.7,5.2-2.8,8.5-3.2
						C152,84.5,155.3,84.8,158.5,85.6z"/>
					<path class="st0" d="M155.2,75.4c1.2-0.8,2.3-1.7,3.3-2.7c-1.1,2.2-2.7,4-4.7,5.4c-3.4,1.9-7.5,2.5-11.4,1.3
						c-0.2-0.1-0.4-0.1-0.5-0.1l0.3-0.9c0.4,0.1,0.8,0.2,1.1,0.3c3.8,0.6,7.2-0.2,10.3-2.3c0.1-0.1,0.2-0.1,0.3-0.2
						C154.4,75.9,154.8,75.6,155.2,75.4z"/>
					<path class="st1" d="M157.2,52.3c-0.3-0.9-0.6-1.8-1.1-2.7c-0.5-1-1.1-1.8-1.9-2.4C155.9,48.3,156.9,50.1,157.2,52.3z"/>
					<path class="st2" d="M156.8,59.9c-0.3,0.2-0.6,0.5-1,0.8c-0.7,0.7-1.5,1.3-2.3,1.9c-0.4,0.3-0.8,0.7-1.4,0.8
						c0.8-0.5,1.5-1.1,2.2-1.8C155.1,60.9,155.9,60.3,156.8,59.9z"/>
					<path class="st2" d="M155.5,111.1c0.2-0.2,0.4-0.6,0.9-0.2c-1.3,1.6-2.8,3-4.6,3.9c1.1-0.8,2.1-1.8,3.1-2.9
						c-0.1-0.1-0.2-0.1-0.3-0.1C154.9,111.5,155.2,111.3,155.5,111.1z"/>
					<path class="st0" d="M154.6,111.6c0.1,0,0.2,0,0.3,0.1c-0.9,1.1-1.9,2.1-3.1,2.9c0,0,0,0,0,0c-0.8,0.4-1.7,0.7-2.6,0.9
						c-1.4,0.2-2.4,0.7-3.3,1.4c-1.7,0.7-2.8,2-3.4,4c-0.7,2-1.9,3.5-3.5,4.7c-0.1,0.1-0.2,0.1-0.3,0.2c-0.4,0.2-0.7,0.4-1.2,0.2
						c0,0,0-0.1,0-0.1c0.3-0.2,0.6-0.4,0.9-0.6c2.6-1.8,4.1-4.2,4.3-7.3c0.1-1.2-0.2-2.2-1.5-2.7c-1.4-0.5-2.7-1.2-3.9-2
						c0.8,0.5,1.7,1,2.6,1.3c5.1,1.7,9.6,0.4,13.8-2.4l0,0C154,112,154.3,111.8,154.6,111.6z"/>
					<path class="st0" d="M154.2,47.2c-1.4-0.9-3.3-1.2-5.8-0.6c-3,0.7-5.9,1.9-8.9,2.9c-0.5,0.2-0.9,0.5-1.2,0.8
						c-0.1,0-0.2,0.1-0.3,0.1c-1.1,0.4-1.6,1.1-1.8,2.2c-0.4,2.1-1,4.1-2.1,6c-0.9,1.5-2.7,3.2-4.4,4.6c-0.2,0.1-0.3,0.1-0.2,0
						c5.2-4,7.6-10.6,5.8-16.6c0.8,0.8,1.8,1.2,3.1,1.2c1.2,0,2.4-0.3,3.6-0.7c0.4-0.2,0.8-0.3,1.2-0.5c1.3-0.5,2.5-0.8,3.9-1
						C149.7,45.2,152.3,45.6,154.2,47.2z"/>
					<path class="st0" d="M150.5,85.7l0,0.7c-1.1,0-2.1,0.1-3.2,0.3c-2.3,0.4-4.4,1.3-6.4,2.6c-2.3,1.2-4.3,3.1-5.8,5.3l-0.7-0.4
						c1.6-2.5,3.5-4.5,5.8-6.1c0,0,0,0,0,0c2.1-1.1,4.4-1.9,7-2.3C148.3,85.7,149.4,85.6,150.5,85.7z"/>
					<path class="st2" d="M141.4,113.6c4.5,1.5,8.5,0.7,12.3-1.4c-4.2,2.8-8.7,4.1-13.8,2.4c-1-0.3-1.8-0.8-2.6-1.3c0,0,0,0-0.1-0.1
						c-0.6-0.4-1.1-0.9-1.6-1.4c-1.8-1.9-2.9-4.4-3.1-7.2c-0.3-3.9,0.8-7.4,2.7-10.2c1.5-2.2,3.5-4,5.8-5.3c-4.4,3-7.4,8.3-7,14.5
						C134.3,108.3,137,112.2,141.4,113.6z"/>
					<path class="st2" d="M145.9,117c-0.8,0.7-1.4,1.7-1.9,3c-0.9,2.6-2.7,4.4-5.1,5.6c1.6-1.2,2.9-2.7,3.5-4.7
						C143.2,119,144.2,117.7,145.9,117z"/>
					<path class="st2" d="M144.7,23.9c0.5,2.7-0.3,5.1-2.1,7.1c-1,1.1-2,2.1-2.9,3.2l-0.4-0.3c0.6-0.6,1.2-1.3,1.7-1.9
						c1.8-2,2.7-4.4,2.1-7.1c0-0.2-0.1-0.4-0.1-0.6c0-0.9,0.5-1.4,1.3-1.9c0.3-0.2,0.5-0.3,0.8-0.4C144.8,22.4,144.6,23,144.7,23.9z
						"/>
					<path class="st0" d="M143.2,24.8c0.5,2.7-0.3,5.1-2.1,7.1c-0.6,0.6-1.2,1.3-1.7,1.9c-1,1-2,2.1-2.9,3.2
						c-1.2,1.5-2.2,3.1-2.4,4.8c-0.1-2.1,0.7-4,2-5.9c0.1-0.1,0.2-0.2,0.3-0.4c1.2-1.6,2.6-3.1,3.8-4.7c1.5-2,2.5-4.2,2.4-6.7l0.7,0
						C143.1,24.4,143.2,24.6,143.2,24.8z"/>
					<path class="st2" d="M143.1,46.3l0.1,0.3c-0.4,0.1-0.8,0.3-1.2,0.5c-1.1,0.5-2.3,0.7-3.6,0.7c-1.3,0-2.4-0.4-3.1-1.2
						c-0.1-0.5-0.3-0.9-0.5-1.4c-0.5-1.2-0.7-2.3-0.8-3.4c0.2-1.8,1.2-3.4,2.4-4.8c0.9-1.1,1.9-2.2,2.9-3.2l0.4,0.3
						c-0.6,0.6-1.2,1.3-1.7,1.9c-1.9,2.2-3.1,4.7-2.2,7.7c0.6,2,2.1,3.1,4.2,3.1C141.1,46.9,142.1,46.7,143.1,46.3z"/>
					<path class="st0" d="M142.2,78.4l-0.3,0.9c-1.6-0.4-2.9-0.3-4.3,0.9c0,0,0,0,0,0c-0.5,0.2-1,0.5-1.5,0.9
						c-0.5,0.4-0.9,0.8-1.4,1.1c-1.7,0.9-3.5,1.5-5.4,1.8c-0.6,0.1-1.2,0.2-1.9,0.3l-0.1-0.5c0.9-0.1,1.9-0.4,2.8-0.7
						c1-0.4,1.8-0.8,2.5-1.4c2.8-1.4,4.1-3.4,4.1-6.4C138,76.3,140,77.7,142.2,78.4z"/>
					<path class="st2" d="M134.7,134.6c5.7,1.3,10.9,0.2,15.7-2.5c-5.2,3.4-10.9,4.9-17.2,3.5c-0.6-0.1-1.2-0.3-1.7-0.5
						c-1-0.5-2-1.1-2.8-1.9c-0.3-0.3-0.7-0.5-1-0.8c-3.3-3.7-3.5-9.7,0.5-13.9c0.4-0.4,0.8-0.7,1.1-1.3c-0.1,0-0.2,0.1-0.3,0.1
						c0.5-0.4,1.1-0.8,1.9-1.1c-0.3,0.7-0.8,1-1.1,1.3C123.9,123.4,126.7,132.8,134.7,134.6z"/>
					<path class="st2" d="M138,50.5c0.1,0,0.2-0.1,0.3-0.1c-0.3,0.4-0.5,0.8-0.6,1.4c-0.4,2.1-1,4.1-2.1,6c-1.5,2.7-5.1,5-6,5.5
						c1.7-1.4,3.6-3.1,4.4-4.6c1.1-1.9,1.6-3.9,2.1-6C136.4,51.6,136.9,50.8,138,50.5z"/>
					<path class="st1" d="M135.5,111.9c0.5,0.5,1,0.9,1.6,1.4C136.6,112.9,136,112.4,135.5,111.9z"/>
					<path class="st2" d="M136.1,81.1c0.5-0.5,1-0.7,1.5-0.9c-0.9,0.8-1.9,1.5-2.9,2C135.2,81.9,135.7,81.5,136.1,81.1z"/>
					<path class="st0" d="M134.4,94.2l0.7,0.4c-1.9,2.8-3,6.3-2.7,10.2c0.2,2.8,1.3,5.3,3.1,7.2c-1.1-1-2-2.2-2.8-3.4
						c-1-1.5-1.8-1.8-3.6-1.4c-1.9,0.4-3.8,0.9-5.7,1c-1,0.1-1.9,0-2.9-0.1c0.8-0.1,1.5-0.2,2.3-0.4c1.9-0.4,3.6-1,4.9-2
						c2.1-1,3.7-2.7,4.1-5.6c0.3-1.9,1.2-3.6,2.2-5.3C134.2,94.5,134.3,94.4,134.4,94.2z"/>
					<path class="st1" d="M134.8,45.3c0.2,0.5,0.4,0.9,0.5,1.4c-0.5-0.5-0.8-1.1-1.1-1.9c-0.3-1-0.4-2-0.2-2.9
						C134,43,134.3,44.1,134.8,45.3z"/>
					<path class="st2" d="M131.7,82.2c0.3-0.1,0.6-0.3,0.9-0.4c-0.7,0.5-1.5,1-2.5,1.4c-0.9,0.4-1.8,0.6-2.8,0.7
						c-0.8,0.1-1.6,0.1-2.4,0.1c-0.6,0-2.1,0-3.8-0.1c0-1.3-0.1-2.6-0.2-3.9v0c2.2,1.5,4.6,3,5.6,3C128.3,83.1,130,82.9,131.7,82.2z
						"/>
					<path class="st2" d="M130.4,19.1c2.1,4.1,1.5,8.2-0.7,12.1c-1.6,2.7-3.7,4.5-6.3,5.9c1.9-1.3,3.5-2.9,4.7-5
						c2.3-3.9,2.9-8,0.7-12.1c0,0,0-0.1-0.1-0.1c-0.4-0.9,0-1.2,0.7-1.6c0.2-0.1,0.5-0.2,0.7-0.3C130.2,18.4,130.2,18.7,130.4,19.1z
						"/>
					<path class="st0" d="M123,36c4.7-3.1,6.6-7.4,6.1-12.8c-0.1-1.2-0.3-2.2-0.7-3l0.4-0.2c0,0,0,0.1,0.1,0.1
						c2.1,4.1,1.5,8.2-0.7,12.1c-1.2,2.1-2.8,3.7-4.7,5c-1.6,0.9-3.2,1.6-5,2.1c-1.6,0.5-3.2,0.9-4.8,1.1c2.8-0.8,5.4-1.9,7.8-3.5
						c0.1,0,0.2-0.1,0.2-0.2C122.2,36.5,122.6,36.3,123,36z"/>
					<path class="st0" d="M128.9,117.2c0.1,0,0.2-0.1,0.3-0.1c-0.3,0.7-0.8,1-1.1,1.3c-4,4.2-3.8,10.2-0.5,13.9
						c-1.5-1-3.3-1.4-5.3-1c-2.6,0.5-5.3,1.2-8,1.3c-1.1,0.1-1.8,0.8-2.1,1.9c-0.9,3.3,0.3,6.4,3.3,8.2c0.1,0,0.1,0.1,0.2,0.1
						c-0.5,0-1,0-1.5,0.1c-1.6-1.1-2.8-2.7-3.3-4.5c-0.4-1.4-0.5-2.8-0.8-4.3c-0.2-1.1-0.7-2-1.8-2.4c-1.2-0.5-2.5-0.9-3.7-1.3
						c-0.1,0-0.1,0-0.2-0.1l0.1-0.3c4.9,1.6,10.1,1.1,15.2-0.1c0.9-0.2,1.6-0.6,2.1-1.1c1.4-0.5,2.3-1.5,2.6-3.1
						c0.5-2.4,1.1-4.7,2.6-6.7C127.6,118.4,128.2,117.8,128.9,117.2z"/>
					<path class="st1" d="M128.6,133.1c0.9,0.8,1.8,1.4,2.8,1.9c-1.6-0.6-2.9-1.6-3.9-2.7C127.9,132.5,128.3,132.8,128.6,133.1z"/>
					<path class="st0" d="M127.4,83.9l0.1,0.5c-1,0.1-1.9,0.2-2.9,0.4c-0.7,0.1-1.4,0.4-1.7,1c-0.3,0.1-0.5,0.1-0.7,0.2
						c-0.2-0.7-0.5-1.4-1-2.1c0,0,0,0,0,0c1.7,0.1,3.2,0,3.8,0.1C125.8,84,126.6,84,127.4,83.9z"/>
					<path class="st1" d="M127.7,64.7c-0.4,1.3-0.2,4.4-2.1,1.5C125.6,66.1,126.5,65.6,127.7,64.7z"/>
					<path class="st2" d="M125,44.2c0.1,2-0.3,3.8-0.9,5.6c-1,2.9-2.8,5.1-5.4,6.4c1.8-1.3,3-3.1,3.8-5.4c0,0,0-0.1,0-0.1
						c0.9-1.4,1.5-3.1,1.9-5C124.6,45.2,124.5,44.6,125,44.2z"/>
					<path class="st2" d="M124.4,106.7c1.2-0.3,2.3-0.6,3.4-1.1c-1.3,1-3,1.6-4.9,2c-0.8,0.2-1.5,0.3-2.3,0.4
						c-0.8-0.1-1.6-0.3-2.4-0.7C120.2,107.2,122.3,107.1,124.4,106.7z"/>
					<path class="st2" d="M122.9,85.7c-0.1,0.2-0.2,0.5-0.2,0.8c-0.2,2.4-0.8,4.7-1.7,7c-1.7,4.5-4.5,8.1-8.7,10.4
						c3.4-2.3,5.6-5.6,7.2-9.4c0.3-0.8,0.6-1.6,0.8-2.4c1.5-2.1,2.5-4,1.9-6.2C122.4,85.9,122.6,85.8,122.9,85.7z"/>
					<path class="st0" d="M122.6,50.7C122.5,50.8,122.5,50.8,122.6,50.7c-0.9,2.4-2.1,4.2-3.9,5.5c-0.7,0.4-1.6,0.7-2.5,0.9
						c-1,0.2-2,0.5-3,0.7l-0.1-0.4c1.7-0.4,3.2-1.1,4.5-2C119.7,54.4,121.3,52.8,122.6,50.7z"/>
					<path class="st1" d="M122.1,86c0.5,2.1-0.5,4.1-1.9,6.2c0.5-1.5,0.8-3,0.9-4.6C121.2,86.7,121.6,86.2,122.1,86z"/>
					<path class="st2" d="M122.1,86c-0.6,0.3-1,0.7-1,1.5c-0.1,1.6-0.4,3.1-0.9,4.6c-0.2,0.3-0.4,0.6-0.7,0.9c1.2-2.9,1.7-6,1.7-9.2
						C121.7,84.6,122,85.3,122.1,86z"/>
					<path class="st2" d="M121.7,36.8c-0.1,0.1-0.2,0.1-0.2,0.2c-2.4,1.6-5.1,2.7-7.8,3.5c-0.6,0.1-1.3,0.1-2,0.1
						c0.4-0.2,0.7-0.3,1.1-0.4C115.9,39.4,118.9,38.4,121.7,36.8z"/>
					<path class="st2" d="M121.3,129.1c0.2,0,0.4-0.1,0.6-0.2c-0.5,0.5-1.2,0.9-2.1,1.1c-5.1,1.2-10.2,1.7-15.2,0.1
						c-0.9-0.3-1.8-0.7-2.7-1.1c-1.2-0.6-2.2-1.2-3.2-1.9c-0.1-0.4-0.3-0.7-0.6-1.2c-0.4-0.6-0.9-1.2-1.4-1.8
						c-1.9-2.7-2.7-5.6-1.8-8.9c0.1,0.2,0.2,0.2,0.2,0.3c0,0.1,0,0.2,0,0.2c-0.1,6,3.3,9.8,8.4,12.3
						C109.2,131,115.2,130.6,121.3,129.1z"/>
					<path class="st0" d="M120.9,80c-2.3-1.5-4.3-3-4.3-3S120.4,75,120.9,80z"/>
					<path class="st0" d="M119.5,93.1c0.2-0.3,0.5-0.6,0.7-0.9c-0.2,0.8-0.5,1.6-0.8,2.4c-1.5,3.9-3.8,7.1-7.2,9.4
						c-0.2,0.1-0.5,0.3-0.7,0.4c-0.3,0.2-0.6,0.4-0.8,0.6c-0.2,0.1-0.5,0.2-0.7,0.4c-1.1,0.5-1.6,1.3-1.5,2.5
						c0.1,2.2,0.5,4.3,1.6,6.1c-0.9-1.3-1.6-2.8-2.1-4.6c-0.9-3.3-0.9-3.2-4.1-3.6c-3.6-0.4-6.8-1.7-9-4.7c-1.8-2.7-2.4-5.7-2.5-8.8
						c0.1,0.9,0.2,1.8,0.4,2.7c0.9,4.4,3,7.9,7.8,9.1c4,1,8.3,0.1,11.7-2.3c2.1-1.1,4-2.8,5.4-4.9C118.4,95.5,119,94.3,119.5,93.1z"
						/>
					<path class="st1" d="M121.2,83.9c-3.1-0.1-6.9-0.5-7.2-1.8C112.8,77.2,118.4,79.9,121.2,83.9z"/>
					<path class="st2" d="M117,26.4c0-0.1,0.1-0.2,0.1-0.3C117.1,26.2,117.1,26.3,117,26.4z"/>
					<path class="st2" d="M113.5,115.5c1.4,1.4,3,2.3,4.7,3.3c-3.6-0.7-6.3-2.4-8.2-4.9c-1-1.8-1.5-3.9-1.6-6.1c0-1.2,0.5-2,1.5-2.5
						c0.2-0.1,0.5-0.2,0.7-0.4c-0.5,0.5-0.7,1.1-0.7,1.9C110.1,110.1,111.1,113.1,113.5,115.5z"/>
					<path class="st2" d="M117.7,55.4c-1.3,1-2.8,1.7-4.5,2c-1.8,0.4-3.9,0.5-6.1,0.2c-1.2-0.1-2.4-0.4-3.5-0.7
						c-0.1-0.2-0.3-0.3-0.5-0.5c-0.5-0.3-1-0.3-1.4-0.2c-1.8-0.7-3.4-1.8-4.8-3.3c0,0-0.1-0.1-0.1-0.1v0c-0.2-1.1-0.6-2.2-1.2-3.2
						c-1.1-2.1-1.6-4.4-1.7-6.7c-0.1-0.7-0.2-1.3-0.6-1.6c0.1-0.5,0.2-1.1,0.3-1.6c0.7-2.4,2.4-4.1,4.6-5.2
						c-1.5,1.1-2.6,2.5-3.1,4.3c-1.3,4.9-0.1,9.5,3.3,13.3c2.7,3,6.3,4.1,10.2,4.6C112.1,57.2,115.2,56.7,117.7,55.4z"/>
					<path class="st0" d="M113.1,57.5l0.1,0.4c-1,0.2-2,0.4-3,0.7c-1.3,0.3-2.5,0.9-3.5,1.6c-2.6,1.3-4.5,3.7-4.9,6.6
						c0,0.2,0,0.3-0.1,0.5c0.1-1.5,0.4-3.1,1-4.7c0.4-1.2,0.8-2.4,1.1-3.6c0.2-0.7,0.2-1.4-0.3-2c1.1,0.3,2.3,0.5,3.5,0.7
						C109.2,58,111.3,57.9,113.1,57.5z"/>
					<path class="st2" d="M111.4,28.8c1-0.3,1.7-0.4,2.4-0.5c-1.2,0.7-2.5,1.1-3.9,1.5c-2.4,0.6-4.8,1-7.2,1.1
						c-1.4,0-2.5-0.4-3.4-1.6c-0.5-0.7-1-1.4-1.6-1.9c-0.3-0.5-0.8-1-1.4-1.4c-0.3-0.6,0-1.1,0.5-1.7c1.4-1.8,3.1-3.2,5.1-4.2
						c-1.3,0.9-2.5,2-3.5,3.3c-0.7,0.9-1,1.6,0.1,2.5c0.9,0.7,1.6,1.7,2.3,2.6c0.9,1.1,2,1.6,3.4,1.6
						C106.6,29.8,109,29.4,111.4,28.8z"/>
					<path class="st2" d="M107.3,82.6c0.5,3.1,0.3,6.1-2,8.5c-0.1-0.1-0.1-0.1-0.2-0.2c1.5-2.9,1.5-6,0.6-9.1
						c-0.7-2.3-1.7-4.4-2.5-6.6c-1-2.6-1.6-5.3-1.4-7.9c0,0,0,0,0,0c0-0.2,0-0.3,0.1-0.5c0.4-2.9,2.3-5.3,4.9-6.6
						c-1.8,1.4-3,3.4-3.4,5.7c-0.5,3.5,0.4,6.7,1.7,9.9C106,78,106.9,80.2,107.3,82.6z"/>
					<path class="st2" d="M102.1,102.9c3.4,0.9,7,0.3,10.1-1.3c-3.4,2.4-7.6,3.3-11.7,2.3c-4.8-1.2-6.9-4.7-7.8-9.1
						c-0.2-0.9-0.3-1.8-0.4-2.7c0-0.5,0-1,0-1.5c0.1-3.1,0.6-6.2,0.1-9.3c-0.5-3-1.6-5.6-4.3-7.3c-1-0.6-2-1-3.1-1.2
						c0.5-0.1,1-0.3,1.5-0.5c0,0,0,0,0,0c0.2,0.1,0.4,0.1,0.6,0.2c3.1,0.9,5.1,2.8,6.1,5.8c1.1,3.1,0.8,6.2,0.7,9.4
						c-0.1,2.1-0.1,4.2,0.4,6.2C95.2,98.2,97.3,101.7,102.1,102.9z"/>
					<path class="st3" d="M105.3,91.1c-0.1,0.1-0.3,0.2-0.4,0.4c-0.1-0.1-0.1-0.1-0.2-0.2c0.1-0.1,0.2-0.3,0.4-0.4
						C105.1,91,105.2,91.1,105.3,91.1z"/>
					<path class="st3" d="M104.7,91.3c0.1,0.1,0.1,0.1,0.2,0.2c0,0.1-0.1,0.2-0.2,0.1C104.6,91.6,104.7,91.4,104.7,91.3z"/>
					<path class="st0" d="M104.6,130.2l-0.1,0.3c-1.3-0.3-2.6-0.3-3.9,0.3c-0.7,0.3-1.3,0.7-1.9,1.1c-0.6,0.3-1.2,0.7-1.7,1.1
						c-2,1.1-4,1.7-6.2,1.7c1.3-0.4,2.4-1,3.5-1.7c1.5-0.7,2.8-1.8,3.8-3.3c0.7-1,0.9-1.7,0.7-2.6c1,0.7,2,1.4,3.2,1.9
						C102.7,129.5,103.7,129.9,104.6,130.2z"/>
					<path class="st1" d="M102.9,56.6c0.2,0.1,0.4,0.3,0.5,0.5c-0.7-0.2-1.3-0.4-2-0.7C102,56.2,102.4,56.3,102.9,56.6z"/>
					<path class="st0" d="M96.8,53.1c1.4,1.5,3,2.6,4.8,3.3c-0.4,0.1-0.8,0.4-1.2,0.7c-0.1,0.1-0.2,0.2-0.3,0.2
						c-0.4,0.1-0.9,0.4-1.3,0.7c-0.5,0.4-0.8,0.9-1.1,1.4c-0.5,1.1-1,2.2-1.5,3.3c-0.5,0.9-0.9,1.7-1.5,2.6l-0.8-0.5
						c0.7-1.1,1.4-2.4,1.9-3.7c1.1-2.7,1.5-5.4,0.9-8.1C96.7,53,96.7,53,96.8,53.1z"/>
					<path class="st2" d="M100,57.3c-0.3,0.3-0.6,0.7-0.8,1.1c-0.5,1.1-1,2.2-1.5,3.3c-1.8,3.5-4.1,6.6-7.7,8.7
						c-0.1,0.1-0.3,0.2-0.4,0.2c2.1-1.5,3.7-3.3,5.1-5.4c0.5-0.8,1-1.7,1.5-2.6c0.5-1.1,1-2.2,1.5-3.3c0.3-0.5,0.6-1,1.1-1.4
						C99.2,57.7,99.6,57.4,100,57.3z"/>
					<path class="st2" d="M98.7,131.9c-0.3,0.2-0.5,0.3-0.8,0.5c-0.3,0.2-0.7,0.4-1,0.6C97.5,132.6,98.1,132.2,98.7,131.9z"/>
					<path class="st1" d="M97.6,27.3c1,1.5,1,3.3-0.2,5.1c-1.8,2.9-4.5,4.9-7.6,6.4c-2.8,1.4-5.7,2.6-8,4.9c-0.5,0.5-1,1.2-1.5,1.6
						c-0.9,0.7-2.1,0.7-3.3,0.7c-4.9,0.1-9.5,1.5-13.4,4.4c-1.2,0.9-2.3,1.8-3.9,1.8c-2.4,0-3.6-1.4-3-3.7c1-3.9,3.8-6.3,7.1-8.2
						c2.9-1.7,6.2-2.5,9.4-3.6c4.1-1.3,8.2-2.6,12-4.6c0.4-0.2,0.9-0.4,1.3-1.2c-2.3,0.8-4.4,1.5-6.4,2.2c-1.8,0.6-3.7,1.1-5.7,1.2
						c-0.6,0-1.3,0.2-1.6-0.4c-0.3-0.6,0-1.1,0.4-1.6c3.4-4.5,7.7-7.7,13.4-8.6c3.4-0.6,6.7-0.3,9.6,2c0,0,0,0,0,0
						c0.1,0.2,0.3,0.5,0.6,0.7C97.2,26.8,97.4,27,97.6,27.3z"/>
					<path class="st1" d="M97.6,27.3c-0.2-0.2-0.5-0.5-0.7-0.7c-0.3-0.3-0.5-0.5-0.6-0.7C96.8,26.3,97.3,26.8,97.6,27.3z"/>
					<path class="st1" d="M96.6,52.9c0.6,2.7,0.2,5.4-0.9,8.1c-0.5,1.3-1.2,2.6-1.9,3.7c-2.2,3.4-5.4,5.7-9.9,6.4
						c-4.3,0.7-8.5,0-11.6-3.5c-0.3-0.4-0.6-0.8-0.9-1.2c0,0,0,0,0,0c-0.8-1.7-1.3-3.4-1.5-4.8c0,0,0,0,0,0c0-0.7,0-1.5,0.1-2.2
						c0,0,0,0,0,0c0-0.2,0.1-0.5,0.1-0.7c0-0.2,0.1-0.4,0.1-0.6c0-0.1,0-0.1-0.1-0.2c-0.3,0.4-0.5,0.8-0.7,1.2
						c-1.8,4.2,1,9.7,6.6,12.5c0.1,0.1,0.2,0.1,0.3,0.1c-6.1,2.7-9.3,7-10.5,12.3c-0.6,2.5-0.7,5.2-0.5,8c-1.6-1.2-3.4-1.7-5.3-2.1
						c-2.3-0.5-4.5-0.4-6.8,0.3c-0.8,0.3-1.3,0.1-2-0.4c-5-3.6-6.6-8.5-5.5-14.4c0.2-1.1,0.4-2.2,1-3.4c2.3,6.4,6.6,9.5,13.8,8.6
						c-1.2-0.2-2.1-0.4-3-0.6c-5.5-1.1-8.2-4.8-9.2-9.9c-1.3-6.6,1.6-12,7.7-14.9c0.3-0.2,0.7-0.3,1.1-0.4c0.5-0.1,1.1-0.4,1.5,0.1
						c0.4,0.5,0,1-0.1,1.5c-1.4,4.1-2,8.2,0.4,12.2c0.5,0.8,1.1,1.4,1.7,2c0.2-0.3,0-0.6-0.1-0.8c-3-4.2-2.8-8.6-0.6-13
						c2.9-5.9,8-8.5,14.5-8.8c0.5,0,1.1,0,1.6,0.1c1.4,0.3,2,1,1.8,2.5c-0.4,3.7,0,7.1,2.6,10.1c0.5,0.6,1.2,1.1,1.7,1.6l0,0
						c0.1-0.1,0.1-0.1,0.2-0.2c-0.6-0.9-1.4-1.8-1.9-2.7c-0.4-0.8-0.8-1.6-0.9-2.2c0-0.1,0-0.2,0-0.2c-1.2-7,0.8-12.3,7.2-15.2
						c1.4-0.7,2.8-1.3,4.4-1.3c0.8,0,1.3,0.2,1.7,0.6C92.4,45.6,93.7,49.6,96.6,52.9L96.6,52.9z"/>
					<path class="st1" d="M95.4,49.7c0.6,1.1,1,2.2,1.2,3.2c-3-3.4-4.2-7.3-3.5-11.6c0.4,0.4,0.6,0.9,0.6,1.6
						C93.9,45.3,94.3,47.6,95.4,49.7z"/>
					<path class="st0" d="M93.9,64.7l0.8,0.5c-1.3,2.1-3,4-5.1,5.4c-1.1,0.6-2.2,0.9-3.4,1.2c0.1,0.2,0.2,0.3,0.3,0.4
						c-0.5,0.2-1,0.3-1.5,0.5c-1.5-0.3-3.1-0.3-4.7-0.2c-2.6,0.2-4.9,0.9-6.9,2.3c-1.7,0.8-3.1,2.1-4.2,3.8
						c-1.2,1.7-1.9,3.6-2.3,5.5L66,84.1c1.2-5.3,4.4-9.6,10.5-12.3c-0.1,0-0.2-0.1-0.3-0.1c-2.2-1.1-3.6-3-4.6-5
						c0.2,0.3,0.5,0.7,0.8,1c3.1,3.6,7.2,4.2,11.6,3.5C88.5,70.4,91.6,68.1,93.9,64.7z"/>
					<path class="st2" d="M94.2,132.9c-1,0.8-2.2,1.3-3.5,1.7c-0.7,0-1.4-0.1-2.2-0.2c0.4-0.1,0.7-0.1,1.1-0.2
						C91.3,134.1,92.8,133.6,94.2,132.9z"/>
					<path class="st1" d="M92.5,81.2c0.5,3.1,0,6.2-0.1,9.3c0,0.5,0,1,0,1.5c-0.1-1.2-0.1-2.3,0-3.5c0.2-3.1,0.4-6.3-0.7-9.4
						c-1-3-3-4.9-6.1-5.8c-0.3-0.1-0.7,0-0.9-0.5c0.1,0,0.2-0.1,0.3-0.1c1.1,0.2,2.1,0.6,3.1,1.2C90.8,75.6,92,78.2,92.5,81.2z"/>
					<path class="st0" d="M82,106.4c2.9,4.2,2.6,8.8,0.9,13.3c-0.6,1.5-1.2,3-2.2,4.3c-2.4,3.1-2.5,6.5-1.6,10.2
						c0.6,2.2,1.5,4.1,3,5.8c0,0,0,0,0,0c0,0,0.1,0.1,0.1,0.2c0,0.1,0.1,0.1,0.1,0.2c0,0.1,0,0.1,0,0.2c-0.5,0-0.8-0.4-1.1-0.7
						c-2.2-2.1-3.3-4.8-4.1-7.7c-0.8-3-1.5-3.6-4.7-3.5c-1.4,0-2.9,0.2-4.2-0.4c-0.7-0.3-1.4-0.5-1.8-1.3c0,0,0.1-0.1,0.1-0.1h0
						c0.4,0.2,0.8,0.4,1.2,0.6c0,0,0,0,0,0c0.2,0.1,0.3,0.1,0.5,0.2c0.1,0,0.2,0,0.2,0.1c0.2,0,0.3,0.1,0.5,0.1
						c1.1,0.2,2.1,0.2,3.2-0.1c0.3-0.1,0.5-0.1,0.8-0.2c0.3-0.1,0.6-0.2,0.8-0.3c1.1-0.5,2.2-1.3,3.2-2.3c4.1-3.9,5.6-8.8,4.4-14.3
						c-0.1-0.6-0.3-1.1-0.6-1.6c-1.3-2.5-2.5-3.1-5.2-2.1c-2.5,0.9-4.9,1.7-7.6,1.6c-3.3-0.2-5.9-1.6-7.6-4.4
						c-0.1-0.2-0.3-0.4-0.5-0.6c0.5-0.3,0.7,0.1,0.9,0.3c5.6,5.3,13.1,2.6,16.7-0.9c4.5-4.5,4.9-9.8,3.3-15.6
						c-0.1-0.3-0.2-0.7-0.4-1c0.5-0.2,0.5,0.2,0.6,0.4c2.8,4.9,3.1,9.9,0.5,15C80.9,103.4,80.9,104.8,82,106.4z"/>
					<path class="st2" d="M82.6,62.5c-0.1,0.1-0.1,0.1-0.2,0.2c0-0.1-1-1.4-1.8-2.9C81.2,60.7,82,61.6,82.6,62.5z"/>
					<path class="st3" d="M73.1,127.6c0.3-0.1,0.6-0.2,0.8-0.3C73.7,127.4,73.4,127.5,73.1,127.6z"/>
					<path class="st2" d="M69.2,78.7c1.2-1.7,2.6-3,4.2-3.8c-1,0.8-1.9,1.7-2.7,2.9c-2.2,3.3-2.9,7.1-2.8,11
						c0.1,2.2,0.3,4.5,0.7,6.7c-0.2,0-0.3,0-0.3-0.1c-0.1-0.1-0.3-0.2-0.4-0.3c-0.4-0.3-0.8-0.6-1.2-0.9c-0.2-1.5-0.3-3-0.3-4.5
						c-0.1-1.9,0.1-3.7,0.5-5.5C67.3,82.3,68,80.5,69.2,78.7z"/>
					<path class="st2" d="M72.4,67.6c-0.3-0.3-0.6-0.7-0.8-1c0-0.1-0.1-0.1-0.1-0.2C71.8,66.9,72.1,67.3,72.4,67.6z"/>
					<path class="st2" d="M71.6,66.6c1,2,2.4,3.9,4.6,5c-5.6-2.8-8.4-8.3-6.6-12.5c0,0,0,0,0,0c0,0,0,0,0,0c0,0.2,0.1,0.9,0.2,1.9
						c0,0,0,0,0,0C69.8,63.2,70.4,64.9,71.6,66.6z"/>
					<path class="st2" d="M71.6,66.5c0,0.1,0,0.1,0.1,0.2c-1.3-1.7-1.8-3.5-1.7-5.5c0,0.2,0.1,0.4,0.1,0.6c0,0,0,0,0,0
						C70.1,63.4,70.6,65,71.6,66.5C71.6,66.5,71.6,66.5,71.6,66.5z"/>
					<path class="st3" d="M69.1,127.9c1.1,0.2,2.1,0.2,3.2-0.1C71.3,128.1,70.2,128.2,69.1,127.9z"/>
					<path class="st2" d="M70.3,57.9c0,0.1,0.1,0.1,0.1,0.2c0,0.2-0.1,0.4-0.1,0.6c0,0.2-0.1,0.5-0.1,0.7c0-0.2-0.4-0.1-0.5-0.2
						c0,0,0,0,0,0c0,0,0,0,0,0C69.8,58.7,70.1,58.3,70.3,57.9z"/>
					<path class="st0" d="M70.1,59.5C70.1,59.5,70.1,59.5,70.1,59.5c-0.1,0.6-0.2,1.1-0.2,1.7c-0.2-1-0.2-1.7-0.2-1.9
						C69.7,59.3,70.1,59.3,70.1,59.5z"/>
					<path class="st1" d="M70,61.7c0.3,1.4,0.7,3.1,1.5,4.8C70.6,65,70.1,63.4,70,61.7z"/>
					<path class="st2" d="M70.1,59.5C70,60.2,70,61,70,61.7c0-0.2-0.1-0.4-0.1-0.6c0,0,0,0,0,0C69.9,60.6,70,60.1,70.1,59.5z"/>
					<path class="st2" d="M69.7,59.2C69.7,59.2,69.7,59.2,69.7,59.2C69.6,59.2,69.6,59.2,69.7,59.2z"/>
					<path class="st3" d="M68.6,127.8c0.2,0,0.3,0.1,0.5,0.1C69,127.9,68.8,127.9,68.6,127.8z"/>
					<path class="st3" d="M67.9,127.6c0.2,0.1,0.3,0.1,0.5,0.2C68.2,127.7,68.1,127.6,67.9,127.6z"/>
					<path class="st2" d="M67.1,137.3c0.3,0.6,0.7,1.1,1.1,1.7c-0.9-0.3-1.9-0.7-2.8-1c-2.7-4.3-5.9-8.5-8-13.1
						c-0.7-1.5-1.2-3.1-1.3-4.8c-0.1-1.2,0.3-2.2,1.3-2.9c0.4-0.3,0.8-0.5,1.1-0.6c-0.8,0.7-1,1.6-0.9,2.6c0.1,1.7,0.6,3.3,1.3,4.8
						C61.1,128.7,64.3,132.9,67.1,137.3z"/>
					<path class="st3" d="M67.4,118.6c0.3,0,0.2,0.2,0.2,0.3c0,0,0,0.1-0.1,0.1c0,0,0,0-0.1-0.1s0,0,0-0.1
						C67.3,118.9,67.3,118.8,67.4,118.6C67.4,118.7,67.4,118.7,67.4,118.6z"/>
					<path class="st3" d="M67.4,118.9C67.4,118.9,67.4,119,67.4,118.9C67.4,119,67.4,118.9,67.4,118.9z"/>
					<path class="st3" d="M67.4,118.6C67.4,118.6,67.4,118.6,67.4,118.6C67.4,118.6,67.4,118.6,67.4,118.6L67.4,118.6z"/>
					<path class="st3" d="M67.4,118.6C67.4,118.7,67.4,118.7,67.4,118.6C67.4,118.7,67.4,118.7,67.4,118.6
						C67.4,118.6,67.4,118.6,67.4,118.6z"/>
					<path class="st3" d="M67.4,118.7c0,0.1,0,0.1,0,0.2C67.3,118.9,67.3,118.8,67.4,118.7z"/>
					<path class="st3" d="M66.7,127c0.4,0.2,0.8,0.4,1.2,0.6C67.5,127.4,67.1,127.2,66.7,127L66.7,127L66.7,127L66.7,127z"/>
					<path class="st2" d="M67.3,118.6c-0.5-0.2-0.6-0.6-0.8-1c-0.7-1-1.5-1.7-2.5-2.1c-0.6-0.6-1.3-1-2.1-1.3
						c-1.4-0.5-2.9-0.7-4.3-0.8c-4.1-0.2-6.9-2.3-8.8-5.7c-1.7-3.1-2.5-6.4-1.2-9.8c0.8-2.2,2.3-3.8,4.3-4.8
						c-1.2,0.9-2.1,2.2-2.7,3.8c-1.3,3.5-0.5,6.8,1.2,9.8c1.8,3.4,4.7,5.5,8.8,5.7c1.5,0.1,2.9,0.3,4.3,0.8
						C65.7,114,67.3,116.2,67.3,118.6z"/>
					<path class="st3" d="M66.7,127L66.7,127c0,0.1-0.1,0.1-0.1,0.1c-0.1-0.1-0.2-0.1-0.3-0.2l0,0c0,0,0.1-0.1,0.2-0.1c0,0,0,0,0,0
						C66.5,126.9,66.6,126.9,66.7,127C66.7,127,66.7,127,66.7,127z"/>
					<path class="st3" d="M66.4,126.9c0.1,0,0.2,0,0.2,0C66.6,126.9,66.5,126.9,66.4,126.9z"/>
					<path class="st3" d="M66.4,126.9c-0.1,0-0.1,0-0.2,0.1C66.3,126.9,66.4,126.9,66.4,126.9z"/>
					<path class="st3" d="M66.3,126.9C66.3,126.9,66.3,126.9,66.3,126.9L66.3,126.9L66.3,126.9C66.2,127,66.2,127,66.3,126.9
						c-0.1,0.1-0.1,0-0.2,0C66.2,126.9,66.3,126.9,66.3,126.9z"/>
					<polygon class="st3" points="66.2,127 66.2,127 66.2,127 					"/>
					<polygon class="st2" points="66.2,127 66.2,127 66.2,127 					"/>
				</g>
				<g>
					<path class="st4" d="M51.9,93.1c1.6-1.2,3.6-1.9,6-1.9c3.3,0,6.2,1.1,8.8,2.9c0.4,0.3,0.8,0.6,1.2,0.9c0.1,0.1,0.3,0.2,0.4,0.3
						c0,0,0.1,0,0.3,0.1c-0.4-2.3-0.6-4.5-0.7-6.7c-0.1-3.9,0.6-7.7,2.8-11c0.8-1.2,1.7-2.1,2.7-2.9c1.9-1.4,4.3-2.2,6.9-2.3
						c1.6-0.1,3.2-0.1,4.7,0.2c1.1,0.2,2.1,0.6,3.1,1.2c2.7,1.7,3.8,4.3,4.3,7.3c0.5,3.1,0,6.2-0.1,9.3c0,0.5,0,1,0,1.5
						c0.1,3.1,0.6,6.1,2.5,8.8c2.1,3.1,5.4,4.3,9,4.7c3.3,0.4,3.3,0.3,4.1,3.6c0.5,1.8,1.2,3.3,2.1,4.6c1.8,2.6,4.6,4.2,8.2,4.9
						c-1.6-1-3.3-1.9-4.7-3.3c-2.4-2.4-3.5-5.3-3.5-8.7c0-0.8,0.2-1.4,0.7-1.9c0.2-0.2,0.5-0.4,0.8-0.6c0.2-0.1,0.5-0.2,0.7-0.4
						c4.2-2.3,7-5.9,8.7-10.4c0.9-2.3,1.5-4.6,1.7-7c0-0.3,0.1-0.6,0.2-0.8c0.3-0.6,1-0.9,1.7-1c1-0.2,1.9-0.3,2.9-0.4
						c0.6-0.1,1.2-0.2,1.9-0.3c1.9-0.3,3.7-0.9,5.4-1.8c1-0.6,2-1.2,2.9-2c0,0,0,0,0,0c1.3-1.2,2.7-1.3,4.3-0.9
						c0.2,0,0.3,0.1,0.5,0.1c3.8,1.1,7.9,0.5,11.4-1.3c2.7-1.5,5-3.8,6.3-6.6c0.1-0.2,0.3-0.4,0.1-0.8c-0.5,0.7-1.1,1.4-1.8,2
						c-1,1-2.1,1.9-3.3,2.7c-0.4,0.3-0.8,0.5-1.2,0.7c-2.8,1.5-5.8,2.1-9.1,1.6"/>
					<path class="st4" d="M175.2,141.4c1.6,0.1,3.1,0.2,4.7,0.3c4.7-7.2,9.6-14.3,14-21.7c1.3-2.1,2-4.4,1.8-6.9
						c0-0.6,0.1-1,0.5-1.5c1.2-1.5,2.4-3.1,3.2-4.9c2-4.1,2.5-8.5,1.8-12.9c-0.5-3.1-0.6-5.9,0.5-8.8c0,0,0-0.1,0-0.1
						c1.2-5.4,0.7-10.4-2.9-14.9c-0.4-0.5-0.2-0.9-0.1-1.4c1.2-6.8-0.1-12.8-5.4-17.6c-1.4-1.3-2.1-2.5-2.5-4.4
						c-1.6-7.3-6.3-11.9-13.3-14.5c-0.6-0.2-1.1-0.4-1.4-1.1c-1.8-5.4-6-7.8-11.4-8.4c-0.9-0.1-1.5-0.3-1.9-1.1
						c-0.5-0.8-1.1-1.5-1.9-2c-4.6-3.6-9.8-5.2-15.7-4.8c-1.3,0.1-2.3-0.2-3.4-0.9c-4.5-2.9-9.3-3.5-14.3-1.5
						c-0.6,0.2-1.1,0.2-1.7,0c-2.2-0.9-4.5-1.3-6.9-1.5c-9.8-0.6-18.5,2.4-26.4,8c-0.4,0.3-0.8,0.4-1.3,0.3
						c-4.3-0.5-8.3,0.2-12.2,2.1c-6.5,3.1-11.6,7.7-15.6,13.6c-0.3,0.4-0.6,0.8-1.1,1c-1.8,0.9-3.6,2-5.2,3.3
						c-4,3.3-6.5,7.3-6.1,12.6c0.1,0.8-0.3,1.2-0.8,1.7c-4.6,4.1-7.5,9-7,15.4c0.1,0.9-0.1,1.6-0.4,2.4c-2.9,7.3-2.4,14.3,1.8,21
						c0.4,0.7,0.6,1.2,0.3,2c-2.3,6.5-1,17.1,7.2,21.6c0.5,0.3,0.7,0.6,0.6,1.2c-0.4,2.3,0.2,4.4,1,6.6c1.5,4,4.2,7.4,6.6,10.9
						c0.5,0.8,1,1.6,1.6,2.3c0.6,0.2,1.3,0.4,1.9,0.6c0.5,0.2,1,0.3,1.5,0.5c0.9,0.3,1.9,0.7,2.8,1c-0.4-0.6-0.7-1.1-1.1-1.7
						c-2.8-4.4-6-8.6-8.2-13.4c-0.7-1.5-1.2-3.1-1.3-4.8c-0.1-1,0.2-1.9,0.9-2.6c0.1-0.1,0.2-0.2,0.4-0.3c1.7-1.2,3.5-1.4,5.1-0.7
						c1,0.4,1.8,1.1,2.5,2.1c0.2,0.4,0.4,0.8,0.8,1c-0.1-2.4-1.7-4.6-3.9-5.4c-1.4-0.5-2.9-0.7-4.3-0.8c-4.1-0.2-6.9-2.3-8.8-5.7
						c-1.7-3.1-2.5-6.4-1.2-9.8c0.6-1.6,1.5-2.9,2.7-3.8"/>
					<path class="st4" d="M169.5,99.3c-6.8,3.8-13.8,4.4-21.1,1.9c-0.4-0.1-0.7-0.3-1.2-0.1c2.2,1.2,4.4,2,6.7,2.5
						c1.8,0.4,3.7,0.6,5.7,0.5c4-0.2,7.7-1.4,11-3.3c0.5-0.3,1.1-0.6,1.6-1c0,0,0.1,0,0.1-0.1c1.2-0.8,2.3-1.7,3.8-0.9
						c1.5,0.8,1.9,2.3,1.8,3.8c-0.3,7.2-3.5,13.2-9.5,16.6c-1.8,1-3.9,1.8-6.3,2.2c-4.2,0.8-8.3,0.5-12.5-1c0.9,1,1.9,1.2,2.8,1.5
						c1.1,0.4,2.2,0.6,3.3,0.9c0,0,0,0,0,0c1.4,0.4,1.5,0.7,1.1,2c-0.6,2.4-2,4.2-4,5.6c-0.8,0.6-1.7,1.2-2.6,1.7
						c-4.8,2.7-10,3.8-15.7,2.5c-8.1-1.8-10.8-11.2-5.1-17.1c0.4-0.4,0.8-0.7,1.1-1.3c-0.7,0.3-1.3,0.7-1.9,1.1
						c-0.7,0.6-1.3,1.2-1.8,2c-1.5,2-2.1,4.3-2.6,6.7c-0.3,1.6-1.2,2.6-2.6,3.1c-0.2,0.1-0.4,0.1-0.6,0.2c-6.1,1.5-12.1,1.9-17.9-1
						c-5.1-2.5-8.4-6.3-8.4-12.3c0-0.1,0-0.2,0-0.2c0-0.1-0.1-0.1-0.2-0.3c-0.8,3.3-0.1,6.2,1.8,8.9c0.4,0.6,0.9,1.2,1.4,1.8
						c0.3,0.4,0.5,0.8,0.6,1.2c0.3,0.8,0.1,1.6-0.7,2.6c-1.1,1.4-2.4,2.5-3.8,3.3c-1.4,0.7-2.9,1.1-4.5,1.3c-0.4,0-0.7,0.1-1.1,0.2
						c0.7,0.1,1.5,0.2,2.2,0.2c2.2,0,4.3-0.6,6.2-1.7c0.3-0.2,0.7-0.4,1-0.6c0.3-0.2,0.5-0.3,0.8-0.5c0.6-0.4,1.2-0.8,1.9-1.1
						c1.3-0.5,2.6-0.6,3.9-0.3c0.1,0,0.1,0,0.2,0.1c1.2,0.4,2.5,0.8,3.7,1.3c1.1,0.4,1.6,1.3,1.8,2.4c0.2,1.4,0.4,2.9,0.8,4.3
						c0.5,1.9,1.7,3.5,3.3,4.5c0.5,0,1,0,1.5-0.1"/>
					<path class="st4" d="M179.4,80.2c0.1,0.9,0.1,1.8,0,2.7c-0.5,7.1-3.4,12.7-9.8,16.3"/>
					<path class="st4" d="M153.7,112.2c-3.8,2.1-7.8,2.9-12.3,1.4c-4.4-1.5-7.1-5.3-7.4-9.9c-0.4-6.2,2.6-11.5,7-14.5
						c1.9-1.3,4.1-2.2,6.4-2.6c1.1-0.2,2.1-0.3,3.2-0.3c1.8,0,3.7,0.4,5.3,1.6c0.8,0.6,1.5,1.2,1.6,2.1c0,0.3,0,0.6-0.1,0.9
						c-0.2,1.1-0.2,2.3,0.3,3.4c0.1-2.8,0.9-5.4,2.8-7.5c1-1.2,2.3-2.1,3.6-3c0.5-0.3,1-0.7,1.5-1c2.9-2,5.5-4.3,6.8-7.7
						c2.3-5.8,0.4-15.3-8.2-18c-0.3-0.1-0.6-0.2-0.8-0.3c-2.4-0.5-3.8-2-4.3-4.3c-0.3-1.3-0.8-2.6-1.4-3.9c-1.9-3.6-5.4-4.5-9-4
						c-1.7,0.3-3.4,0.8-5.1,1.5c-0.1,0.1-0.3,0.1-0.4,0.2c-1,0.4-2.1,0.6-3.1,0.6c-2.1,0-3.6-1.1-4.2-3.1c-0.9-3,0.3-5.5,2.2-7.7
						c0.6-0.7,1.1-1.3,1.7-1.9c1-1.1,2-2.1,2.9-3.2c1.8-2,2.7-4.4,2.1-7.1c-0.2-0.8,0-1.4,0.5-1.9c0.2-0.2,0.4-0.4,0.7-0.5
						c2.1-1.2,4.4-1.2,6.8-0.7c5.1,1,8.3,4.8,8.5,9.6c0,0.3,0,0.7,0,1.1c0,0.5-0.1,0.9-0.2,1.4c-0.4,2.3-0.6,4.7-0.4,7.1
						c0.5,6.2,5.1,8.5,10.2,7.9c1.1-0.1,2.2-0.4,3.1-0.9c1-0.5,1.8-1.1,2.5-1.8c-1.3,0.4-2.4,0.9-3.6,1.2c-3.2,0.8-6.1,0.4-8.5-2.1
						c-1.3-1.4-1.7-3.2-1.9-5c-0.2-2.1,0.1-4.1,0.3-6.2c0.1-0.9,0-1.8,0-2.7c0-0.5,0-0.9,0.2-1.2c0.2-0.6,0.7-0.8,1.7-1
						c3-0.5,5.8,0.9,7.2,3.5c0.9,1.6,1.4,3.2,1.5,5c0,0.8,0.3,1,0.9,1c0.1,0,0.2,0,0.3,0c9.5-0.3,13.9,10.5,11.1,16.8
						c-0.6,1.4-1.7,2.6-3,3.4c-2.2,1.4-5.2,1.9-7.7,0.9c0,0,0,0,0.2,0c0.9-0.1,4.4-0.2,7.6-0.9c1.2-0.3,2.3-0.6,3.2-1
						c0.7-0.3,1.3-0.8,1.7-1.2c0.1-0.1,0.2-0.2,0.2-0.4c0.5-1.1,1.3-0.7,2-0.2c2.9,1.9,4.5,4.6,5,7.9c0.3,1.9,0.5,3.8,0.1,5.7
						c-0.2,0.7-0.2,2.1-0.9,3c-0.1,0.1-0.2,0.3-0.4,0.4c-0.4,0.2-0.7,0.4-1,0.6c-2.5,1-4.8-0.3-6.7-2c-0.4-0.3-0.8-0.7-1.1-1.1
						c-0.2-0.2-0.4-0.4-0.6-0.7c0.3,0.2,0.6-0.1,0.8,0c0.4,0.2,0.7,0.4,1,0.6c2.1,1.1,3.8,1.5,5.2,1.8c0.7,0.1,1.4,0.2,2,0.3
						c0.3,0,0.6,0.1,0.9,0.1c0,0,0.1,0,0.1,0c4.4,1,3.7,7.4,2.5,11.7c-0.4,1.4-1.2,2.2-2.1,2.2c-0.7,0-1.4-0.3-2.3-0.9
						c-2.2-1.7-4.9-2.2-7.5-2.7c-2.2-0.4-3.5-1.6-4.1-3.7c-0.5-1.6-1.2-3.1-2.4-4.3c0.7,2.2,1.3,4.3,1.5,6.6"/>
					<path class="st4" d="M151.8,114.7c1.8-0.9,3.3-2.3,4.6-3.9c-0.5-0.3-0.7,0.1-0.9,0.2c-0.3,0.2-0.6,0.4-0.9,0.6
						c-0.3,0.2-0.6,0.4-0.9,0.6"/>
					<path class="st4" d="M137.2,113.3c1.2,0.8,2.4,1.5,3.9,2c1.3,0.5,1.6,1.5,1.5,2.7c-0.2,3.1-1.7,5.5-4.3,7.3
						c-0.3,0.2-0.6,0.4-0.9,0.6c0,0,0,0.1,0,0.1c0.5,0.2,0.8,0,1.2-0.2c0.1-0.1,0.2-0.1,0.3-0.2c2.4-1.3,4.2-3.1,5.1-5.6
						c0.4-1.3,1-2.3,1.9-3c0.8-0.7,1.9-1.2,3.3-1.4c0.9-0.2,1.8-0.5,2.6-0.9"/>
					<path class="st4" d="M140.2,88.1c-2.3,1.6-4.2,3.6-5.8,6.1c-0.1,0.2-0.2,0.3-0.3,0.5c-1,1.6-1.9,3.4-2.2,5.3
						c-0.5,2.9-2,4.6-4.1,5.6c-1,0.5-2.1,0.8-3.4,1.1c-2.1,0.4-4.1,0.6-6.3,0.7c0.8,0.3,1.6,0.5,2.4,0.7c0.9,0.1,1.9,0.1,2.9,0.1
						c1.9-0.1,3.8-0.6,5.7-1c1.8-0.4,2.6-0.1,3.6,1.4c0.8,1.3,1.8,2.4,2.8,3.4c0.5,0.5,1,0.9,1.6,1.4"/>
					<path class="st4" d="M166.8,60.2c0.3,0.2,0.7,0.5,1,0.8c1.9,1.7,3,3.7,3.4,5.9c0.4,2.1,0.2,4.3-0.4,6.5
						c-1.2,4.2-4.4,6.5-7.7,8.9c-1.2,0.9-2.4,1.8-3.4,3c-0.3,0.4-0.6,0.5-1.1,0.4c0,0-0.1,0-0.1,0c-3.2-0.8-6.5-1.1-9.8-0.7
						c-3.3,0.4-6.1,1.5-8.5,3.2"/>
					<path class="st4" d="M117,26.4c0.1-0.1,0.1-0.2,0.1-0.3c0,0,0,0,0,0c-1.3,1.5-2.2,1.9-3.4,2.2c-0.7,0.1-1.4,0.3-2.4,0.5
						c-2.4,0.6-4.8,1-7.2,1.1c-1.4,0-2.5-0.4-3.4-1.6c-0.7-0.9-1.4-1.9-2.3-2.6c-1.1-0.9-0.8-1.6-0.1-2.5c1-1.3,2.2-2.4,3.5-3.3
						c0.7-0.5,1.4-0.9,2.2-1.3c6-3,12.2-4,18.8-2.4c2.8,0.7,4.6,1.9,5.6,4c0.4,0.9,0.6,1.9,0.7,3c0.5,5.4-1.4,9.7-6.1,12.8
						c-0.4,0.3-0.9,0.5-1.3,0.8c-2.8,1.6-5.8,2.6-8.9,3.4c-0.4,0.1-0.8,0.2-1.1,0.4c0.7,0,1.3,0,2-0.1c1.6-0.2,3.2-0.6,4.8-1.1
						c1.8-0.6,3.5-1.3,5-2.1c2.5-1.4,4.7-3.3,6.3-5.9c2.3-3.9,2.9-8,0.7-12.1c-0.2-0.5-0.3-0.8-0.2-1c0.1-0.3,0.4-0.5,0.8-0.7
						c4.5-2.2,10.8,1.4,11.3,6.3c0,0.2,0,0.4,0,0.6c0.1,2.5-0.8,4.7-2.4,6.7c-1.2,1.6-2.5,3.1-3.8,4.7c-0.1,0.1-0.2,0.2-0.3,0.4
						c-1.4,1.8-2.1,3.8-2,5.9c0,1.1,0.3,2.2,0.8,3.4c0.2,0.5,0.4,0.9,0.5,1.4c1.9,6-0.6,12.6-5.8,16.6c-0.1,0.1-0.1,0.1,0.2,0
						c0.9-0.5,4.5-2.8,6-5.5c1.1-1.9,1.6-3.9,2.1-6c0.1-0.5,0.3-1,0.6-1.4c0.3-0.4,0.7-0.7,1.2-0.8c2.9-1,5.8-2.2,8.9-2.9
						c2.5-0.6,4.4-0.3,5.8,0.6c1.7,1,2.6,2.9,2.9,5c0.1,1,0.2,2,0.1,3c-0.3,2.6-1.9,4.5-3.7,6.2c-0.7,0.7-1.4,1.3-2.2,1.9
						c0.3,0,0.5,0,0.8,0c0.5-0.1,0.9-0.5,1.4-0.8c0.8-0.6,1.6-1.2,2.3-1.9c0.3-0.3,0.6-0.6,1-0.8c3.6-2.7,7.1-1.9,9.9,0.2"/>
					<path class="st4" d="M105.3,91.1c2.3-2.5,2.4-5.4,2-8.5c-0.4-2.4-1.3-4.6-2.2-6.9c-1.3-3.2-2.2-6.4-1.7-9.9
						c0.3-2.3,1.6-4.3,3.4-5.7c1-0.8,2.2-1.3,3.5-1.6c1-0.2,2-0.4,3-0.7c1-0.2,2-0.5,3-0.7c0.9-0.2,1.7-0.5,2.5-0.9
						c2.6-1.3,4.3-3.5,5.4-6.4c0.7-1.8,1-3.7,0.9-5.6c-0.5,0.4-0.4,1-0.5,1.5c-0.4,1.9-1.1,3.6-1.9,5c-1.2,2.1-2.9,3.6-4.9,4.7
						c-2.5,1.3-5.6,1.8-9.1,1.3c-3.9-0.5-7.5-1.6-10.2-4.6c-3.5-3.8-4.6-8.5-3.3-13.3c0.5-1.8,1.6-3.2,3.1-4.3
						c1.1-0.8,2.3-1.4,3.6-1.9c2.6-1,5.4-1.4,8.1-2c2.9-0.7,6.6-3.2,7.3-4.2"/>
					<path class="st4" d="M101.7,67.3c-0.1,2.7,0.5,5.3,1.4,7.9c0.8,2.2,1.9,4.3,2.5,6.6c0.9,3.1,0.9,6.1-0.6,9.1"/>
					<path class="st4" d="M86.5,72.2c-0.1-0.1-0.2-0.2-0.3-0.4c1.2-0.4,2.3-0.7,3.4-1.2c0.1-0.1,0.3-0.1,0.4-0.2
						c3.6-2.1,5.9-5.2,7.7-8.7c0.5-1.1,1-2.2,1.5-3.3c0.2-0.4,0.4-0.8,0.8-1.1c0.1-0.1,0.2-0.2,0.3-0.2c0.4-0.3,0.8-0.6,1.2-0.7
						c0.4-0.1,0.9-0.1,1.4,0.2c0.2,0.1,0.4,0.3,0.5,0.5c0.4,0.5,0.4,1.3,0.3,2c-0.3,1.2-0.6,2.4-1.1,3.6c-0.6,1.6-0.9,3.1-1,4.7"/>
					<path class="st4" d="M120.9,80L120.9,80c0.1,1.3,0.2,2.6,0.2,3.9c0,0,0,0,0,0c0,3.2-0.5,6.2-1.7,9.2c-0.5,1.2-1.1,2.5-1.9,3.7
						c-1.4,2.1-3.3,3.7-5.4,4.9c-3.1,1.6-6.7,2.2-10.1,1.3c-4.8-1.2-6.9-4.7-7.8-9.1c-0.4-2-0.5-4.1-0.4-6.2
						c0.2-3.1,0.4-6.3-0.7-9.4c-1-3-3-4.9-6.1-5.8c-0.2-0.1-0.4,0-0.6-0.2"/>
					<path class="st4" d="M120.9,80c-2.3-1.5-4.3-3-4.3-3S120.4,75,120.9,80z"/>
					<path class="st4" d="M136.6,74c0.1,0.5,0.1,1,0.1,1.4c0,3-1.3,5-4.1,6.4c-0.3,0.1-0.6,0.3-0.9,0.4c-1.7,0.7-3.4,0.9-5.2,0.8
						c-0.9,0-3.3-1.5-5.6-3"/>
					<path class="st4" d="M69.7,59.2c-1.8,4.2,1,9.7,6.6,12.5"/>
					<path class="st4" d="M70,61.7c0-0.7,0-1.5,0.1-2.2"/>
					<path class="st4" d="M71.6,66.5c-1-1.5-1.5-3.1-1.5-4.8"/>
					<path class="st4" d="M72.4,67.6c-0.3-0.4-0.6-0.8-0.9-1.2"/>
					<path class="st4" d="M82.4,62.7c0.1-0.1,0.1-0.1,0.2-0.2c-0.6-0.9-1.4-1.8-1.9-2.7c-0.4-0.7-0.8-1.4-0.9-2.2"/>
					<path class="st4" d="M121.2,83.9C121.2,83.9,121.2,83.9,121.2,83.9c1.7,0.1,3.2,0,3.8,0.1c0.8,0,1.6,0,2.4-0.1
						c0.9-0.1,1.9-0.4,2.8-0.7c1-0.4,1.8-0.8,2.5-1.4c2-1.6,2.8-3.8,2.4-6.9c-0.1-0.7,0.5-0.3,1.6,0.5c1.3,0.9,3.3,2.3,5.5,3
						c0.4,0.1,0.8,0.2,1.1,0.3c3.8,0.6,7.2-0.2,10.3-2.3c0.1-0.1,0.2-0.1,0.3-0.2c1.8-1.2,3.4-2.7,4.7-4.5c0.2,0.4,0,0.6-0.1,0.8
						c0,0.1-0.1,0.2-0.1,0.3c-1.1,2.2-2.7,4-4.7,5.4c-3.7,2.6-8.5,3.6-12.9,2.3c-1.2-0.4-2.3-0.5-3.3-0.1c-0.5,0.2-1,0.5-1.5,0.9
						c-0.5,0.4-0.9,0.8-1.4,1.1c-2,1.4-4.4,2.3-6.9,2.8c-1.6,0.3-3.2,0.4-4.8,0.7c-0.1,0-0.1,0-0.2,0c-0.3,0.1-0.5,0.1-0.7,0.2
						c-0.6,0.3-1,0.7-1,1.5c-0.1,1.6-0.4,3.1-0.9,4.6c-0.2,0.8-0.5,1.6-0.8,2.4c-1.5,3.9-3.8,7.1-7.2,9.4c-0.5,0.3-1,0.7-1.6,1
						c-0.2,0.1-0.5,0.2-0.7,0.4c-1.1,0.5-1.6,1.3-1.5,2.5c0.1,2.2,0.5,4.3,1.6,6.1c0.5,0.9,1.2,1.8,1.9,2.6c1.4,1.4,3,2.3,4.7,3.3
						c-5.5-1.1-8.9-4.3-10.3-9.6c-0.9-3.3-0.9-3.2-4.1-3.6c-3.6-0.4-6.8-1.7-9-4.7c-2.1-3.1-2.6-6.7-2.5-10.4
						c0.1-3.1,0.6-6.2,0.1-9.3c-0.5-3-1.6-5.6-4.3-7.3c-2.4-1.5-5.1-1.6-7.8-1.4c-2,0.1-3.7,0.6-5.3,1.4c-1.7,0.8-3.1,2.1-4.2,3.8
						c-1.2,1.7-1.9,3.6-2.3,5.5c-0.4,1.8-0.5,3.6-0.5,5.5c0,1.5,0.1,3,0.3,4.5c0.1,0.8,0.2,1.5,0.4,2.3c-0.2,0-0.3,0-0.3-0.1
						c-0.1-0.1-0.3-0.2-0.4-0.3c-2.9-2.4-6.2-3.8-10-3.9c-1.7,0-3.2,0.3-4.5,0.9c0,0,0,0,0,0c-2,0.9-3.4,2.6-4.3,4.8
						c-1.3,3.5-0.5,6.8,1.2,9.8c1.8,3.4,4.7,5.5,8.8,5.7c1.5,0.1,2.9,0.3,4.3,0.8c0.8,0.3,1.5,0.7,2.1,1.3c1.1,1,1.7,2.5,1.8,4.1
						c-0.5-0.2-0.6-0.6-0.8-1c-1.6-2.3-4.1-3-6.5-2c-0.4,0.2-0.8,0.4-1.1,0.6c-1.1,0.7-1.4,1.7-1.3,2.9c0.1,1.7,0.6,3.3,1.3,4.8
						c2.2,4.7,5.3,8.8,8,13.1c0.1,0.1,0.1,0.2,0.2,0.3c0.3,0.6,0.7,1.1,1.1,1.7c3.4,1.2,6.8,2.5,10.3,3.3c5.1,1.2,10.2,1.5,15.4,1.4
						c6.8-0.1,13.6-0.4,20.4-0.7c-1.6-1.1-2.8-2.7-3.3-4.5c-0.4-1.4-0.5-2.8-0.8-4.3c-0.2-1.1-0.7-2-1.8-2.4
						c-1.2-0.5-2.5-0.9-3.7-1.3c-1.4-0.4-2.7-0.4-4.1,0.2c-0.1,0.1-0.3,0.1-0.4,0.2c-0.6,0.3-1.2,0.7-1.7,1.1
						c-0.2,0.1-0.4,0.2-0.6,0.4c-2.9,1.8-5.9,2.7-9.4,2.1c0.4-0.1,0.7-0.1,1.1-0.2c0.9-0.1,1.8-0.3,2.6-0.5c1.3-0.4,2.4-1,3.5-1.7
						c0.8-0.6,1.6-1.4,2.3-2.3c1-1.4,1-2.4,0-3.7c-0.4-0.6-0.9-1.2-1.4-1.8c-1.9-2.7-2.7-5.6-1.8-8.9c0.1,0.2,0.2,0.2,0.2,0.3
						c0,0.1,0,0.2,0,0.2c0,4.6,2,7.9,5.2,10.4c1,0.7,2,1.4,3.2,1.9c0.9,0.5,1.8,0.8,2.7,1.1c4.9,1.6,10.1,1.1,15.2-0.1
						c0.9-0.2,1.6-0.6,2.1-1.1c0.5-0.5,0.9-1.3,1.1-2.2c0.5-2.4,1.1-4.7,2.6-6.7c0.9-1.2,1.9-2.3,3.3-2.9c0.1,0,0.2-0.1,0.3-0.1
						c-0.3,0.7-0.8,1-1.1,1.3c-4,4.2-3.8,10.2-0.5,13.9"/>
					<path class="st4" d="M121.2,83.9c-2.8-4-8.4-6.7-7.2-1.8C114.3,83.4,118,83.8,121.2,83.9z"/>
					<path class="st4" d="M96.6,52.9c0,0,0.1,0.1,0.1,0.1c1.4,1.5,3,2.6,4.8,3.3c0.6,0.3,1.3,0.5,2,0.7c1.1,0.3,2.3,0.5,3.5,0.7
						c2.2,0.3,4.3,0.2,6.1-0.2c1.7-0.4,3.2-1.1,4.5-2c2.6-1.9,4.4-4.8,5.3-8.7c0.1-0.5,0-1.1,0.5-1.5c0.1,1.9-0.3,3.8-0.9,5.6
						c0,0,0,0.1,0,0.1c-0.8,2.3-2.1,4.1-3.8,5.4c-1.1,0.8-2.4,1.5-4,1.9c-2,0.5-4,0.9-6,1.4c-0.7,0.2-1.4,0.4-2,0.7
						c-2.6,1.3-4.5,3.7-4.9,6.6c0,0.2,0,0.3-0.1,0.5c0,0,0,0,0,0c-0.3,3.3,0.6,6.4,1.8,9.4c0.9,2.2,1.9,4.5,2.2,6.9
						c0.5,3.1,0.3,6.1-2,8.5c-0.1,0.1-0.3,0.2-0.4,0.4c0,0.1-0.1,0.2-0.2,0.1c0,0,0-0.2,0.1-0.3c0.1-0.1,0.2-0.3,0.4-0.4
						c1.5-2.9,1.5-6,0.6-9.1c-0.7-2.3-1.7-4.4-2.5-6.6c-1.5-4.2-2.1-8.3-0.5-12.6c0.4-1.2,0.8-2.4,1.1-3.6c0.2-0.9,0.2-1.9-0.8-2.4
						c-0.5-0.3-1-0.3-1.4-0.2c-0.4,0.1-0.9,0.4-1.3,0.7c-0.5,0.4-0.8,0.9-1.1,1.4c-0.5,1.1-1,2.2-1.5,3.3c-0.5,0.9-0.9,1.7-1.5,2.6
						c-1.3,2.1-3,4-5.1,5.4c-0.4,0.3-0.7,0.5-1.1,0.7c-0.6,0.4-1.3,0.6-2,0.9c0,0,0,0,0,0c-0.5,0.2-1,0.3-1.5,0.5
						c-0.1,0-0.2,0.1-0.3,0.1c0.2,0.5,0.6,0.5,0.9,0.5c3.1,0.9,5.1,2.8,6.1,5.8c1.1,3.1,0.8,6.2,0.7,9.4c-0.1,1.2-0.1,2.4,0,3.5
						c0.1,0.9,0.2,1.8,0.4,2.7c0.9,4.4,3,7.9,7.8,9.1c4,1,8.3,0.1,11.7-2.3c1.5-1,2.8-2.4,3.8-3.9c1.1-1.7,2.4-3.2,3.5-4.6
						c0.2-0.3,0.5-0.6,0.7-0.9c1.5-2.1,2.5-4,1.9-6.2c-0.2-0.7-0.5-1.4-1-2.1c0,0,0,0,0,0"/>
					<path class="st4" d="M97.6,27.3c0.6,0.6,1.1,1.3,1.6,1.9c0.9,1.1,2,1.6,3.4,1.6c2.5-0.1,4.9-0.5,7.2-1.1
						c1.4-0.4,2.7-0.8,3.9-1.5c1.3-0.7,2.4-1.6,3.5-2.7c0,0.2,0,0.4-0.1,0.6c0,0.1-0.1,0.2-0.1,0.3c0,0,0,0,0,0
						c-0.1,0.2-0.3,0.4-0.4,0.5c-2.1,2.7-5.2,3.9-8.4,4.6c-2.7,0.6-5.5,1.1-8.1,2c-0.7,0.3-1.4,0.6-2.1,0.9c-2.2,1.1-4,2.8-4.6,5.2
						c-0.1,0.6-0.3,1.1-0.3,1.6c-0.7,4.2,0.6,8.2,3.5,11.6"/>
					<path class="st4" d="M127.7,64.7c0.1-0.2,0.1-0.4,0.2-0.5c5.6-4.3,8-11.6,5.2-18c-1.5-3.5-0.8-6.7,1.5-9.6
						c0.3-0.3,0.5-0.7,0.8-1c1-1.2,2-2.4,3-3.7c1.7-2.1,2.6-4.5,2.3-7.3c-0.5-4.7-6.2-8.1-10.6-6.6c-0.2,0.1-0.5,0.2-0.7,0.3
						c-0.7,0.3-1.2,0.6-0.7,1.6c0,0,0,0.1,0.1,0.1c2.1,4.1,1.5,8.2-0.7,12.1c-1.2,2.1-2.8,3.7-4.7,5c-2,1.3-4.2,2.3-6.6,3.1
						c-2.2,0.7-4.4,1.3-6.8,1.2c0.4-0.2,0.7-0.3,1.1-0.4c0.8-0.2,1.6-0.4,2.4-0.6c2.8-0.8,5.4-1.9,7.8-3.5c0.1,0,0.2-0.1,0.2-0.2
						c4.5-3,6.3-7.3,5.9-12.6c-0.3-4-2.4-6.1-6.3-7.1c-6.6-1.6-12.8-0.6-18.8,2.4c-0.2,0.1-0.5,0.2-0.7,0.4c-2,1.1-3.7,2.5-5.1,4.2
						c-0.5,0.6-0.8,1.2-0.5,1.7"/>
					<path class="st4" d="M127.7,64.7c-1.2,0.9-2.1,1.4-2.1,1.5C127.5,69.1,127.4,66,127.7,64.7z"/>
					<path class="st4" d="M183.2,69.4c0.8,0.1,1.6,0.4,2.4,0.8c2.2,1.1,4.5,2.6,6.4,1.6c0.3-0.2,0.6-0.4,0.9-0.7l0,0
						c0.8-0.9,0-1,0.2-1.9c0.4-1.9,0.3-3.8-0.1-5.7c-0.5-3.3-2.1-6-5-7.9c-0.2-0.1-0.4-0.3-0.6-0.4c-0.5-0.2-1-0.2-1.3,0.6
						c-0.1,0.2-0.2,0.5-0.3,0.7c-1.5,2.9-4.2,4.3-7.5,4.6c-2.4,0.3-7.4-2.7-7.4-2.7s1.8,0.1,4.1-0.1c3.4-0.2,8-1,9-3.3
						c2.7-6-1.2-16.2-9.9-16.7c-0.4,0-0.8,0-1.2,0c-0.8,0-1.1-0.1-1.1-1c-0.1-1.8-0.6-3.4-1.5-5c-1.4-2.6-4.3-4-7.2-3.5
						c-0.1,0-0.1,0-0.2,0c-1.1,0.2-1.5,0.6-1.7,1.5c0,0.2,0,0.4,0,0.7c0,0.1,0,0.2,0,0.3c0,0.8,0,1.6,0,2.4
						c-0.2,2.1-0.5,4.1-0.3,6.2c0.2,1.8,0.6,3.6,1.9,5c2.4,2.5,5.3,2.9,8.5,2.1c1.2-0.3,2.3-0.7,3.6-1.2c-0.3,0.3-0.6,0.6-0.9,0.9
						c-1.2,0.9-2.8,1.6-4.6,1.8c-5.1,0.6-9.7-1.7-10.2-7.9c-0.2-2.4,0-4.7,0.4-7.1c1.1-5.9-2.3-10.9-8.3-12.1c-2-0.4-4-0.5-5.9,0.3
						c-0.3,0.1-0.6,0.3-0.8,0.4c-0.8,0.5-1.3,1-1.3,1.9c0,0.2,0,0.4,0.1,0.6c0.5,2.7-0.3,5.1-2.1,7.1c-0.6,0.6-1.2,1.3-1.7,1.9
						c-1,1-2,2.1-2.9,3.2c-1.2,1.5-2.2,3.1-2.4,4.8c-0.1,0.9-0.1,1.9,0.2,2.9c0.2,0.8,0.6,1.4,1.1,1.9c0.8,0.8,1.8,1.2,3.1,1.2
						c1.2,0,2.4-0.3,3.6-0.7c0.4-0.2,0.8-0.3,1.2-0.5c1.3-0.5,2.5-0.8,3.9-1c2.7-0.4,5.2,0,7.1,1.6c0.7,0.6,1.3,1.4,1.9,2.4
						c0.5,0.9,0.8,1.8,1.1,2.7c0.1,0.4,0.2,0.8,0.3,1.2c0.6,2.3,1.9,3.8,4.3,4.3c0.3,0.1,0.6,0.2,0.8,0.3c1.6,0.5,2.9,1.2,4,2.1
						c0,0,0.1,0,0.1,0.1c2.2,1.8,3.6,4.2,4.4,6.7c0.9,3.2,0.7,6.5-0.3,9.2c-1.3,3.4-3.9,5.7-6.8,7.7c-1.8,1.2-3.7,2.4-5.1,4.1
						c-0.6,0.7-1.1,1.5-1.5,2.2c-0.8,1.6-1.2,3.4-1.3,5.3c-0.5-1.1-0.6-2.3-0.3-3.4c0.3-1.5-0.5-2.3-1.5-3.1
						c-2.6-1.8-5.6-1.8-8.5-1.2c-1.7,0.3-3.3,0.9-4.8,1.7c-2.3,1.2-4.3,3.1-5.8,5.3c-1.9,2.8-3,6.3-2.7,10.2
						c0.2,2.8,1.3,5.3,3.1,7.2c0.5,0.5,1,1,1.6,1.4c0,0,0,0,0.1,0.1c0.8,0.5,1.7,1,2.6,1.3c5.1,1.7,9.6,0.4,13.8-2.4l0,0
						c0.1-0.1,0.2-0.1,0.3-0.2c0.2-0.1,0.3-0.4,0.6-0.4c0.1,0,0.2,0,0.3,0.1c-0.9,1.1-1.9,2.1-3.1,2.9c0,0,0,0,0,0
						c-1.2,0.9-2.6,1.5-4.1,1.8c-0.6,0.1-1.2,0.3-1.7,0.5c-1.7,0.7-2.8,2-3.4,4c-0.7,2-1.9,3.5-3.5,4.7c-0.6,0.4-1.2,0.8-1.9,1.1
						c-0.4,0.2-0.7,0.4-1.2,0.2c0,0,0-0.1,0-0.1c0.3-0.2,0.6-0.4,0.9-0.6c2.6-1.8,4.1-4.2,4.3-7.3c0.1-1.2-0.2-2.2-1.5-2.7
						c-3.7-1.3-6.3-3.7-8.4-6.9c-1-1.5-1.8-1.8-3.6-1.4c-1.9,0.4-3.8,0.9-5.7,1c-1.8,0.1-3.6,0-5.3-0.7c1.3-0.1,2.7-0.1,4-0.3
						c0.8-0.1,1.5-0.2,2.3-0.4c1.9-0.4,3.6-1,4.9-2c1.3-1,2.2-2.5,2.6-4.6c0.3-1.9,1.2-3.6,2.2-5.3c2-3.2,4.6-5.8,7.7-7.5
						c0,0,0,0,0,0c2.1-1.1,4.4-1.9,7-2.3c1.1-0.2,2.3-0.2,3.4-0.2c2.2,0,4.3,0.3,6.4,0.9c0.5,0.1,0.8,0.1,1.2-0.4
						c0.1-0.2,0.3-0.4,0.5-0.6c0.8-0.9,1.8-1.7,2.9-2.4c3.3-2.3,6.5-4.7,7.7-8.9c1.2-4.4,0.9-9-2.9-12.4c-2.6-2.3-6-3.7-9.5-2
						c-0.8,0.4-1.7,1-2.5,1.8c-0.7,0.6-1.4,1.2-2.2,1.8c-0.1,0-0.1,0.1-0.2,0.1c-0.6,0.4-1.2,1-2.1,0.9c0.8-0.7,1.5-1.3,2.2-1.9
						c1.7-1.8,3.4-3.6,3.7-6.2c0.5-5.2-1.9-10.2-8.8-8.7c-2.9,0.7-5.7,1.8-8.5,2.8c-0.1,0-0.2,0.1-0.3,0.1c-1.1,0.4-1.6,1.1-1.8,2.2
						c-0.4,2.1-1,4.1-2.1,6c-0.9,1.5-2.7,3.2-4.4,4.6c-0.7,0.5-1.4,1-1.9,1.5"/>
					<path class="st4" d="M183.2,69.4C183.2,69.4,183.2,69.4,183.2,69.4c-0.4,0.1-0.6,0.2-0.9,0C182.6,69.3,182.9,69.3,183.2,69.4z"
						/>
					<path class="st4" d="M192.1,86c0.9,0.2,1.6-0.1,2.1-0.9c0.2-0.3,0.4-0.8,0.6-1.3c1.2-4.3,0.4-8.2-2.5-11.7c0,0,0,0,0,0
						c-0.1-0.1-0.2-0.3-0.3-0.4c-0.3-0.4-0.7-0.7-1.1-1c-1.5-1.2-3.2-1.8-5.2-1.8c-0.4,0-0.8,0-1.2,0.1c-0.4,0.1-0.8,0.1-1.3,0.3"/>
					<path class="st4" d="M131.5,135c0.5,0.2,1.1,0.4,1.7,0.5c6.3,1.4,12,0,17.2-3.5c0.3-0.2,0.7-0.5,1-0.7c1.9-1.4,3.4-3.3,4-5.6
						c0.4-1.4,0.2-1.7-1.2-2c-1.1-0.3-2.2-0.5-3.3-0.9c-0.9-0.3-1.9-0.5-2.8-1.5c2.6,0.9,5.1,1.4,7.7,1.5c1.6,0,3.3-0.1,4.9-0.4
						c3-0.6,5.6-1.7,7.8-3.2c5-3.5,7.7-9.1,8-15.6c0.1-1.5-0.3-3.1-1.8-3.8c-0.9-0.5-1.7-0.3-2.4,0c-0.5,0.2-1,0.6-1.4,0.9
						c0,0-0.1,0.1-0.2,0.1c-3.8,2.5-7.9,4.1-12.6,4.3c-4.4,0.2-8.5-0.9-12.4-3c0.5-0.2,0.9,0,1.2,0.1c2.4,0.8,4.7,1.3,7.1,1.5
						c4.8,0.3,9.5-0.8,14-3.3c0.5-0.3,1-0.6,1.5-0.9c0,0,0,0,0,0c5.4-3.6,7.8-8.9,8.3-15.4c0.2-3.2-0.6-6.3-1.5-9.3
						c1.2,1.2,2,2.7,2.4,4.3c0.2,0.5,0.3,1,0.6,1.4c0,0,0,0,0,0c0.7,1.2,1.9,2,3.5,2.3c2.4,0.5,4.8,0.9,6.8,2.2"/>
					<path class="st4" d="M67.4,119C67.4,119,67.4,118.9,67.4,119c-0.1-0.1-0.1-0.2-0.1-0.3c0,0,0,0,0-0.1"/>
					<path class="st4" d="M73.1,127.6c0.3-0.1,0.6-0.2,0.8-0.3"/>
					<path class="st4" d="M68.6,127.8c0.2,0,0.3,0.1,0.5,0.1c1.1,0.2,2.1,0.2,3.2-0.1"/>
					<path class="st4" d="M67.9,127.6c0.2,0.1,0.3,0.1,0.5,0.2"/>
					<path class="st4" d="M66.4,126.9c0.1,0,0.2,0,0.2,0"/>
					<path class="st4" d="M66.3,127c0,0,0.1-0.1,0.2-0.1"/>
					<path class="st4" d="M82.2,140.1c0,0.1,0.1,0.1,0.1,0.2c0,0.1,0.1,0.1,0.1,0.2"/>
					<path class="st4" d="M181.9,114.3c1.3-1.8,3.3-2.5,5.3-3.1c3.8-1.1,6.4-3.5,8-7.1c1.2-2.8,1.6-5.7,1.5-8.8
						c-0.2-4.3-1.8-7.4-4.5-9.4c-0.7-0.5-1.5-1-2.4-1.3c-1.8-0.7-3.8-1.1-6.2-1.2c-1.2,0-2.1,0.5-2.5,1.8c-0.9,2.9-1.8,5.9-2.5,8.9
						c-0.3,1.4-0.4,2.8,0,4.2c0.4,1.3,1.1,1.6,2.4,1.2c1.2-0.4,2.3-0.8,3.5-1c1.5-0.3,3-0.6,4.5-0.1c-1.1,0.4-2.2,0.7-3.3,1
						c-2.8,1-5.2,2.4-6,5.4c-1,3.7-2.6,7.1-4,10.6c-0.6,1.5-1.2,2.9-1,4.6c0.2,1.6,0.5,3.1,0.6,4.7c0.3,4.5-0.2,8.8-3.4,12.4
						c-1.6,1.8-3.6,3-6,3.6c1.2-0.9,2.4-1.7,3.4-2.7c3.5-3.6,4.7-8,3.7-12.9c-0.5-2.3-2.2-3.9-4.2-3.6c-3.4,0.4-6.7,1.2-9.1,3.9
						c-2.2,2.5-4.5,4.9-7.3,6.9c-5.5,4-14.5,5.9-20.9,2.7c-1-0.5-2-1.1-2.8-1.9c-0.3-0.3-0.7-0.5-1-0.8c-1.5-1-3.3-1.4-5.3-1
						c-2.6,0.5-5.3,1.2-8,1.3c-1.1,0.1-1.8,0.8-2.1,1.9c-0.9,3.3,0.3,6.4,3.3,8.2c0.1,0,0.1,0.1,0.2,0.1c4.1-0.2,8.1-0.4,12.2-0.6
						c12.6-0.6,25.3-1.3,37.9-1.1c3.1,0,6.2,0.1,9.4,0.2c3.3-5,6.8-9.8,9.8-15c1.8-3.2,4-6.2,5.5-9.6c0.6-1.3,0.7-2.6,0-3.8
						c-0.4-0.8-1.1-1.2-2-1c-2.3,0.4-4.6,1.1-6.5,2.6"/>
					<path class="st4" d="M69.9,61.1c0,0.2,0.1,0.4,0.1,0.6c0,0,0,0,0,0c0.3,1.4,0.7,3.1,1.5,4.8c0,0,0,0,0,0c0,0.1,0,0.1,0.1,0.2
						c1,2,2.4,3.9,4.6,5c0.1,0.1,0.2,0.1,0.3,0.1c-6.1,2.7-9.3,7-10.5,12.3c-0.6,2.5-0.7,5.2-0.5,8c-1.6-1.2-3.4-1.7-5.3-2.1
						c-2.3-0.5-4.5-0.4-6.8,0.3c-0.8,0.3-1.3,0.1-2-0.4c-5-3.6-6.6-8.5-5.5-14.4c0.2-1.1,0.4-2.2,1-3.4c2.3,6.4,6.6,9.5,13.8,8.6
						c-1.2-0.2-2.1-0.4-3-0.6c-5.5-1.1-8.2-4.8-9.2-9.9c-1.3-6.6,1.6-12,7.7-14.9c0.3-0.2,0.7-0.3,1.1-0.4c0.5-0.1,1.1-0.4,1.5,0.1
						c0.4,0.5,0,1-0.1,1.5c-1.4,4.1-2,8.2,0.4,12.2c0.5,0.8,1.1,1.4,1.7,2c0.2-0.3,0-0.6-0.1-0.8c-3-4.2-2.8-8.6-0.6-13
						c2.9-5.9,8-8.5,14.5-8.8c0.5,0,1.1,0,1.6,0.1c1.4,0.3,2,1,1.8,2.5c-0.4,3.7,0,7.1,2.6,10.1c0.5,0.6,1.2,1.1,1.7,1.6l0,0
						c0-0.1-1-1.4-1.8-2.9c-0.4-0.8-0.8-1.6-0.9-2.2c0-0.1,0-0.2,0-0.2c-1.2-7,0.8-12.3,7.2-15.2c1.4-0.7,2.8-1.3,4.4-1.3
						c0.8,0,1.3,0.2,1.7,0.6c0.4,0.4,0.6,0.9,0.6,1.6c0.2,2.3,0.6,4.6,1.7,6.7c0.6,1.1,1,2.2,1.2,3.2v0c0.6,2.7,0.2,5.4-0.9,8.1
						c-0.5,1.3-1.2,2.6-1.9,3.7c-2.2,3.4-5.4,5.7-9.9,6.4c-4.3,0.7-8.5,0-11.6-3.5c-0.3-0.3-0.6-0.7-0.8-1
						C70.4,64.9,69.8,63.2,69.9,61.1"/>
					<path class="st4" d="M69.7,59.2c0,0.2,0.1,0.9,0.2,1.9"/>
					<path class="st4" d="M70.1,59.5c0-0.2,0.1-0.5,0.1-0.7c0-0.2,0.1-0.4,0.1-0.6c0-0.1,0-0.1-0.1-0.2c-0.3,0.4-0.5,0.8-0.7,1.2
						c0,0,0,0,0,0"/>
					<path class="st4" d="M69.7,59.2C69.6,59.2,69.6,59.2,69.7,59.2"/>
					<path class="st4" d="M69.7,59.2C69.7,59.2,69.7,59.2,69.7,59.2"/>
					<path class="st4" d="M69.9,61.1c0-0.5,0.1-1.1,0.2-1.6c0,0,0,0,0,0c0-0.2-0.4-0.1-0.5-0.2"/>
					<line class="st4" x1="69.9" y1="61.1" x2="69.9" y2="61.1"/>
					<path class="st4" d="M97.6,27.3c1,1.5,1,3.3-0.2,5.1c-1.8,2.9-4.5,4.9-7.6,6.4c-2.8,1.4-5.7,2.6-8,4.9c-0.5,0.5-1,1.2-1.5,1.6
						c-0.9,0.7-2.1,0.7-3.3,0.7c-4.9,0.1-9.5,1.5-13.4,4.4c-1.2,0.9-2.3,1.8-3.9,1.8c-2.4,0-3.6-1.4-3-3.7c1-3.9,3.8-6.3,7.1-8.2
						c2.9-1.7,6.2-2.5,9.4-3.6c4.1-1.3,8.2-2.6,12-4.6c0.4-0.2,0.9-0.4,1.3-1.2c-2.3,0.8-4.4,1.5-6.4,2.2c-1.8,0.6-3.7,1.1-5.7,1.2
						c-0.6,0-1.3,0.2-1.6-0.4c-0.3-0.6,0-1.1,0.4-1.6c3.4-4.5,7.7-7.7,13.4-8.6c3.4-0.6,6.7-0.3,9.6,2c0,0,0,0,0,0
						C96.8,26.3,97.3,26.8,97.6,27.3z"/>
					<path class="st4" d="M66.7,127L66.7,127c0.4,0.2,0.8,0.4,1.2,0.6c0,0,0,0,0,0c0.2,0.1,0.3,0.1,0.5,0.2c0.1,0,0.2,0,0.2,0.1
						c0.2,0,0.3,0.1,0.5,0.1c1.1,0.2,2.1,0.2,3.2-0.1c0.3-0.1,0.5-0.1,0.8-0.2c0.3-0.1,0.6-0.2,0.8-0.3c1.1-0.5,2.2-1.3,3.2-2.3
						c4.1-3.9,5.6-8.8,4.4-14.3c-0.1-0.6-0.3-1.1-0.6-1.6c-1.3-2.5-2.5-3.1-5.2-2.1c-2.5,0.9-4.9,1.7-7.6,1.6
						c-3.3-0.2-5.9-1.6-7.6-4.4c-0.1-0.2-0.3-0.4-0.5-0.6c0.5-0.3,0.7,0.1,0.9,0.3c5.6,5.3,13.1,2.6,16.7-0.9
						c4.5-4.5,4.9-9.8,3.3-15.6c-0.1-0.3-0.2-0.7-0.4-1c0.5-0.2,0.5,0.2,0.6,0.4c2.8,4.9,3.1,9.9,0.5,15c-0.9,1.7-0.8,3.1,0.3,4.7
						c2.9,4.2,2.6,8.8,0.9,13.3c-0.6,1.5-1.2,3-2.2,4.3c-2.4,3.1-2.5,6.5-1.6,10.2c0.6,2.2,1.5,4.1,3,5.8c0,0,0,0,0,0
						c0,0,0.1,0.1,0.1,0.2c0,0.1,0.1,0.1,0.1,0.2c0,0.1,0,0.1,0,0.2c-0.5,0-0.8-0.4-1.1-0.7c-2.2-2.1-3.3-4.8-4.1-7.7
						c-0.8-3-1.5-3.6-4.7-3.5c-1.4,0-2.9,0.2-4.2-0.4c-0.7-0.3-1.4-0.5-1.8-1.3"/>
					<path class="st4" d="M67.4,118.6C67.4,118.6,67.4,118.6,67.4,118.6c0.3,0,0.2,0.2,0.2,0.3c0,0,0,0.1-0.1,0.1c0,0,0,0-0.1-0.1
						s0,0,0-0.1C67.3,118.9,67.3,118.8,67.4,118.6C67.4,118.7,67.4,118.7,67.4,118.6"/>
					<path class="st4" d="M67.3,118.6C67.4,118.6,67.4,118.6,67.3,118.6C67.4,118.6,67.4,118.6,67.3,118.6L67.3,118.6z"/>
					<path class="st4" d="M177.8,73.5c0,0-0.1-0.1-0.1-0.1C177.9,73.4,177.8,73.4,177.8,73.5z"/>
					<line class="st4" x1="177.8" y1="73.5" x2="177.8" y2="73.5"/>
					<path class="st4" d="M177.8,73.5C177.8,73.5,177.8,73.6,177.8,73.5L177.8,73.5C177.8,73.5,177.8,73.5,177.8,73.5z"/>
					<path class="st4" d="M104.7,91.3c0.1-0.1,0.2-0.3,0.4-0.4c0.1,0.1,0.1,0.1,0.2,0.2c-0.1,0.1-0.3,0.2-0.4,0.4"/>
					<path class="st4" d="M182,114.5c-0.1,0-0.2,0-0.3,0c0-0.1,0.1-0.2,0.1-0.2C181.9,114.4,182,114.5,182,114.5z"/>
					<polyline class="st4" points="66.2,127 66.2,127 66.2,127 					"/>
					<path class="st4" d="M66.2,127C66.2,127,66.2,127,66.2,127C66.2,127,66.2,127,66.2,127C66.2,127,66.2,127,66.2,127
						C66.2,127,66.2,126.9,66.2,127C66.2,126.9,66.3,126.9,66.2,127C66.3,126.9,66.3,126.9,66.2,127"/>
					<path class="st4" d="M66.7,127c0,0-0.1,0.1-0.1,0.1c-0.1-0.1-0.2-0.1-0.3-0.2"/>
					<path class="st4" d="M66.2,127L66.2,127c0.1,0,0.1-0.1,0.2-0.1c0,0,0,0,0,0c0.1,0,0.2,0,0.2,0c0,0,0,0,0.1,0v0h0
						c0.4,0.2,0.8,0.4,1.2,0.6"/>
					<line class="st4" x1="66.2" y1="127" x2="66.2" y2="127"/>
					<line class="st4" x1="66.2" y1="127" x2="66.2" y2="127"/>
					<path class="st4" d="M104.9,91.5c0,0.1-0.1,0.2-0.2,0.1c0,0,0-0.2,0.1-0.3C104.8,91.4,104.8,91.4,104.9,91.5z"/>
					<path class="st4" d="M160.5,70.3C160.5,70.4,160.6,70.4,160.5,70.3c0.1,0.1,0,0.1,0,0.2C160.5,70.5,160.4,70.4,160.5,70.3
						C160.4,70.4,160.5,70.4,160.5,70.3z"/>
				</g>
			</g>
			<g>
				<g>
					<path class="st0" d="M236,116.5c-4.9-17.9-18-21.5-25-16.7c-4,3.2-7.4,3-8.3,6.6c0-6.5,1-14.5-3.3-24.7
						c-8-22.6-38.8-23.9-59.6-15.9c-0.5-2.2,0.3-4.2,2.2-6.2c-3.8,1.2-18.7,4.8-19.5,10.3c0.1-2.1-4.6-5.1-16.3-10.2
						c1.7,2.6,4.3,5.6,3.1,7.8C84.7,53.3,55.4,64.4,46,86.4h-2.5c-3.3,8.7-3.3,13.1-3.3,19.8c-1.3-3-5.9-6.3-9.3-8.1
						C24.2,95.4,13.1,101,9.2,119C6,144.6,19,171,31,178.2c7.5,4.6,12.7,2,21.3-7.3c9.3,21.4,18,28.2,34,39.5
						c19.1,13.5,29.8,20.4,36.1,21.4c2.7,0.4,28.1-12.3,38.6-23.2c7.1-7.4,23.7-20.6,27.9-42.2c5.3,9.3,9.1,18.2,22,13.6
						C226,175,241.3,135.9,236,116.5z"/>
				</g>
				<g>
					<g>
						<path class="st5" d="M95.1,69.8c10.8,0.6,18.1,6.8,17.8,9.2c1.2-1.3,1.5-2.9,0.7-5c4,3,5.3,7.3,3.2,13.2
							c0,3-22.5-7.4-38.9-1.1c-16.3,6.3-17.2,9.4-17.2,9.4l3.7-0.7c-1.9,2-3.1,5.3-4.1,9.1c2.2-2.2,4-3.3,5.6-3.5
							c-5.5,9.9-6,19.7-2.1,29.5c-2.8-0.4-5.6-2.9-8.2-8c1.3,14.4,12.3,15.8,32.1,5.1C83.7,142.6,75.9,156,65,166.4
							c2.4-4.1,4-7.3,5.4-11.6c-1.5,0.3-3,1-4.6,1.6c2.1-7.7,4.9-14,8.1-16.8c0,0-34,2.9-25.4-43C54,66.9,85.6,69.3,95.1,69.8z"/>
					</g>
					<g>
						<path class="st5" d="M149,69.8c-10.8,0.6-18.1,6.8-17.8,9.2c-1.2-1.3-1.5-2.9-0.7-5c-4,3-5.3,7.3-3.2,13.2
							c0,3,22.5-7.4,38.9-1.1c16.3,6.3,17.2,9.4,17.2,9.4l-3.7-0.7c1.9,2,3.1,5.3,4.1,9.1c-2.2-2.2-4-3.3-5.6-3.5
							c5.5,9.9,6,19.7,2.1,29.5c2.8-0.4,5.6-2.9,8.2-8c-1.3,14.4-12.3,15.8-32.1,5.1c4.1,15.4,11.8,28.8,22.7,39.3
							c-2.4-4.1-4-7.3-5.4-11.6c1.5,0.3,3,1,4.6,1.6c-2.1-7.7-4.9-14-8.1-16.8c0,0,34,2.9,25.4-43C190.1,66.9,158.5,69.3,149,69.8z"
							/>
					</g>
					<g>
						<path class="st6" d="M156.1,143.8c-5.4,3.2-10.7,7.7-15.9,12.9c6-6.3,10.1-12.7,11.5-19.2c-3.8-9.7-11-15.7-22.2-17.3
							c-3.4,0.7-6,2-7.2,4.2c-3-2.2-6.3-3.6-9.9-4.2c-9.1,3.6-19,6.6-19,17.3c-0.7,5.4,5.1,11.9,11.3,18.5c-6-4.7-11.8-8.9-16.9-11
							C74.6,162.1,70,173.2,70,173.2s18.4,6.6,50.4,7S173,172,173,172S168.6,157.5,156.1,143.8z M113.9,142.7
							c-4.6,1.5-6.9-3.8-4.9-9c-5.6,1.9-5.9,7.4,1.1,16.6c-4.8-2.5-9.3-6.4-10.3-13.9c-0.5-6,4.8-9.7,11-8.7
							C119.4,128.3,121.9,138.3,113.9,142.7z M135.9,133.7c2,5.2-0.3,10.5-4.9,9c-8-4.4-5.4-14.4,3.1-15c6.2-1.1,11.5,2.7,11,8.7
							c-1,7.5-5.5,11.4-10.3,13.9C141.8,141.1,141.4,135.6,135.9,133.7z"/>
					</g>
					<g>
						<path class="st6" d="M68.5,177c10.9,4.9,23,15.2,52.2,15.7s38.8-6.6,53.4-17c8.7,19.9-3.3,48.5-13,54.3c0,0,3-10.6,2.2-13.4
							c-1.5,6.1-5,12-11.9,17.5c2.3-4.8,3.4-8.4,2.8-10.3c-2,7.7-10,11.5-15.8,11.3c-5.8-0.4-13.4-0.4-16-9.3c0-6.8,1.7-7.7,5.3-9.8
							c1.9-0.8,4-0.8,6.5,0.1c-1-1.5-2.4-3.2-4.4-4.2c3.8-0.6,7.8,0.7,11.7,2.4c-1.6-2.1-3.5-3.9-5.8-5.3l10.1,3.5
							c-3.3-8-11.7-11.9-23.8-12.3c-9.1-0.4-17.4,4.1-24.8,12.4c4.3-1.8,8.4-3.2,12.1-3.2c-2.2,1-3.9,2.8-4.9,4.6
							c3.3-1.4,6.8-2.5,10.4-2.5c-1.7,0.6-2.8,2-3.4,3.5c8.2,0.2,9.9,2.5,9.4,10.7c-0.5,9.9-10.5,11.5-13.8,11.5
							c-7,0.4-12.8-3.2-16.6-13.7c0.8,4.3,1.7,8.3,3,11.8c-6-4.6-9.6-11.4-12.2-19.2c-0.7,3.1-0.7,7,0.4,11.9
							C70,217.2,60.7,195.1,68.5,177z"/>
					</g>
					<g>
						<path class="st5" d="M46,137.9c1.8-15.3-10-30.6-15.8-30.6s-14.2,7.5-14.1,21.5c0.1,16.7,10.2,40.1,21,42.1
							c7.3,0,9.3-3.5,10-11.8c-0.6-6.3-2.9-13.4-11.5-12.5c-8.7,0.9-10.6-2-11.1-17.6c0-8.1,2.1-12.4,5.5-14.3
							C34.7,114.7,40.2,123.4,46,137.9z"/>
					</g>
					<g>
						<path class="st5" d="M198.4,137.9c-1.8-15.3,10-30.6,15.8-30.6s14.2,7.5,14.1,21.5c-0.1,16.7-10.2,40.1-21,42.1
							c-7.3,0-9.3-3.5-10-11.8c0.6-6.3,2.9-13.4,11.5-12.5c8.7,0.9,10.6-2,11.1-17.6c0-8.1-2.1-12.4-5.5-14.3
							C209.7,114.7,204.3,123.4,198.4,137.9z"/>
					</g>
					<g>
						<path class="st5" d="M86.8,103.1c6.1-7.4,21-3,15.4,11c-3.2,8.3-10.1,8.6-15.1,4.6C83.2,112.9,82.1,108.7,86.8,103.1z"/>
					</g>
					<g>
						<path class="st5" d="M157.3,104.1c-6.1-7.4-21-3-15.4,11c3.2,8.3,10.1,8.6,15.1,4.6C160.9,113.9,162,109.7,157.3,104.1z"/>
					</g>
				</g>
			</g>
		</g>
	</g>
	<g>
		<g>
			<path class="st7" d="M243.4,172.3l0.9-8.9c15.9-5.6,30.5-12,43.7-19.3l2,10.2c-10.7,5.3-21.9,10-33.8,14
				c12,6.2,23.4,10.9,34.2,14.1l-2.1,9.1C273.7,187.6,258.7,181.2,243.4,172.3z"/>
			<path class="st7" d="M307.1,199.5l-8.2-0.8c0.9-2.3,3-7.4,6.2-15.3c3.2-7.9,5.6-13.9,7.4-17.9c5.2-12.6,10.3-23.4,15.3-32.4
				l7.2,3.8c-3,4.7-6.2,10.5-9.3,17.5c-3.2,7-6.8,15.6-10.9,25.9C310.8,190.5,308.2,197,307.1,199.5z"/>
			<path class="st7" d="M368.7,136.6v10c-6.1,0-11.8,0.2-17.1,0.6c-0.1,1.6-0.2,4.4-0.3,8.4c-0.1,4-0.2,6.5-0.2,7.4
				c6.1-0.8,11-1.2,14.7-1.2l1.6,9c-6.1,0.2-11.6,0.5-16.4,1.1c0,8.5,0.1,16,0.3,22.4l-11-1.2c-0.1-8.8-0.2-17-0.2-24.6
				c0-7.6,0.4-17.5,1.3-29.8C350.8,137.3,359.9,136.6,368.7,136.6z"/>
			<path class="st7" d="M382.4,186.9c2.1,0,4.3-2,6.6-6l6.2,3.7c-1,1.8-2,3.3-3,4.6c-1,1.3-2.4,2.4-4.3,3.6c-1.9,1.1-4,1.7-6.4,1.7
				c-3.4,0-6.3-1.5-8.6-4.4c-2.3-2.9-3.5-6.8-3.5-11.8c0-5.7,1-10.9,3-15.8c1.1-2.6,2.7-4.6,4.7-6.2c2-1.6,4.1-2.4,6.3-2.4
				c2.1,0,3.9,0.3,5.2,1c1.3,0.7,2.4,1.4,3.1,2.3c0.8,0.8,1.5,2.1,2.1,3.7c0.6,1.6,1,3,1.3,4c0.2,1,0.4,2.5,0.6,4.5
				c0.2,2.6,0.3,5,0.3,7.1c-4.4,1.2-10,2.3-16.9,3.3c0.2,2.2,0.5,3.9,1.1,5.2S381.5,186.9,382.4,186.9z M384.2,161.8
				c-1.2,0-2.3,1.2-3.2,3.6c-1,2.4-1.5,5.2-1.7,8.3c2.9-0.6,5.4-1.2,7.5-1.7C386.8,165.2,385.9,161.8,384.2,161.8z"/>
			<path class="st7" d="M413.3,133.8c-0.8,13.8-1.2,26.2-1.2,37.2c0,11,0.1,18.8,0.4,23.3l-9.6-0.9c-0.2-5.7-0.3-13.7-0.3-24.1
				c0-10.4,0.4-22.5,1.2-36.2L413.3,133.8z"/>
			<path class="st7" d="M422.8,139.5l9.1,1.1l-0.8,9.1l-9.1-1.1L422.8,139.5z M422.2,153.8l9.3,0.9v39.2l-9.3-0.9V153.8z"/>
			<path class="st7" d="M449.8,159.7c2.2-3.3,4.9-5,8.1-5c3.2,0,5.7,1.3,7.5,3.9c1.8,2.6,2.7,6,2.7,10.3c0,6.3-1.3,12-4,17.2
				c-2.7,5.2-5.6,7.8-8.6,7.8c-2.2,0-4.1-0.3-5.6-0.8c0.1,7.5,0.3,14.1,0.6,19.7l-9.5-1c-0.3-9.8-0.4-20.2-0.4-31.2
				c0-11,0.4-20.5,1.1-28.5l8.5,0.9L449.8,159.7z M452.3,185.7c1.5,0,3-1.5,4.3-4.5c1.3-3,2-6,2-9s-0.3-5.4-0.8-7s-1.2-2.5-1.9-2.5
				c-1.2,0-2.2,0.7-3.1,2.1c-0.9,1.4-1.8,3.5-2.8,6.1c-0.1,2.8-0.1,7.2-0.1,13.1C450.6,185.2,451.5,185.7,452.3,185.7z"/>
			<path class="st7" d="M484.3,186.9c2.1,0,4.3-2,6.6-6l6.2,3.7c-1,1.8-2,3.3-3,4.6c-1,1.3-2.4,2.4-4.3,3.6c-1.9,1.1-4,1.7-6.4,1.7
				c-3.4,0-6.3-1.5-8.6-4.4c-2.3-2.9-3.5-6.8-3.5-11.8c0-5.7,1-10.9,3-15.8c1.1-2.6,2.7-4.6,4.7-6.2c2-1.6,4.1-2.4,6.3-2.4
				c2.1,0,3.9,0.3,5.2,1c1.3,0.7,2.4,1.4,3.1,2.3c0.8,0.8,1.5,2.1,2.1,3.7c0.6,1.6,1,3,1.3,4c0.2,1,0.4,2.5,0.6,4.5
				c0.2,2.6,0.3,5,0.3,7.1c-4.4,1.2-10,2.3-16.9,3.3c0.2,2.2,0.5,3.9,1.1,5.2S483.4,186.9,484.3,186.9z M486.1,161.8
				c-1.2,0-2.3,1.2-3.2,3.6c-1,2.4-1.5,5.2-1.7,8.3c2.9-0.6,5.4-1.2,7.5-1.7C488.7,165.2,487.8,161.8,486.1,161.8z"/>
			<path class="st7" d="M504.2,193.5c0.7-13.1,1.1-24.7,1.1-34.9c0-10.2,0-16.9-0.1-20.2c6-2.8,12.2-4.2,18.7-4.2
				c4.8,0,8.8,1.5,12,4.6c3.2,3,4.9,7.3,4.9,12.9c0,6.4-4.5,12.6-13.6,18.5c4.9,6.2,10,13,15.2,20.5l-7.8,5.8
				c-3.4-5.2-9.6-13.6-18.4-25.3c-0.2,8.4-0.4,16.2-0.7,23.6L504.2,193.5z M526.6,158.5c2.8-2.8,4.2-5.3,4.2-7.6s-0.7-4.1-2-5.3
				c-1.3-1.3-3.1-1.9-5.3-1.9c-2.2,0-4.6,0.5-7.2,1.4c0,9.2,0,16-0.1,20.5C520.3,163.7,523.8,161.3,526.6,158.5z"/>
			<path class="st7" d="M550.4,157.9c2.3-3,5.3-4.4,9-4.4c3.7,0,6.4,1.5,8.2,4.6c1.8,3.1,2.7,7.4,2.7,13.1c0,5.7-0.3,13.5-1,23.4
				l-6.9-0.6l-0.7-2.6c-2.6,1.5-5.2,2.2-7.8,2.2c-2.7,0-4.9-0.9-6.6-2.7c-1.7-1.8-2.6-4.3-2.6-7.6c0-3.3,1.6-6.2,4.9-8.6
				c3.3-2.4,7.1-3.6,11.4-3.8v-2.2c0-4.3-1-6.4-3.1-6.4c-1,0-2,0.7-2.8,2.2c-0.8,1.4-1.5,3.1-1.8,4.9l-7.5-0.7
				C546.6,164.4,548.1,160.8,550.4,157.9z M553,183.8c0,1.7,1,2.6,3.1,2.6c1.4,0,2.9-0.3,4.5-1l0.2-6.9c-2.6,0.2-4.5,0.9-5.8,1.9
				S553,182.6,553,183.8z"/>
			<path class="st7" d="M595.9,156.4c3.3,0,5.8,1.1,7.6,3.4c2.8-4.1,5.6-6.2,8.4-6.2c7.6,0,11.3,5.7,11.3,17.1
				c0,6.4-0.5,14.2-1.6,23.3l-9.5-0.8c1-10.2,1.6-17.9,1.6-23.3c0-5.3-0.9-8-2.6-8c-0.8,0-1.7,1.2-2.7,3.7c-1,2.4-1.7,5.2-2,8.2
				c-0.1,6.8-0.3,12.9-0.7,18.2l-9.5-0.9c0.4-7.7,0.7-14,0.7-18.9c0-4.9-0.7-7.4-2-7.4c-0.9,0-2,1.5-3.4,4.5s-2.4,6.2-3,9.5
				c0.1,5,0.3,10.2,0.7,15.5l-9.5-0.9c-0.6-7.7-0.9-14.7-0.9-21s0.2-12.2,0.5-17.7l6.8,0.5c0.3,1.5,0.8,4.1,1.4,8
				C590.3,158.6,593.1,156.4,595.9,156.4z"/>
			<path class="st7" d="M628.6,177.3c0-5.1,1-10,3.1-14.8c1.1-2.4,2.6-4.4,4.6-6c2-1.6,4.2-2.3,6.6-2.3c2.4,0,4.6,0.6,6.3,1.7
				c1.8,1.1,3.1,2.6,4,4.4c1.8,3.6,2.7,7.6,2.7,11.9c0,5.9-1.2,11.2-3.6,15.8c-2.4,4.6-5.8,6.9-10.2,6.9
				C633.1,194.9,628.6,189,628.6,177.3z M638.1,178.1c0,6.1,1.4,9.2,4.1,9.2c1.2,0,2.2-1.7,3-5.2c0.8-3.5,1.2-6.8,1.2-9.9
				c0-7-1.1-10.4-3.4-10.4c-1.5,0-2.7,1.9-3.5,5.6C638.6,171.1,638.1,174.6,638.1,178.1z"/>
			<path class="st7" d="M676,167c0-3.3-0.8-4.9-2.4-4.9c-0.8,0-1.6,0.4-2.2,1.2c-0.7,0.8-1,1.8-1,3.2c0,1.3,0.3,2.4,0.8,3.3
				c0.5,0.9,1.5,1.7,2.9,2.6c1.4,0.8,2.5,1.5,3.3,2c0.8,0.5,1.7,1.2,2.8,2.2c2.2,2,3.3,4.5,3.3,7.5c0,3.1-1.2,5.6-3.5,7.5
				c-2.3,1.9-4.9,2.9-7.8,2.9c-2.9,0-5.5-0.8-7.8-2.3c-2.3-1.5-4.2-3.5-5.6-5.8l4.4-5c2.2,3.8,4.5,5.6,6.9,5.6
				c0.8,0,1.5-0.2,2.1-0.7c0.6-0.5,0.9-1.1,0.9-1.9c0-1.7-1.3-3.3-3.8-4.8c-2.7-1.5-4.8-3.1-6.3-4.9c-1.5-1.8-2.3-4.3-2.3-7.6
				s1.4-6.3,4.1-8.9c2.7-2.6,5.6-4,8.8-4c3.1,0,5.6,1.1,7.4,3.2c1.8,2.1,2.7,5,2.7,8.7c0,1.5-0.2,3-0.5,4.7l-7.4-0.7
				C675.9,168.9,676,167.9,676,167z"/>
			<path class="st7" d="M742.5,163.5l-0.9,8.9c-15.9,5.6-30.5,12-43.7,19.3l-2-10.2c10.7-5.3,21.9-10,33.8-14
				c-12-6.2-23.4-10.9-34.2-14.1l2.1-9.1C712.2,148.2,727.2,154.6,742.5,163.5z"/>
		</g>
		<g>
			<path class="st7" d="M468.3,218.7l-0.6-3.5l-3.8,0.2l-1,4.8l-3.6-0.3l4.6-18.4l4.7,0.4L472,219L468.3,218.7z M466.1,204.7
				l-1.6,7.9l2.8-0.1L466.1,204.7z"/>
			<path class="st7" d="M476.8,208.6c0.7-1,1.5-1.6,2.5-1.6c1,0,1.8,0.4,2.3,1.2s0.8,1.9,0.8,3.2c0,2-0.4,3.8-1.3,5.4
				c-0.8,1.6-1.7,2.4-2.7,2.4c-0.7,0-1.3-0.1-1.8-0.3c0,2.3,0.1,4.4,0.2,6.1l-3-0.3c-0.1-3.1-0.1-6.3-0.1-9.7c0-3.4,0.1-6.4,0.4-8.9
				l2.6,0.3L476.8,208.6z M477.6,216.7c0.5,0,0.9-0.5,1.3-1.4s0.6-1.9,0.6-2.8s-0.1-1.7-0.3-2.2c-0.2-0.5-0.4-0.8-0.6-0.8
				c-0.4,0-0.7,0.2-1,0.7c-0.3,0.4-0.6,1.1-0.9,1.9c0,0.9,0,2.2,0,4.1C477.1,216.6,477.3,216.7,477.6,216.7z"/>
			<path class="st7" d="M487.3,208.6c0.7-1,1.5-1.6,2.5-1.6c1,0,1.8,0.4,2.3,1.2s0.8,1.9,0.8,3.2c0,2-0.4,3.8-1.3,5.4
				c-0.8,1.6-1.7,2.4-2.7,2.4c-0.7,0-1.3-0.1-1.8-0.3c0,2.3,0.1,4.4,0.2,6.1l-3-0.3c-0.1-3.1-0.1-6.3-0.1-9.7c0-3.4,0.1-6.4,0.4-8.9
				l2.6,0.3L487.3,208.6z M488,216.7c0.5,0,0.9-0.5,1.3-1.4s0.6-1.9,0.6-2.8s-0.1-1.7-0.3-2.2c-0.2-0.5-0.4-0.8-0.6-0.8
				c-0.4,0-0.7,0.2-1,0.7c-0.3,0.4-0.6,1.1-0.9,1.9c0,0.9,0,2.2,0,4.1C487.5,216.6,487.8,216.7,488,216.7z"/>
			<path class="st7" d="M498.3,200.6c-0.3,4.3-0.4,8.2-0.4,11.6s0,5.9,0.1,7.2l-3-0.3c-0.1-1.8-0.1-4.3-0.1-7.5
				c0-3.2,0.1-7,0.4-11.3L498.3,200.6z"/>
			<path class="st7" d="M501.3,202.3l2.8,0.3l-0.3,2.8l-2.8-0.4L501.3,202.3z M501.1,206.8l2.9,0.3v12.2l-2.9-0.3V206.8z"/>
			<path class="st7" d="M511.2,212.4c0-0.2,0.1-0.5,0.1-0.9c0-0.4-0.1-0.8-0.2-1.1c-0.2-0.4-0.3-0.6-0.6-0.6c-0.5,0-0.8,0.5-1,1.6
				s-0.3,2.1-0.3,3c0,1.5,0.3,2.3,0.9,2.3c0.5,0,1.2-0.9,2.2-2.7l1.9,1.3c-0.5,1.2-1,2.2-1.7,2.9c-0.7,0.7-1.5,1.1-2.5,1.1
				c-1,0-1.8-0.4-2.6-1.1c-0.8-0.8-1.2-1.9-1.2-3.5c0-1.7,0.3-3.3,0.8-5c0.3-0.9,0.8-1.6,1.4-2.2c0.6-0.6,1.4-0.9,2.3-0.9
				c0.9,0,1.7,0.5,2.3,1.4c0.6,0.9,0.9,2,0.9,3.2c0,0.5-0.1,0.9-0.2,1.3L511.2,212.4z"/>
			<path class="st7" d="M516.9,208.1c0.7-0.9,1.6-1.4,2.8-1.4c1.2,0,2,0.5,2.6,1.4c0.6,1,0.8,2.3,0.8,4.1c0,1.8-0.1,4.2-0.3,7.3
				l-2.1-0.2l-0.2-0.8c-0.8,0.5-1.6,0.7-2.4,0.7s-1.5-0.3-2.1-0.8c-0.5-0.6-0.8-1.3-0.8-2.4c0-1,0.5-1.9,1.5-2.7
				c1-0.7,2.2-1.1,3.5-1.2v-0.7c0-1.3-0.3-2-1-2c-0.3,0-0.6,0.2-0.9,0.7c-0.3,0.4-0.5,1-0.6,1.5l-2.3-0.2
				C515.7,210.1,516.2,209,516.9,208.1z M517.7,216.1c0,0.5,0.3,0.8,1,0.8c0.4,0,0.9-0.1,1.4-0.3l0.1-2.1c-0.8,0.1-1.4,0.3-1.8,0.6
				C517.9,215.4,517.7,215.8,517.7,216.1z"/>
			<path class="st7" d="M531.5,208.3v2.4c-0.8,0-1.4,0-1.9,0c-0.1,1.7-0.1,4.5-0.1,8.5l-3-0.3c0-3,0-5.7,0.1-8.1
				c-0.3,0-0.7,0-1.4,0.1l-0.4-2.1c0.4-0.1,1-0.2,1.9-0.3c0-1.3,0.1-3.1,0.2-5.5l3,0.3c-0.1,1.7-0.2,3.3-0.2,4.9
				C530.1,208.3,530.7,208.3,531.5,208.3z"/>
			<path class="st7" d="M533.5,202.3l2.8,0.3l-0.3,2.8l-2.8-0.4L533.5,202.3z M533.3,206.8l2.9,0.3v12.2l-2.9-0.3V206.8z"/>
			<path class="st7" d="M538.1,214.1c0-1.6,0.3-3.1,1-4.6c0.3-0.8,0.8-1.4,1.4-1.9s1.3-0.7,2.1-0.7s1.4,0.2,2,0.5
				c0.6,0.3,1,0.8,1.3,1.4c0.6,1.1,0.8,2.4,0.8,3.7c0,1.8-0.4,3.5-1.1,4.9c-0.8,1.4-1.8,2.1-3.2,2.1
				C539.5,219.6,538.1,217.8,538.1,214.1z M541.1,214.4c0,1.9,0.4,2.9,1.3,2.9c0.4,0,0.7-0.5,0.9-1.6c0.3-1.1,0.4-2.1,0.4-3.1
				c0-2.2-0.4-3.3-1.1-3.3c-0.5,0-0.8,0.6-1.1,1.7C541.2,212.2,541.1,213.3,541.1,214.4z"/>
			<path class="st7" d="M553.4,206.8c2.2,0,3.4,1.9,3.4,5.6c0,2-0.1,4.1-0.3,6.3l-3-0.3c0.2-1.9,0.3-3.9,0.3-5.9s-0.3-3-0.8-3
				c-0.3,0-0.6,0.7-1,2c-0.4,1.4-0.7,2.7-0.8,4c0,0.7,0.1,1.9,0.2,3.8l-3-0.3c-0.2-2.4-0.3-4.5-0.3-6.3s0.1-3.4,0.2-4.9l1.9,0.2
				c0,0.1,0.2,0.7,0.4,1.7C551.4,207.8,552.4,206.8,553.4,206.8z"/>
			<path class="st7" d="M563.7,210.9c0-1-0.3-1.5-0.8-1.5c-0.3,0-0.5,0.1-0.7,0.4c-0.2,0.2-0.3,0.6-0.3,1c0,0.4,0.1,0.8,0.2,1
				s0.5,0.5,0.9,0.8c0.4,0.3,0.8,0.5,1,0.6c0.2,0.2,0.5,0.4,0.9,0.7c0.7,0.6,1,1.4,1,2.4c0,1-0.4,1.7-1.1,2.3s-1.5,0.9-2.4,0.9
				s-1.7-0.2-2.4-0.7c-0.7-0.5-1.3-1.1-1.7-1.8l1.4-1.6c0.7,1.2,1.4,1.8,2.1,1.8c0.3,0,0.5-0.1,0.7-0.2c0.2-0.1,0.3-0.3,0.3-0.6
				c0-0.5-0.4-1-1.2-1.5c-0.8-0.5-1.5-1-2-1.5s-0.7-1.4-0.7-2.4c0-1,0.4-1.9,1.3-2.8c0.8-0.8,1.8-1.2,2.7-1.2s1.7,0.3,2.3,1
				c0.6,0.7,0.9,1.6,0.9,2.7c0,0.5-0.1,0.9-0.2,1.5l-2.3-0.2C563.7,211.5,563.7,211.2,563.7,210.9z"/>
			<path class="st7" d="M578.7,201.1c2,0,3.5,0.8,4.6,2.3c1.1,1.6,1.6,3.4,1.6,5.7c0,1.7-0.3,3.3-0.8,4.8c-0.5,1.5-1.4,2.8-2.5,3.8
				c-1.2,1-2.5,1.5-4,1.5c-0.3,0-1.5-0.1-3.5-0.4c0.2-3.6,0.4-6.7,0.4-9.1c0-2.4-0.1-5-0.2-7.9C575.8,201.4,577.3,201.1,578.7,201.1
				z M580.4,214.1c0.8-1.4,1.2-2.9,1.2-4.5c0-1.6-0.3-2.9-0.8-4c-0.6-1-1.2-1.6-2-1.6c-0.4,0-0.8,0.1-1.1,0.2
				c0.1,2.5,0.1,4.6,0.1,6.3c0,1.7-0.1,3.5-0.2,5.3c0.1,0.1,0.3,0.2,0.5,0.2C578.9,216.2,579.7,215.5,580.4,214.1z"/>
			<path class="st7" d="M590.1,217.1c0.6,0,1.3-0.6,2.1-1.9l1.9,1.1c-0.3,0.6-0.6,1-0.9,1.4c-0.3,0.4-0.7,0.8-1.3,1.1
				c-0.6,0.4-1.3,0.5-2,0.5c-1.1,0-2-0.5-2.7-1.4c-0.7-0.9-1.1-2.1-1.1-3.7c0-1.8,0.3-3.4,0.9-4.9c0.3-0.8,0.8-1.4,1.5-1.9
				s1.3-0.8,2-0.8s1.2,0.1,1.6,0.3c0.4,0.2,0.7,0.4,1,0.7c0.2,0.3,0.5,0.6,0.6,1.2c0.2,0.5,0.3,0.9,0.4,1.2c0.1,0.3,0.1,0.8,0.2,1.4
				c0.1,0.8,0.1,1.6,0.1,2.2c-1.4,0.4-3.1,0.7-5.3,1c0.1,0.7,0.2,1.2,0.4,1.6C589.6,216.9,589.8,217.1,590.1,217.1z M590.6,209.3
				c-0.4,0-0.7,0.4-1,1.1c-0.3,0.7-0.5,1.6-0.5,2.6c0.9-0.2,1.7-0.4,2.3-0.5C591.4,210.4,591.2,209.3,590.6,209.3z"/>
			<path class="st7" d="M600.8,219.3l-3.3-0.3c-1.3-5.1-2-9-2.3-11.9l2.9,0.3c0.3,3.1,0.7,5.9,1.2,8.4c0.7-2.5,1.4-5.7,2.2-9.6
				l2.7,0.2C603.3,210.9,602.1,215.2,600.8,219.3z"/>
			<path class="st7" d="M608.7,217.1c0.6,0,1.3-0.6,2.1-1.9l1.9,1.1c-0.3,0.6-0.6,1-0.9,1.4c-0.3,0.4-0.7,0.8-1.3,1.1
				c-0.6,0.4-1.3,0.5-2,0.5c-1.1,0-2-0.5-2.7-1.4c-0.7-0.9-1.1-2.1-1.1-3.7c0-1.8,0.3-3.4,0.9-4.9c0.3-0.8,0.8-1.4,1.5-1.9
				s1.3-0.8,2-0.8s1.2,0.1,1.6,0.3c0.4,0.2,0.7,0.4,1,0.7c0.2,0.3,0.5,0.6,0.6,1.2c0.2,0.5,0.3,0.9,0.4,1.2c0.1,0.3,0.1,0.8,0.2,1.4
				c0.1,0.8,0.1,1.6,0.1,2.2c-1.4,0.4-3.1,0.7-5.3,1c0.1,0.7,0.2,1.2,0.4,1.6C608.2,216.9,608.5,217.1,608.7,217.1z M609.3,209.3
				c-0.4,0-0.7,0.4-1,1.1c-0.3,0.7-0.5,1.6-0.5,2.6c0.9-0.2,1.7-0.4,2.3-0.5C610.1,210.4,609.8,209.3,609.3,209.3z"/>
			<path class="st7" d="M618.3,200.6c-0.3,4.3-0.4,8.2-0.4,11.6s0,5.9,0.1,7.2l-3-0.3c-0.1-1.8-0.1-4.3-0.1-7.5
				c0-3.2,0.1-7,0.4-11.3L618.3,200.6z"/>
			<path class="st7" d="M620,214.1c0-1.6,0.3-3.1,1-4.6c0.3-0.8,0.8-1.4,1.4-1.9s1.3-0.7,2.1-0.7s1.4,0.2,2,0.5
				c0.6,0.3,1,0.8,1.3,1.4c0.6,1.1,0.8,2.4,0.8,3.7c0,1.8-0.4,3.5-1.1,4.9c-0.8,1.4-1.8,2.1-3.2,2.1
				C621.4,219.6,620,217.8,620,214.1z M622.9,214.4c0,1.9,0.4,2.9,1.3,2.9c0.4,0,0.7-0.5,0.9-1.6c0.3-1.1,0.4-2.1,0.4-3.1
				c0-2.2-0.4-3.3-1.1-3.3c-0.5,0-0.8,0.6-1.1,1.7C623.1,212.2,622.9,213.3,622.9,214.4z"/>
			<path class="st7" d="M633.1,208.6c0.7-1,1.5-1.6,2.5-1.6c1,0,1.8,0.4,2.3,1.2s0.8,1.9,0.8,3.2c0,2-0.4,3.8-1.3,5.4
				c-0.8,1.6-1.7,2.4-2.7,2.4c-0.7,0-1.3-0.1-1.8-0.3c0,2.3,0.1,4.4,0.2,6.1l-3-0.3c-0.1-3.1-0.1-6.3-0.1-9.7c0-3.4,0.1-6.4,0.4-8.9
				l2.6,0.3L633.1,208.6z M633.9,216.7c0.5,0,0.9-0.5,1.3-1.4s0.6-1.9,0.6-2.8s-0.1-1.7-0.3-2.2c-0.2-0.5-0.4-0.8-0.6-0.8
				c-0.4,0-0.7,0.2-1,0.7c-0.3,0.4-0.6,1.1-0.9,1.9c0,0.9,0,2.2,0,4.1C633.3,216.6,633.6,216.7,633.9,216.7z"/>
			<path class="st7" d="M646,207.6c1,0,1.8,0.4,2.4,1.1c0.9-1.3,1.8-1.9,2.6-1.9c2.4,0,3.5,1.8,3.5,5.3c0,2-0.2,4.4-0.5,7.3
				l-2.9-0.3c0.3-3.2,0.5-5.6,0.5-7.2s-0.3-2.5-0.8-2.5c-0.2,0-0.5,0.4-0.8,1.1s-0.5,1.6-0.6,2.5c0,2.1-0.1,4-0.2,5.7l-3-0.3
				c0.1-2.4,0.2-4.4,0.2-5.9s-0.2-2.3-0.6-2.3c-0.3,0-0.6,0.5-1.1,1.4c-0.4,0.9-0.7,1.9-0.9,3c0,1.6,0.1,3.2,0.2,4.8l-3-0.3
				c-0.2-2.4-0.3-4.6-0.3-6.5s0.1-3.8,0.2-5.5l2.1,0.2c0.1,0.5,0.2,1.3,0.4,2.5C644.3,208.3,645.1,207.6,646,207.6z"/>
			<path class="st7" d="M660.3,217.1c0.6,0,1.3-0.6,2.1-1.9l1.9,1.1c-0.3,0.6-0.6,1-0.9,1.4c-0.3,0.4-0.7,0.8-1.3,1.1
				c-0.6,0.4-1.3,0.5-2,0.5c-1.1,0-2-0.5-2.7-1.4c-0.7-0.9-1.1-2.1-1.1-3.7c0-1.8,0.3-3.4,0.9-4.9c0.3-0.8,0.8-1.4,1.5-1.9
				s1.3-0.8,2-0.8s1.2,0.1,1.6,0.3c0.4,0.2,0.7,0.4,1,0.7c0.2,0.3,0.5,0.6,0.6,1.2c0.2,0.5,0.3,0.9,0.4,1.2c0.1,0.3,0.1,0.8,0.2,1.4
				c0.1,0.8,0.1,1.6,0.1,2.2c-1.4,0.4-3.1,0.7-5.3,1c0.1,0.7,0.2,1.2,0.4,1.6C659.8,216.9,660,217.1,660.3,217.1z M660.8,209.3
				c-0.4,0-0.7,0.4-1,1.1c-0.3,0.7-0.5,1.6-0.5,2.6c0.9-0.2,1.7-0.4,2.3-0.5C661.6,210.4,661.4,209.3,660.8,209.3z"/>
			<path class="st7" d="M671.5,206.8c2.2,0,3.4,1.9,3.4,5.6c0,2-0.1,4.1-0.3,6.3l-3-0.3c0.2-1.9,0.3-3.9,0.3-5.9s-0.3-3-0.8-3
				c-0.3,0-0.6,0.7-1,2c-0.4,1.4-0.7,2.7-0.8,4c0,0.7,0.1,1.9,0.2,3.8l-3-0.3c-0.2-2.4-0.3-4.5-0.3-6.3s0.1-3.4,0.2-4.9l1.9,0.2
				c0,0.1,0.2,0.7,0.4,1.7C669.5,207.8,670.5,206.8,671.5,206.8z"/>
			<path class="st7" d="M682.9,208.3v2.4c-0.8,0-1.4,0-1.9,0c-0.1,1.7-0.1,4.5-0.1,8.5l-3-0.3c0-3,0-5.7,0.1-8.1
				c-0.3,0-0.7,0-1.4,0.1l-0.4-2.1c0.4-0.1,1-0.2,1.9-0.3c0-1.3,0.1-3.1,0.2-5.5l3,0.3c-0.1,1.7-0.2,3.3-0.2,4.9
				C681.6,208.3,682.2,208.3,682.9,208.3z"/>
		</g>
	</g>
</g>
</svg>
