<svg xmlns="http://www.w3.org/2000/svg" class="logo-svg" viewBox="0 0 321 78" width="665.963" height="165.508" role="img" aria-labelledby="main-berluti-logo"><title id="main-berluti-logo">Berluti</title><path d="M95.9 62.9H70.4V44.5h20.9v-10H70.4V16.4h25.3V5.7H62.2L58 9.8v38.9l-.7 24.8h38.6V62.9zm74.8-53.1l-4.2-4.1h-9l.8 24.7v18.3l-.8 24.8h38.7V62.9h-25.5V9.8zm58.1-4.1v52c-.3 3.3-2.7 5.3-6.5 5.3-4 0-6.6-2.3-6.6-6V5.7h-13.2l.8 24.7v26c0 10.7 7.1 17.1 19 17.1s18.9-6.4 18.9-17.1V9.8l-4.1-4.1zm78 0l-4.1 4.1v63.7H315V30.4l.8-24.7h-9zm-53.9 10.7h12.8v53l4.1 4.1h9l-.8-24.7V19.4a3 3 0 0 1 3-3h9.8V5.7h-37.9v10.7zM136.3 46c7.1-3.5 11-10.4 11-19.4 0-13.5-7.4-20.9-20.8-20.9h-14.3L108 9.8v38.9l-.8 24.8h13.1V47.3h1.9l14.7 26.2h11.9v-4.1L136 46.1zm-12.1-9h-3.9V16.4h3.9c7 0 10.5 3.4 10.5 10.3S131.2 37 124.2 37zm-88.8 1.8l-1.2-.5 1-.5c5-2.8 7.4-7.2 7.4-13.7 0-11.9-7-18.4-19.8-18.4H4l.8 24.7v38.9l4.1 4.1h16.7c12.8 0 19.8-6.7 19.8-18.8 0-10.2-5.7-13.9-10-15.8zM15.3 16.4h7c3.6 0 7.9 2.4 7.9 9s-4.2 9.1-7.9 9.1h-7zm9.5 46.5h-9.6V47.8a3 3 0 0 1 3-3h6.6c3.6 0 7.9 2.4 7.9 9s-4.2 9.1-7.9 9.1z"></path></svg>