<?xml version="1.0" encoding="utf-8"?>
<!-- Generator: Adobe Illustrator 24.3.0, SVG Export Plug-In . SVG Version: 6.00 Build 0)  -->
<svg version="1.1" id="Layer_1" xmlns="http://www.w3.org/2000/svg" xmlns:xlink="http://www.w3.org/1999/xlink" x="0px" y="0px"
	 viewBox="0 0 552.68 127.7" style="enable-background:new 0 0 552.68 127.7;" xml:space="preserve">
<style type="text/css">
	.st0{fill:#004538;}
</style>
<g>
	<path class="st0" d="M85.51,85.94c0.41,0,1.91,0,3.19,0.29c1.04,0.21,1.37,1.08,1.45,1.87c0,0.17,0.12,0.25,0.25,0.25l0.79-0.08
		c0.12,0,0.21-0.08,0.21-0.25c-0.04-0.46-0.12-1.74-0.12-2.65c0-0.41,0-2.61,0.04-3.03c0-0.17-0.04-0.21-0.17-0.21l-0.83-0.08
		c-0.17,0-0.21,0.08-0.25,0.37c-0.17,0.91-0.66,1.87-1.45,2.03c-0.33,0.04-2.74,0.17-3.11,0.17v-7.84c0.54,0,4.52,0.04,5.23,0.21
		c0.58,0.12,1.16,0.33,1.58,0.91c1,1.33,1.53,2.28,1.82,2.82c0.12,0.25,0.25,0.33,0.33,0.25l0.66-0.29
		c0.08-0.04,0.08-0.17,0.04-0.33c-0.12-0.58-0.91-4.15-1.04-5.02c-0.46,0.12-10.12,0.12-10.58,0.12c-0.87,0-3.82-0.12-4.02-0.12
		c-0.17,0-0.25,0.12-0.25,0.29v0.91c0,0.17,0.04,0.29,0.21,0.29h1.62c0.79,0,1.04,0.75,1.12,1.16c0.04,0.33,0.04,3.23,0.04,4.35
		v1.87c0,4.52-0.04,7.42-0.08,7.88c-0.04,0.33-0.29,0.66-1,0.66h-1.16c-0.17,0-0.25,0.12-0.25,0.25v0.91c0,0.21,0.04,0.33,0.25,0.33
		c0.17,0,2.24-0.12,3.53-0.12c1.66,0,3.82,0.12,4.06,0.12c0.17,0,0.21-0.17,0.21-0.33v-0.91c0-0.17-0.08-0.25-0.21-0.25h-1
		c-0.66,0-1.12-0.12-1.12-0.83V85.94L85.51,85.94z M116.5,86.94c0.33,0.95,1.45,4.27,1.62,5.1c0,0.33-0.17,0.71-0.66,0.71h-0.66
		c-0.17,0-0.21,0.12-0.21,0.25v0.87c0,0.17,0.04,0.37,0.33,0.37c0.54,0,2.99-0.12,3.77-0.12c0.95,0,3.15,0.12,3.65,0.12
		c0.25,0,0.29-0.25,0.29-0.37v-0.87c0-0.12-0.04-0.25-0.21-0.25h-0.79c-0.71,0-1.41-0.37-1.95-1.12c-0.29-0.41-2.07-5.31-2.7-7.38
		c-0.54-1.66-2.65-7.59-3.23-9.25c-0.08-0.29-0.17-0.46-0.41-0.46s-0.41,0.12-0.5,0.29c-0.37,0.33-1.53,1.08-2.32,1.2
		c-0.37,0.08-0.46,0.21-0.41,0.29c-0.04,0.12,0.08,0.33,0.17,0.41c0.29,0.12,0.04,0.58-0.04,0.83c-0.25,0.71-2.7,6.35-2.99,6.93
		c-1,2.07-3.11,7.05-3.4,7.38c-0.33,0.46-1,0.87-1.7,0.87h-0.58c-0.17,0-0.17,0.08-0.17,0.25v0.87c0,0.17,0,0.37,0.17,0.37
		c0.37,0,2.45-0.12,3.23-0.12c0.66,0,2.86,0.12,3.19,0.12c0.21,0,0.25-0.12,0.25-0.29v-0.91c0-0.17-0.04-0.29-0.29-0.29h-1.04
		c-0.87,0-1-0.54-0.75-1.37c0.17-0.5,1.49-3.94,1.66-4.44H116.5L116.5,86.94z M110.44,85.61c0.21-0.41,2.74-6.76,2.86-7.09
		s0.21-0.46,0.33-0.46s0.17,0.17,0.25,0.41c0.08,0.33,2.03,6.55,2.2,7.13H110.44L110.44,85.61z M135.86,76.61
		c0,0.12,0.08,0.21,0.21,0.21h0.75c1.74,0,1.74,0.33,1.74,0.95c0,0.37,0.04,4.31,0.04,4.69c0,0.5-0.08,7.26-0.46,9.12
		c-0.12,0.62-0.79,1.16-1.99,1.16h-0.54c-0.12,0-0.21,0.08-0.21,0.25v0.83c0,0.33,0.04,0.41,0.25,0.41c0.25,0,2.61-0.12,3.53-0.12
		c1.29,0,3.23,0.12,3.48,0.12c0.21,0,0.25-0.12,0.25-0.25v-0.91c0-0.21-0.04-0.33-0.21-0.33h-0.62c-1.24,0-1.82-0.41-1.99-1.91
		c-0.08-0.5-0.04-6.1-0.04-6.43c0-0.29,0.04-6.84,0.12-7.26h0.08c0.54,1,2.57,5.81,3.15,7.05c0.29,0.62,3.9,8.96,4.02,9.17
		c0.12,0.25,0.25,0.46,0.5,0.46c0.33,0,0.54-0.37,0.66-0.62c0.12-0.25,2.99-6.22,3.53-7.26c0.71-1.37,4.02-8.42,4.23-8.83l0.08,0.04
		v8.13c0,0.41-0.04,6.01-0.08,6.64c0,0.37-0.29,0.83-1.12,0.83h-1.33c-0.17,0-0.25,0.08-0.25,0.25v0.83c0,0.29,0.08,0.41,0.25,0.41
		c0.29,0,2.86-0.12,3.9-0.12c1.45,0,3.77,0.12,4.11,0.12c0.21,0,0.29-0.12,0.29-0.29v-1c0-0.12-0.08-0.21-0.21-0.21h-1.37
		c-0.66,0-0.91-0.66-0.91-1.45c0-0.37-0.08-5.85-0.08-6.39c0-0.58,0.08-6.84,0.08-7.22c0.04-0.41,0.21-0.87,0.79-0.87h1
		c0.21,0,0.29-0.12,0.29-0.29v-0.87c0-0.21-0.04-0.33-0.21-0.33c-0.29,0-1.16,0.12-5.52,0.12c-0.41,0-0.62,0.12-0.66,0.41
		c-0.08,0.46-2.65,5.64-3.32,6.97c-0.75,1.58-2.78,5.72-3.11,6.51L143,75.78c-0.17-0.33-0.37-0.46-0.71-0.46
		c-0.54,0-1.37,0.12-2.49,0.12c-1.16,0-3.48-0.12-3.73-0.12c-0.12,0-0.21,0.08-0.21,0.21V76.61L135.86,76.61z M180.86,83.5
		c0-0.29,0.04-5.23,0.04-5.64c0.04-0.87,0.41-1.04,1.53-1.04h0.71c0.21,0,0.25-0.12,0.25-0.29v-1c0-0.12-0.08-0.21-0.25-0.21
		c-0.33,0-2.45,0.12-3.65,0.12c-1.95,0.04-4.52-0.12-4.77-0.12c-0.17,0-0.25,0.08-0.25,0.25v0.95c0,0.17,0.04,0.29,0.25,0.29h0.75
		c1.74,0,2.12,0.41,2.12,0.87c0,0.58,0.08,4.73,0.08,5.39v1.82c0,1.41-0.04,6.68-0.08,7.05c-0.08,0.75-0.75,0.79-1.78,0.79h-0.91
		c-0.17,0-0.25,0.12-0.25,0.25v0.91c0,0.21,0.08,0.33,0.25,0.33c0.25,0,2.65-0.12,4.06-0.12c1.87,0,4.02,0.12,4.35,0.12
		c0.21,0,0.25-0.12,0.25-0.29v-1c0-0.12-0.04-0.21-0.25-0.21h-0.62c-1.2,0-1.7-0.58-1.78-1.53c-0.04-0.62-0.04-5.39-0.04-5.64V83.5
		L180.86,83.5z M199.19,83.79c0,1.58-0.08,7.55-0.08,8.21c-0.04,0.37-0.41,0.75-1.16,0.75h-1.29c-0.17,0-0.29,0.04-0.29,0.25v0.87
		c0,0.29,0.08,0.37,0.25,0.37c0.21,0,0.83-0.04,1.62-0.08c0.79,0,1.66-0.04,2.32-0.04c1.2,0,10.49,0.04,11.2,0.08
		c0.17-0.71,1.24-4.94,1.29-5.14s0.04-0.37-0.04-0.41l-0.66-0.29c-0.17-0.04-0.25,0.04-0.37,0.21c-0.62,1.04-2.65,3.82-3.32,4.02
		c-1.04,0.12-5.68,0.08-6.18,0.08c-0.08-0.95-0.08-6.35-0.08-6.8v-2.28c0-1.87,0.08-5.52,0.08-5.85c0-0.66,0.12-0.91,1.66-0.91h0.62
		c0.17,0,0.25-0.12,0.25-0.25v-1c0-0.17-0.04-0.25-0.21-0.25c-0.29,0-2.7,0.12-4.06,0.12c-1.53,0-3.65-0.12-3.94-0.12
		c-0.12,0-0.21,0.08-0.21,0.21v1c0,0.17,0.04,0.29,0.21,0.29h0.62c1.49,0,1.62,0.25,1.7,0.95c0.04,0.29,0.08,2.82,0.08,4.52V83.79
		L199.19,83.79z M232.09,85.69c0.95-1.45,5.76-8.21,6.39-8.54c0.37-0.21,0.83-0.33,1.49-0.33h0.41c0.17,0,0.25-0.08,0.25-0.29v-0.87
		c0-0.25-0.08-0.33-0.29-0.33c-0.25,0-1.7,0.12-2.45,0.12c-1.24,0-3.32-0.12-3.57-0.12c-0.21,0-0.29,0.12-0.29,0.29v0.91
		c0,0.17,0.08,0.29,0.29,0.29h0.66c0.91,0,0.87,0.54,0.54,1.2c-0.17,0.33-3.61,5.35-4.23,6.39c-0.66-1-4.11-6.51-4.35-6.88
		c-0.17-0.25-0.12-0.71,0.62-0.71h0.62c0.25,0,0.29-0.12,0.29-0.29v-0.91c0-0.21-0.12-0.29-0.29-0.29c-0.29,0-3.11,0.12-4.02,0.12
		c-1,0-3.15-0.12-3.4-0.12s-0.33,0.12-0.33,0.25v0.91c0,0.25,0.08,0.33,0.29,0.33h0.58c0.33,0,1.08,0.08,1.49,0.5
		c0.66,0.62,5.72,8.05,6.1,8.79v1.49c0,2.45,0,3.94-0.04,4.31c-0.04,0.58-0.29,0.83-1.62,0.83h-0.62c-0.17,0-0.25,0.12-0.25,0.25
		v0.91c0,0.25,0.08,0.33,0.29,0.33c0.25,0,2.65-0.12,3.57-0.12c1.37,0,3.69,0.12,3.94,0.12c0.25,0,0.33-0.12,0.33-0.29v-1
		c0-0.12-0.08-0.21-0.29-0.21h-0.54c-0.75,0-1.41-0.04-1.49-0.91c-0.08-0.5-0.04-1.62-0.08-2.65V85.69L232.09,85.69z M264.61,94.53
		c6.01,0,9.62-8.25,9.62-12.82c0-2.82-1.66-4.85-4.44-4.85c-5.52,0-9.46,7.09-9.46,12.32C260.33,92.33,262.32,94.53,264.61,94.53
		L264.61,94.53z M263.98,92.54c-1,0-1.91-0.79-1.91-2.12c0-1.95,1-4.48,2.41-6.72c2.07-3.36,4.27-4.94,6.01-4.94
		c1.37,0,2.12,1.04,2.07,2.32C272.57,83.83,268.3,92.54,263.98,92.54L263.98,92.54z M281.15,79.52l-4.19,14.1
		c-2.24,7.67-4.48,11.16-6.47,11.16c-0.33,0-0.62-0.29-0.71-0.71c-0.12-0.71-0.75-1.87-1.95-1.87c-1.08,0-1.78,0.83-1.78,1.78
		c0,1.33,1.33,2.45,2.99,2.45c4.44,0,7.38-4.6,9.91-11.07c2.07-5.31,3.98-12.48,5.06-15.84h3.94c0.33,0,0.41-0.04,0.46-0.29
		l0.21-0.75c0.08-0.37,0-0.5-0.25-0.5h-4.02c1.37-4.65,2.86-10.78,6.72-10.78c1.24,0,1.66,0.79,1.7,1.2
		c0.12,0.91,0.5,1.66,1.82,1.66c0.83,0,1.66-0.62,1.66-1.91c0-1-1.33-2.45-3.73-2.45c-2.7,0-4.98,1.49-6.14,2.82
		c-2.2,2.45-3.61,5.89-4.85,9.46h-3.61c-0.33,0-0.41,0.12-0.5,0.41l-0.17,0.71c-0.08,0.29,0,0.41,0.21,0.41H281.15L281.15,79.52z
		 M307.28,76.53c0,0.25,0,0.29,0.21,0.29h0.79c0.79,0,1.58,0.04,1.66,1.45c0.04,0.46,0.12,3.36,0.12,4.4v3.07
		c0,2.2,0,5.39-0.12,5.97c-0.12,0.54-0.5,1.04-1.12,1.04h-1.12c-0.25,0-0.29,0.04-0.29,0.21v0.87c0,0.29,0.04,0.41,0.33,0.41
		c0.71,0,2.2-0.12,3.32-0.12c1.41,0,2.78,0.12,4.19,0.12c2.82,0,4.77-0.41,5.89-1c1.37-0.62,2.16-2.53,2.16-3.98
		c0-2.78-1.82-4.35-5.02-5.31v-0.08c2.61-0.95,3.86-1.62,3.86-4.23c0-1.53-0.58-2.78-2.16-3.61c-0.95-0.5-2.7-0.71-5.02-0.71
		c-1,0-2.61,0.12-3.53,0.12c-0.71,0-3.53-0.12-3.9-0.12c-0.21,0-0.25,0.08-0.25,0.29V76.53L307.28,76.53z M313.13,84.74
		c1.33,0,2.53-0.04,3.94,0.46c1.58,0.54,2.7,1.82,2.7,3.94c0,2.78-2.12,3.86-3.98,3.86c-2.07,0-2.65-1.16-2.65-3.15V84.74
		L313.13,84.74z M313.13,81.67c0-1.74,0-4.02,0.04-4.56c0.04-0.29,0.12-0.5,0.37-0.54c0.25-0.04,0.54-0.04,0.91-0.04
		c0.79,0,2.36,0.29,3.19,0.91c1.04,0.79,1.24,1.82,1.24,2.7c0,0.87-0.41,1.95-1.53,2.74c-0.83,0.54-2.32,0.71-4.23,0.58V81.67
		L313.13,81.67z M339.05,84.66c-0.04,2.53,0,4.98-0.04,7.01c0,0.91-0.5,1.08-1.49,1.08h-0.5c-0.17,0-0.25,0.08-0.25,0.21v0.95
		c0,0.21,0.08,0.33,0.25,0.33c0.29,0,2.41-0.12,3.44-0.12c1.37,0,3.61,0.12,3.9,0.12c0.25,0,0.33-0.08,0.33-0.29v-1
		c0-0.12-0.08-0.21-0.25-0.21h-1.08c-0.83,0-1.08-0.46-1.16-1.04v-4.48v-1c0.29-0.08,0.66-0.08,1.08-0.08
		c1.74,0,2.36,0.91,3.86,3.48c0.37,0.62,2.2,3.98,2.99,4.56c0.71-0.04,1.7-0.08,2.65-0.08c0.41,0,0.91,0.04,1.29,0.04
		c0.41,0.04,0.75,0.08,0.83,0.08c0.17,0,0.25-0.12,0.25-0.29v-0.83c0-0.25-0.04-0.37-0.21-0.37c-0.75,0-1.29-0.04-1.87-0.46
		c-0.79-0.58-1.74-1.82-2.32-2.65c-1.7-2.41-2.53-3.69-3.48-3.9v-0.08c3.28-1.16,4.89-2.82,4.89-5.68c0-0.95-0.54-2.16-1.45-3.03
		c-1.04-0.91-2.9-1.62-5.39-1.62c-0.54,0-4.15,0.12-4.65,0.12c-0.75,0-3.32-0.12-3.53-0.12c-0.17,0-0.25,0.08-0.25,0.21v1
		c0,0.17,0.04,0.29,0.17,0.29h0.41c1.16,0,1.53,0.46,1.58,1.29v3.98V84.66L339.05,84.66z M342.2,77.57c0-0.75,0.62-0.91,1.24-0.91
		c1.66,0,2.82,0.37,3.94,1.08c0.75,0.5,1.37,1.62,1.37,2.86c0,1.08-0.71,4.31-5.31,4.31c-0.54,0-0.95-0.04-1.24-0.08V77.57
		L342.2,77.57z M377.13,86.94c0.33,0.95,1.45,4.27,1.62,5.1c0,0.33-0.17,0.71-0.66,0.71h-0.66c-0.17,0-0.21,0.12-0.21,0.25v0.87
		c0,0.17,0.04,0.37,0.33,0.37c0.54,0,2.99-0.12,3.77-0.12c0.95,0,3.15,0.12,3.65,0.12c0.25,0,0.29-0.25,0.29-0.37v-0.87
		c0-0.12-0.04-0.25-0.21-0.25h-0.79c-0.71,0-1.41-0.37-1.95-1.12c-0.29-0.41-2.07-5.31-2.7-7.38c-0.54-1.66-2.65-7.59-3.23-9.25
		c-0.08-0.29-0.17-0.46-0.41-0.46c-0.25,0-0.41,0.12-0.5,0.29c-0.37,0.33-1.53,1.08-2.32,1.2c-0.37,0.08-0.46,0.21-0.41,0.29
		c-0.04,0.12,0.08,0.33,0.17,0.41c0.29,0.12,0.04,0.58-0.04,0.83c-0.25,0.71-2.7,6.35-2.99,6.93c-1,2.07-3.11,7.05-3.4,7.38
		c-0.33,0.46-1,0.87-1.7,0.87h-0.58c-0.17,0-0.17,0.08-0.17,0.25v0.87c0,0.17,0,0.37,0.17,0.37c0.37,0,2.45-0.12,3.23-0.12
		c0.66,0,2.86,0.12,3.19,0.12c0.21,0,0.25-0.12,0.25-0.29v-0.91c0-0.17-0.04-0.29-0.29-0.29h-1.04c-0.87,0-1-0.54-0.75-1.37
		c0.17-0.5,1.49-3.94,1.66-4.44H377.13L377.13,86.94z M371.08,85.61c0.21-0.41,2.74-6.76,2.86-7.09s0.21-0.46,0.33-0.46
		s0.17,0.17,0.25,0.41c0.08,0.33,2.03,6.55,2.2,7.13H371.08L371.08,85.61z M414.7,83.91c0-1.7-0.08-4.31,0.12-6.22
		c0.08-0.58,0.29-0.87,1.33-0.87h0.41c0.17,0,0.25-0.12,0.25-0.29v-0.87c0-0.25-0.08-0.33-0.29-0.33c-0.29,0-1.74,0.12-2.61,0.12
		c-1.33,0-3.11-0.12-3.4-0.12c-0.21,0-0.29,0.08-0.29,0.21v1c0,0.21,0.08,0.29,0.29,0.29h0.71c0.71,0,1.33,0.25,1.53,0.75
		s0.33,2.9,0.33,3.9c0.08,1.33,0.12,2.61,0.12,4.98v2.74h-0.17c-0.5-0.54-4.35-5.39-5.1-6.26c-0.87-1.04-5.64-7.05-5.76-7.22
		c-0.17-0.25-0.41-0.33-1-0.33c-0.5,0-1.37,0.08-2.03,0.08c-0.46,0-1.12-0.04-1.66-0.08c-0.54,0-1-0.04-1.08-0.04
		c-0.17,0-0.25,0.12-0.25,0.25v1c0,0.17,0.08,0.25,0.25,0.25h0.37c1.16,0,2.2,0.71,2.2,2.2v4.35c0,4.69-0.08,7.63-0.12,8.13
		c-0.12,0.95-0.79,1.24-1.2,1.24h-0.95c-0.12,0-0.17,0.04-0.17,0.12v1.08c0,0.21,0.04,0.29,0.12,0.29c0.33,0,2.2-0.12,2.78-0.12
		c1.2,0,2.86,0.12,3.15,0.12c0.21,0,0.21-0.08,0.21-0.25v-1c0-0.17,0-0.25-0.21-0.25h-0.87c-0.41,0-0.87-0.46-1-1.41
		c-0.08-0.37-0.25-4.52-0.25-7.01v-5.68h0.08c0.66,0.75,4.02,5.23,5.02,6.39c0.46,0.54,2.24,2.65,4.15,4.94
		c1.7,2.03,3.11,3.73,3.4,4.02c0.17,0.12,0.58,0.41,0.95,0.41c0.5,0,0.62-0.41,0.62-0.79V83.91L414.7,83.91z M432.17,83.95
		c0,2.12-0.08,7.76-0.17,8.13c-0.04,0.21-0.37,0.66-0.91,0.66h-1.82c-0.17,0-0.21,0.08-0.21,0.21v0.91c0,0.29,0.04,0.37,0.21,0.37
		c0.21,0,3.32-0.12,3.86-0.12c0.58,0,4.77,0.08,5.52,0.08c1.16,0,6.22-0.08,8.79-2.74c1.91-1.95,2.49-3.86,2.49-7.01
		c0-3.07-1.04-5.06-2.86-6.68c-2.49-2.2-5.27-2.45-9.17-2.45c-0.91,0-3.65,0.12-4.35,0.12c-0.79,0-3.9-0.12-4.19-0.12
		c-0.17,0-0.21,0.08-0.21,0.25v0.95c0,0.21,0.04,0.29,0.17,0.29h1.53c0.75,0,1.12,0.33,1.16,0.71c0.08,0.66,0.17,3.77,0.17,4.48
		V83.95L432.17,83.95z M435.36,82.71c0-0.46,0-3.73,0.04-4.85c0.04-0.46,0.17-0.79,0.58-1c0.41-0.29,1.29-0.29,1.87-0.29
		c2.86,0,5.14,1.04,6.59,2.61c1.12,1.24,2.12,3.53,1.95,5.76c0,1.91-0.58,3.86-1.58,5.1c-1.24,1.53-3.73,2.86-6.39,2.86
		c-0.95,0-2.07-0.29-2.49-0.87c-0.37-0.5-0.5-0.95-0.5-1.49c-0.04-1.33-0.08-5.64-0.08-5.97V82.71L435.36,82.71z M468.79,94.61
		c3.77,0,5.76-2.65,5.76-5.76c0-2.07-0.5-3.11-1.33-3.98c-1.04-1.08-2.57-1.53-4.48-2.24c-0.79-0.29-2.28-0.91-2.9-1.7
		c-0.46-0.54-0.66-1.41-0.66-2.03c0-0.75,0.66-2.53,2.94-2.53c1.2,0,2.12,0.41,2.74,1.12c0.87,1,1.2,2.45,1.45,2.94
		c0.04,0.12,0.12,0.21,0.25,0.17l0.75-0.17c0.12-0.04,0.17-0.12,0.17-0.25c-0.04-0.58-0.41-3.28-0.41-4.65
		c0-0.21-0.04-0.37-0.37-0.37s-0.46,0-0.54,0.12l-0.17,0.29c-0.08,0.21-0.29,0.17-0.71-0.08c-0.5-0.25-1.37-0.54-2.94-0.54
		c-1.49,0-2.82,0.37-3.9,1.24c-0.91,0.79-1.78,2.07-1.78,3.48c0,2.03,0.5,3.36,1.45,4.27c1.24,1.12,3.23,1.87,4.06,2.16
		c2.2,0.83,3.82,1.87,3.82,4.23c0,1.78-1.99,2.82-3.32,2.82c-1.53,0-2.9-0.83-3.53-2.07c-0.75-1.37-0.75-2.24-0.75-2.82
		c0-0.17-0.17-0.25-0.33-0.29l-0.75-0.08c-0.17,0-0.25,0.12-0.29,0.29c-0.04,0.66-0.33,3.98-0.46,5.14
		c-0.04,0.21,0.08,0.37,0.33,0.46c0.33,0.08,0.54,0,0.62-0.21l0.12-0.33c0.08-0.33,0.33-0.29,0.62-0.08
		C465.22,93.91,466.67,94.61,468.79,94.61L468.79,94.61z"/>
	<path class="st0" d="M24.09,56.11l0.75,0.54c0.16-0.22,0.38-0.32,0.65-0.32c0.59,0,5.82,2.59,10.68,2.59
		c4.91,0,11.75-1.56,11.75-7.82c0-9.54-17.9-5.23-17.9-9.87c0-1.99,2.53-2.7,5.39-2.7c3.72,0,6.96,0.97,8.41,2.21
		c0.54,0.43,0.54,0.86,0.59,1.29l0.97,0.32l2.7-5.07l-0.59-0.59c-0.43,0.22-0.59,0.43-1.19,0.43c-1.02,0-3.94-2.59-10.57-2.59
		c-6.79,0-10.89,2.97-10.89,7.55c0,9.17,17.9,4.96,17.9,9.65c0,2.75-4.69,3.18-6.63,3.18c-2.16,0-8.57-1.46-8.57-3.61
		c0-0.32,0.05-0.7,0.05-0.97l-1.02-0.27L24.09,56.11L24.09,56.11z M61.67,58.59h6.96v-0.97c-0.54,0-0.97-0.27-0.97-0.81V38.85h7.01
		c0.54,0,1.19,0.27,1.19,0.92h0.97v-6.2h-0.97c0,1.02-0.65,1.29-1.19,1.29H55.47c-0.54,0-1.19-0.27-1.19-1.29h-0.97v6.2h0.97
		c0-0.65,0.65-0.92,1.19-0.92h7.01v17.95c0,0.54-0.43,0.81-0.81,0.81V58.59L61.67,58.59z M94.99,34.54
		c-7.87,0-14.34,3.94-14.34,12.18c0,8.25,6.47,12.18,14.34,12.18s14.34-3.94,14.34-12.18C109.33,38.48,102.86,34.54,94.99,34.54
		L94.99,34.54z M94.99,38.53c4.64,0,9.17,3.07,9.17,8.2s-4.53,8.2-9.17,8.2c-4.64,0-9.17-3.07-9.17-8.2S90.36,38.53,94.99,38.53
		L94.99,38.53z M122.49,58.59v-0.97c-0.7,0-1.13-0.27-1.13-0.81V41.12l13.37,14.23c0.86,0.92,1.67,1.73,1.67,1.99
		c0,0.22-0.16,0.27-0.38,0.27v0.97h7.01v-0.97c-0.54,0-0.97-0.27-0.97-0.81V36.64c0-0.54,0.43-0.81,0.97-0.81v-0.97h-6.58v0.97
		c0.65,0,1.08,0.27,1.08,0.81v14.61l-12.94-13.69c-0.75-0.81-1.19-1.19-1.19-1.46c0-0.16,0.05-0.22,0.38-0.27v-0.97h-7.93v0.97
		c0.54,0,0.97,0.27,0.97,0.81v20.16c0,0.54-0.43,0.81-0.97,0.81v0.97H122.49L122.49,58.59z M173.65,33.89h-0.97
		c0,0.54-0.54,0.97-1.67,0.97h-19.14v0.97c0.38,0,0.81,0.27,0.81,0.81v20.16c0,0.54-0.43,0.81-0.81,0.81v0.97h19.79
		c0.86,0,1.51,0.11,1.51,0.75h0.97v-5.82h-0.97c0,0.65-0.65,1.08-1.51,1.08h-13.8v-6.36h7.87c1.4,0,2.32,0.11,2.1,0.86h1.08v-5.72
		h-0.97c0,0.75-0.54,0.86-1.78,0.86h-8.3v-5.39h13.16c1.13,0,1.67,0.27,1.67,1.02h0.97V33.89L173.65,33.89z M178.29,34.86v0.97
		c0.59,0.11,0.92,0.43,1.13,1.02l7.12,18.71c0.16,0.38,0.49,1.19,0.49,1.62s-0.27,0.43-0.54,0.43v0.97h6.63v-0.97
		c-0.65,0-0.81-0.16-0.81-0.75c0-0.59,5.39-13.32,5.88-15.26h0.11c2.32,7.22,5.23,14.61,5.23,15.26c0,0.59-0.11,0.7-0.65,0.75v0.97
		h7.55v-0.97c-0.43,0-0.75-0.27-0.75-0.7c0-0.38,0.54-1.46,0.97-2.64l6.2-16.44c0.49-1.4,0.97-1.99,1.62-1.99v-0.97h-6.85v0.97
		c0.49,0,0.86,0.16,0.86,0.75c0,0.49-0.27,1.24-0.65,2.26l-5.01,13.1l-4.74-12.99c-0.32-0.86-0.81-1.99-0.81-2.48
		s0.32-0.65,0.97-0.65v-0.97h-7.71v0.97c0.59,0,0.86,0.22,0.86,0.75c0,0.54-0.38,1.51-0.75,2.53l-4.58,12.83h-0.11l-4.74-13.1
		c-0.43-1.13-0.75-1.94-0.75-2.26c0-0.43,0.22-0.75,0.7-0.75v-0.97H178.29L178.29,34.86z M227.41,58.59v-0.97
		c-0.65,0-1.02-0.11-1.02-0.65c0-0.38,0.22-0.81,0.49-1.4l1.51-2.91h11.54l1.46,3.07c0.22,0.54,0.38,0.86,0.38,1.29
		c0,0.54-0.54,0.75-0.86,0.75v0.81h7.66v-0.97c-0.49-0.11-0.97-0.38-1.29-1.02l-8.73-18.33c-0.38-0.81-0.75-1.4-0.75-1.83
		c0-0.49,0.32-0.49,0.54-0.59v-0.97h-8.14v0.97c0.22,0.11,0.43,0.16,0.43,0.59c0,0.54-0.27,1.13-0.7,2.1l-8.03,17.52
		c-0.27,0.59-0.81,1.46-1.67,1.56v0.97H227.41L227.41,58.59z M233.82,39.61l4.37,9.06H230L233.82,39.61L233.82,39.61z M253.45,35.83
		c0.97,0,1.4,0.27,1.4,0.81v20.16c0,0.54-0.43,0.81-1.4,0.81v0.97h21.13c0.86,0,1.51,0.11,1.51,0.7h0.97v-5.82h-0.97
		c0,0.7-0.65,1.13-1.51,1.13h-14.56V36.64c0-0.54,0.43-0.81,1.24-0.81v-0.97h-7.82V35.83L253.45,35.83z M283.43,35.83
		c0.97,0,1.4,0.27,1.4,0.81v20.16c0,0.54-0.43,0.81-1.4,0.81v0.97h21.13c0.86,0,1.51,0.11,1.51,0.7h0.97v-5.82h-0.97
		c0,0.7-0.65,1.13-1.51,1.13H290V36.64c0-0.54,0.43-0.81,1.24-0.81v-0.97h-7.82V35.83L283.43,35.83z M339.98,47.42l6.63,8.09
		c0.92,1.08,1.19,1.51,1.19,1.78c0,0.22-0.22,0.32-0.59,0.32v0.97h7.98v-0.97c-1.02-0.27-2.05-1.62-2.91-2.7l-8.52-10.57l9-7.28
		c0.86-0.7,1.35-1.02,1.94-1.24v-0.97h-8.9v0.81c0.32,0,0.86,0.22,0.86,0.59c0,0.54-5.98,5.12-10.89,9.17v-8.79
		c0-0.54,0.49-0.81,1.02-0.81v-0.97h-7.06v0.97c0.49,0,0.86,0.27,0.86,0.81v20.16c0,0.54-0.38,0.81-0.86,0.81v0.97h7.06v-0.97
		c-0.54,0-1.02-0.27-1.02-0.81v-6.04L339.98,47.42L339.98,47.42z M368.77,58.59v-0.97c-1.02,0-1.51-0.27-1.51-0.81V36.64
		c0-0.54,0.49-0.81,1.51-0.81v-0.97h-8.2v0.97c1.13,0,1.51,0.27,1.51,0.81v20.16c0,0.54-0.38,0.81-1.51,0.81v0.97H368.77
		L368.77,58.59z M383.76,58.59h6.96v-0.97c-0.54,0-0.97-0.27-0.97-0.81V38.85h7.01c0.54,0,1.19,0.27,1.19,0.92h0.97v-6.2h-0.97
		c0,1.02-0.65,1.29-1.19,1.29h-19.19c-0.54,0-1.19-0.27-1.19-1.29h-0.97v6.2h0.97c0-0.65,0.65-0.92,1.19-0.92h7.01v17.95
		c0,0.54-0.43,0.81-0.81,0.81V58.59L383.76,58.59z M427.92,36.97l-0.65-0.38c-0.27,0.16-0.49,0.43-0.86,0.43
		c-0.32,0-1.78-0.65-3.45-1.24c-1.62-0.59-3.88-1.24-6.69-1.24c-7.06,0-13.91,4.1-13.91,12.13s6.85,12.24,13.48,12.24
		c6.47,0,10.51-3.23,11.7-3.23c0.32,0,0.59,0.11,0.92,0.27l0.54-0.27l-3.99-5.72l-0.59,0.54c0.05,0.43,0.05,0.7,0.05,0.97
		c0,1.24-4.69,3.45-8.52,3.45c-4.21,0-8.41-3.18-8.41-8.36c0-5.23,3.67-8.03,8.79-8.03c4.31,0,7.39,1.89,7.39,2.64
		c0,0.22,0.05,0.32,0.05,0.49l0.59,0.43L427.92,36.97L427.92,36.97z M455.79,48.67v8.14c0,0.54-0.38,0.81-0.81,0.81v0.97h6.79v-0.97
		c-0.43,0-0.81-0.27-0.81-0.81V36.64c0-0.54,0.38-0.81,0.81-0.81v-0.97h-6.79v0.97c0.43,0,0.81,0.27,0.81,0.81v7.6h-14.45v-7.6
		c0-0.54,0.38-0.81,0.81-0.81v-0.97h-6.79v0.97c0.43,0,0.81,0.27,0.81,0.81v20.16c0,0.54-0.38,0.81-0.81,0.81v0.97h6.79v-0.97
		c-0.43,0-0.81-0.27-0.81-0.81v-8.14H455.79L455.79,48.67z M492.78,33.89h-0.97c0,0.54-0.54,0.97-1.67,0.97H471v0.97
		c0.38,0,0.81,0.27,0.81,0.81v20.16c0,0.54-0.43,0.81-0.81,0.81v0.97h19.79c0.86,0,1.51,0.11,1.51,0.75h0.97v-5.82h-0.97
		c0,0.65-0.65,1.08-1.51,1.08h-13.8v-6.36h7.87c1.4,0,2.32,0.11,2.1,0.86h1.08v-5.72h-0.97c0,0.75-0.54,0.86-1.78,0.86h-8.3v-5.39
		h13.16c1.13,0,1.67,0.27,1.67,1.02h0.97V33.89L492.78,33.89z M507.55,58.59v-0.97c-0.7,0-1.13-0.27-1.13-0.81V41.12l13.37,14.23
		c0.86,0.92,1.67,1.73,1.67,1.99c0,0.22-0.16,0.27-0.38,0.27v0.97h7.01v-0.97c-0.54,0-0.97-0.27-0.97-0.81V36.64
		c0-0.54,0.43-0.81,0.97-0.81v-0.97h-6.58v0.97c0.65,0,1.08,0.27,1.08,0.81v14.61l-12.94-13.69c-0.75-0.81-1.19-1.19-1.19-1.46
		c0-0.16,0.05-0.22,0.38-0.27v-0.97h-7.93v0.97c0.54,0,0.97,0.27,0.97,0.81v20.16c0,0.54-0.43,0.81-0.97,0.81v0.97H507.55
		L507.55,58.59z"/>
</g>
</svg>
