<svg width="210" height="182" viewBox="0 0 210 182" fill="none" xmlns="http://www.w3.org/2000/svg">
<path d="M39.8596 164.335L21.6967 157.336C19.7907 146.115 16.3321 120.826 16.3321 120.826C13.2834 121.582 3.99596 117.478 2.46069 117.478C-0.838833 107.13 -0.107009 95.163 0.618462 90.6957C4.38557 67.4985 16.2029 57.2373 22.3694 54.3488C27.1904 35.24 47.5183 0 105.112 0C172.811 0 187.854 53.3489 187.854 53.3489C190.433 55.3487 201.617 66.1149 206.702 78.5217C210.693 88.2609 208.61 113.246 207.93 119.913C207.689 121.348 193.806 120.826 193.806 120.826C193.806 120.826 193.923 141.217 190.121 157.336C182.445 160.087 179.374 161.913 171.373 164.335V179.667C171.373 181.533 169.579 182 168.682 182H124.413C121.722 182 120.421 182 120.421 179.724V172.899C118.392 172.868 90.0093 172.899 88.7952 172.899V179.724C88.7952 182 87.874 182 80.8944 182H42.5504C40.6668 182 39.9717 180.445 39.8596 179.667V164.335Z" fill="#EBF2F3"/>
<path fill-rule="evenodd" clip-rule="evenodd" d="M45.8917 158.94L25.7963 151.565C21.5848 135.07 20.8072 122.82 20.4807 118.498C20.4519 118.117 20.2695 118.087 19.9624 116.261C15.3567 116.87 18.7343 116.87 15.3567 116.87C11.9792 116.87 12.9003 116.87 8.29464 115.652C5.15472 114.435 5.15473 112.304 5.15473 108.957C5.15472 105.609 3.99598 94.3478 7.06645 84C10.1369 73.6522 20.9269 59.7215 26.6339 57.0455C31.0958 39.3427 49.9094 6.69565 103.212 6.69565C166.716 6.69565 179.79 56.1192 179.79 56.1192C182.177 57.9718 188.755 64.209 195.977 74.3367C204.204 85.8731 202.349 104.076 201.719 110.253C201.658 110.854 201.608 111.342 201.581 111.698C201.332 114.909 199.402 115.3 198.468 115.094H190.374C186.888 115.094 186.224 117.153 186.327 118.182C186.108 120.32 185.907 122.526 185.703 124.768L185.702 124.77L185.702 124.772C185.574 126.181 185.453 127.604 185.332 129.031C184.644 137.14 183.941 145.417 181.744 152.414C181.457 153.329 176.024 155.113 171.091 156.732C170.647 156.878 170.207 157.022 169.775 157.164C167.796 157.817 165.933 158.431 164.537 158.94V173.143C164.537 174.872 162.877 175.304 162.046 175.304H126.87C124.38 175.304 123.757 173.863 123.757 173.143V168.511C119.959 168.733 113.563 168.637 108.782 168.564L108.777 168.564C106.898 168.536 105.27 168.511 104.146 168.511C103.05 168.511 101.333 168.535 99.3147 168.562C93.9955 168.635 86.5889 168.735 82.978 168.511V173.143C82.978 174.625 81.5253 175.201 80.7989 175.304H48.382C46.6388 175.304 45.9954 173.863 45.8917 173.143V158.94ZM30.992 142.266C29.2629 135.473 26.6339 118.182 27.2565 101.508C28.3187 73.0607 39.397 24.9521 104.146 25.2609C168.895 25.5696 179.79 71.5577 179.79 103.052C179.79 128.248 177.715 137.223 176.677 142.266C164.952 148.03 133.283 159.434 104.146 158.94C75.0089 158.446 43.5475 147.618 30.992 142.266ZM104.146 149.965C77.9973 150.706 52.1948 141.648 38.6017 136.708C35.8 125.695 35.6544 110.253 35.8 103.052C36.114 87.5234 42.7373 58.5893 104.146 58.5893C158.761 58.5893 171.091 78.2876 171.091 103.052C171.091 110.253 170.709 125.078 169.775 135.473C158.569 139.899 130.295 149.224 104.146 149.965Z" fill="#0A2F38"/>
<path d="M59.2645 108.154V89.6719C59.2645 88.8926 59.9019 88.2608 60.6881 88.2608H77.492C78.2782 88.2608 78.9156 88.8926 78.9156 89.6719V108.154C78.9156 108.933 78.2782 109.565 77.492 109.565H60.6881C59.9019 109.565 59.2645 108.933 59.2645 108.154Z" fill="#8BFFBC"/>
<path fill-rule="evenodd" clip-rule="evenodd" d="M72.2932 74.1293V130.261H65.8869V74.1293H72.2932Z" fill="#8BFFBC"/>
<path d="M134.184 107.545V89.0633C134.184 88.2839 134.821 87.6522 135.608 87.6522H152.412C153.198 87.6522 153.835 88.2839 153.835 89.0633V107.545C153.835 108.325 153.198 108.957 152.412 108.957H135.608C134.821 108.957 134.184 108.325 134.184 107.545Z" fill="#8BFFBC"/>
<path fill-rule="evenodd" clip-rule="evenodd" d="M140.807 130.261L140.806 74.1293H147.213L147.213 130.261H140.807Z" fill="#8BFFBC"/>
<path d="M92.4256 133.111V121.933C92.4256 121.153 93.0629 120.522 93.8492 120.522H119.864C120.651 120.522 121.288 121.153 121.288 121.933V133.111C121.288 133.89 120.651 134.522 119.864 134.522H93.8492C93.0629 134.522 92.4256 133.89 92.4256 133.111Z" fill="#8BFFBC"/>
<path fill-rule="evenodd" clip-rule="evenodd" d="M103.517 138.174V88.2609H109.923V138.174L103.517 138.174Z" fill="#8BFFBC"/>
</svg>
