<svg id="Camada_1" data-name="Camada 1" xmlns="http://www.w3.org/2000/svg" viewBox="0 0 684 131.95"><title>LOGO_Dark</title><rect width="684" height="3" style="fill:#111"/><rect y="128.95" width="684" height="3" style="fill:#111"/><path d="M30,71.38V86.26a7,7,0,0,0,.61,3.25,3.51,3.51,0,0,0,1.67,1.61,9.18,9.18,0,0,0,3,.62c1.28.09,2.48.16,3.58.21v1.93H13.3V92a31.23,31.23,0,0,0,4.27-.32,4.56,4.56,0,0,0,2.25-.95,3.49,3.49,0,0,0,1.12-1.8,12.14,12.14,0,0,0,.3-3V54.91a30,30,0,0,0-.34-5.48,3.28,3.28,0,0,0-2-2.38,14.35,14.35,0,0,0-5.6-.78V44.34H37.46c1.07,0,3.65.19,7.72.56a13.72,13.72,0,0,1,4.2,1.16,16.3,16.3,0,0,1,4.17,2.69,13.4,13.4,0,0,1,3.15,4,11,11,0,0,1,1.19,5.07,12.28,12.28,0,0,1-1.21,5.51A11.44,11.44,0,0,1,53,67.62a19,19,0,0,1-6.32,2.77,35.5,35.5,0,0,1-8.87,1ZM22.36,54.49v33q0,3.33-2.56,4.46h.91q3.9,0,3.9-3.69V56.14c0-2.88,0-4.76-.05-5.65a6.64,6.64,0,0,0-.46-2.29,2.57,2.57,0,0,0-1.44-1.38,11.11,11.11,0,0,0-3.18-.62,4.82,4.82,0,0,1,2,1.51,5.53,5.53,0,0,1,.74,2.39A43.86,43.86,0,0,1,22.36,54.49ZM30,69.44h4.91a21.75,21.75,0,0,0,7.41-1.07,8.6,8.6,0,0,0,4.53-3.61,12.88,12.88,0,0,0,1.58-6.83q0-6.42-4.32-9.62a9.25,9.25,0,0,0-3.47-1.65,20.5,20.5,0,0,0-4.36-.39,8.19,8.19,0,0,0-4.3.85,3.75,3.75,0,0,0-1.65,2.52,28.07,28.07,0,0,0-.33,5Zm13.45-.38a9.23,9.23,0,0,0,6.28-3.34q2.07-2.7,2.07-7.65c0-3.49-.7-6.1-2.1-7.85a10.62,10.62,0,0,0-6.32-3.49,10.85,10.85,0,0,1,5.51,6.53,15.75,15.75,0,0,1,.7,4.81Q49.57,66.43,43.43,69.06Z" transform="translate(-10.64 -9.92)" style="fill:#111"/><path d="M87.1,93.88H62.77V92a21.41,21.41,0,0,0,5.06-.55,3.38,3.38,0,0,0,2.26-1.7,9.08,9.08,0,0,0,.61-3.86V53.05a12.46,12.46,0,0,0-.52-4.18A3.31,3.31,0,0,0,68,46.94a19.53,19.53,0,0,0-5.25-.67V44.34h27.7a21.71,21.71,0,0,1,9.15,1.81A13.8,13.8,0,0,1,105.51,51a11.47,11.47,0,0,1,2,6.48,11.28,11.28,0,0,1-.92,4.44A12.47,12.47,0,0,1,104,65.79a16.11,16.11,0,0,1-4.16,3,19.26,19.26,0,0,1-5.67,1.77,87.47,87.47,0,0,1,6,6.84l3.47,4.11.71.79,1.09,1.21q1.68,2,2.84,3.36c.77.87,1.54,1.66,2.3,2.37a13.34,13.34,0,0,0,2.23,1.7A10.09,10.09,0,0,0,115,92v1.93h-6.6a9.31,9.31,0,0,1-4.24-1,15,15,0,0,1-3.85-2.83,51.07,51.07,0,0,1-4.19-4.81L91.24,79a75.46,75.46,0,0,0-5.07-6.12,4.54,4.54,0,0,0-2.9-1.71H79.38V86.05a8.71,8.71,0,0,0,.56,3.48,3.55,3.55,0,0,0,2.45,1.82,17.13,17.13,0,0,0,2.5.46A14.63,14.63,0,0,0,87.1,92ZM71.83,52.77V87.42q0,3.3-2.42,4.53Q74,91.85,74,88.4V53a21.75,21.75,0,0,0-.29-4.09,3.06,3.06,0,0,0-1.37-2,5.79,5.79,0,0,0-3.29-.57,3.9,3.9,0,0,1,2.3,2.13A14,14,0,0,1,71.83,52.77Zm7.55.63V69.23h5.68a18,18,0,0,0,5.69-.93A10.93,10.93,0,0,0,95,66q2.88-2.7,2.88-8.25,0-6.57-4.46-9.66a9.16,9.16,0,0,0-3.3-1.44,23,23,0,0,0-4.39-.35,9.13,9.13,0,0,0-4.09.72,3.57,3.57,0,0,0-1.83,2.18A15.68,15.68,0,0,0,79.38,53.4Zm9.16,17.76H85.66A20.91,20.91,0,0,1,88.59,74q1.66,1.89,4.2,5.12t5.09,6.57a28.32,28.32,0,0,0,4.35,4.58,10.79,10.79,0,0,0,3.55,2,13.4,13.4,0,0,0,3.3.53A17.43,17.43,0,0,1,104.9,90a44.53,44.53,0,0,1-4.3-4.67q-2.3-2.83-4.74-6c-1.63-2.09-3.31-4-5-5.9-.23-.33-.52-.7-.86-1.11A5.81,5.81,0,0,0,88.54,71.16Zm3.09-2.1a11,11,0,0,0,7.23-3.51,11.64,11.64,0,0,0,2.53-7.9,12.15,12.15,0,0,0-2.25-7.71,9.48,9.48,0,0,0-6.39-3.46,11.09,11.09,0,0,1,4.72,4.34A14.52,14.52,0,0,1,99,58.07q0,4.77-1.85,7.16A12.54,12.54,0,0,1,91.63,69.06Z" transform="translate(-10.64 -9.92)" style="fill:#111"/><path d="M151.28,85.24l-3.94-10h-16.6l-2.32,6a12.61,12.61,0,0,0-.91,4.74A6.29,6.29,0,0,0,129,90.05a5.39,5.39,0,0,0,4.16,1.9v1.93H116.91V92q5.43-.81,8.77-9.38l12.15-31.1a5.7,5.7,0,0,0-2-2.23,8.28,8.28,0,0,0-3.09-.79V46.73l8.42-2.88h3.23l16.26,41.46a13,13,0,0,0,2.81,4.76A9.43,9.43,0,0,0,167.74,92v1.93H146.89V92a15.58,15.58,0,0,0,4.05-.84,2.14,2.14,0,0,0,1.35-2.18A9.83,9.83,0,0,0,151.28,85.24ZM120.66,92h6.74a5.28,5.28,0,0,1-2.21-4.32,7.08,7.08,0,0,1,.07-1.16,21.27,21.27,0,0,1-1.91,3A13.76,13.76,0,0,1,120.66,92Zm10.92-19h14.89L139,54Zm22.89,11L141.94,52.17a10.07,10.07,0,0,0-1.9-3.39,3.64,3.64,0,0,0-2.7-1,8.1,8.1,0,0,0-1.65.14,5.61,5.61,0,0,1,2.54,1.86,14.31,14.31,0,0,1,1.64,3.2l12.42,31.77a12.39,12.39,0,0,1,1.16,4.39,2.29,2.29,0,0,1-.38,1.47A11,11,0,0,1,151.52,92h.77a3.48,3.48,0,0,0,2.55-.88,2.77,2.77,0,0,0,.89-2.07A15.94,15.94,0,0,0,154.47,83.94Z" transform="translate(-10.64 -9.92)" style="fill:#111"/><path d="M200.11,93.88H172.27V92a18.45,18.45,0,0,0,4.42-.55,3.22,3.22,0,0,0,2.09-1.63,7.85,7.85,0,0,0,.62-3.51V50.94c0-1.73-.56-2.9-1.69-3.51a14.09,14.09,0,0,0-5.44-1.16V44.34h29a28.34,28.34,0,0,1,10.41,1.86,23.76,23.76,0,0,1,8.18,5.25,23.44,23.44,0,0,1,5.28,8,26.54,26.54,0,0,1,1.86,10,24.52,24.52,0,0,1-1.91,9.71,22.57,22.57,0,0,1-5.49,7.78A25.17,25.17,0,0,1,211,92.05,31.49,31.49,0,0,1,200.11,93.88Zm-17.24-7.41V54a15.82,15.82,0,0,0-.77-5.88c-.51-1.13-1.85-1.71-4-1.74a4,4,0,0,1,2,1.92,9.51,9.51,0,0,1,.48,3.49V85.59a18.57,18.57,0,0,1-.25,3.41,4.37,4.37,0,0,1-.74,1.86A4,4,0,0,1,178.1,92c1.78,0,3-.43,3.72-1.28A6.67,6.67,0,0,0,182.87,86.47Zm5.37-30V84.75a16.24,16.24,0,0,0,.43,4.44,3.25,3.25,0,0,0,2,2.07,13.77,13.77,0,0,0,5.12.69,27.49,27.49,0,0,0,6.85-.79,17.55,17.55,0,0,0,5.76-2.76,20.34,20.34,0,0,0,5-5,18.41,18.41,0,0,0,2.65-6.11,32.64,32.64,0,0,0,.83-7.64q0-12.53-7.34-18.78a17.52,17.52,0,0,0-6.46-3.54,29.2,29.2,0,0,0-8.36-1.06c-2.2,0-3.75.33-4.65,1A3.92,3.92,0,0,0,188.51,50,50.72,50.72,0,0,0,188.24,56.42ZM204.64,92a16.22,16.22,0,0,0,8.07-3.09,17.71,17.71,0,0,0,5.67-7.48,29,29,0,0,0,2.09-11.58,36.37,36.37,0,0,0-1-8.85,23.15,23.15,0,0,0-2.93-7,15.93,15.93,0,0,0-4.7-4.79,13.67,13.67,0,0,0-3.37-1.65,33,33,0,0,0-3.83-1Q218.08,51.86,218.09,70a30.09,30.09,0,0,1-1.43,9.65A18.68,18.68,0,0,1,212.22,87,23.23,23.23,0,0,1,204.64,92Z" transform="translate(-10.64 -9.92)" style="fill:#111"/><path d="M233.11,68.92a29.1,29.1,0,0,1,.6-6,26.43,26.43,0,0,1,1.75-5.4,23.94,23.94,0,0,1,2.92-4.81,24.64,24.64,0,0,1,3.86-4,22.21,22.21,0,0,1,4.91-3,23.59,23.59,0,0,1,5.71-1.74,38,38,0,0,1,6.58-.55,28,28,0,0,1,10.78,2,24,24,0,0,1,8.3,5.54,24.88,24.88,0,0,1,5.25,8.17,27,27,0,0,1-.19,20,24.73,24.73,0,0,1-5.72,8.28,26.47,26.47,0,0,1-8.69,5.48,29.29,29.29,0,0,1-10.75,2,26.52,26.52,0,0,1-10.11-1.92A23.37,23.37,0,0,1,235,79.31,28.57,28.57,0,0,1,233.11,68.92Zm13-21.63a24.22,24.22,0,0,0-8.85,9.15,25.91,25.91,0,0,0-3,12.55,27.42,27.42,0,0,0,2,10.58A22.12,22.12,0,0,0,242,87.79a26.37,26.37,0,0,0,9.48,5.28,28.36,28.36,0,0,1-11-9.65q-4.06-6.15-4.07-15.06a28.1,28.1,0,0,1,1.07-8,24.57,24.57,0,0,1,3.23-6.76A40.3,40.3,0,0,1,246.14,47.29Zm-3.3,17.91a47,47,0,0,0,1.26,11.23,29.44,29.44,0,0,0,3.62,8.83,17.18,17.18,0,0,0,5.56,5.65,13.11,13.11,0,0,0,6.93,2,13.71,13.71,0,0,0,6-1.35,14.05,14.05,0,0,0,5-4.06,19.63,19.63,0,0,0,3.32-6.68,33,33,0,0,0,1.17-9.25,40,40,0,0,0-1.35-10.66,26.58,26.58,0,0,0-3.76-8.32,17.69,17.69,0,0,0-5.67-5.3,13.83,13.83,0,0,0-7-1.88,13.31,13.31,0,0,0-6,1.41,13.53,13.53,0,0,0-4.79,4,20,20,0,0,0-3.09,6.27A28,28,0,0,0,242.84,65.2Zm21.62-19.35a20.33,20.33,0,0,1,6.76,5.81,26,26,0,0,1,4.2,8.87,43.38,43.38,0,0,1,1.4,11.34A29,29,0,0,1,275.22,82a23.9,23.9,0,0,1-4.51,7.6,20.16,20.16,0,0,0,4.76-4.93,19.93,19.93,0,0,0,2.72-6.25,32.69,32.69,0,0,0,.88-7.88A36.63,36.63,0,0,0,277.33,59a22.6,22.6,0,0,0-5.06-8.73A15.15,15.15,0,0,0,264.46,45.85Z" transform="translate(-10.64 -9.92)" style="fill:#111"/><path d="M321,94.83a12.22,12.22,0,0,1-6.36-1.67,12,12,0,0,1-4.39-4.48,11.8,11.8,0,0,1-1.58-5.86,11.31,11.31,0,0,1,.77-4.19A14.27,14.27,0,0,1,311.59,75a37.38,37.38,0,0,1,3.64-3.8,44.73,44.73,0,0,1,6-4.88q-5.76-6.27-5.76-9.86a7.6,7.6,0,0,1,1.4-3.93,23.37,23.37,0,0,1,3.65-4.34,21.82,21.82,0,0,1,4.76-3.44A10.07,10.07,0,0,1,330,43.39a7.28,7.28,0,0,1,3.44.81,8.79,8.79,0,0,1,2.67,2.14,10.83,10.83,0,0,1,1.74,2.8,6.91,6.91,0,0,1,.61,2.68,6.08,6.08,0,0,1-1.21,3.55,14.87,14.87,0,0,1-2.77,3q-1.56,1.26-5.29,4a106.9,106.9,0,0,1,7,8.56c1.94,2.65,3.61,5.07,5,7.27a39.68,39.68,0,0,0,3.93-6A10.09,10.09,0,0,0,346.51,68a3.71,3.71,0,0,0-1.42-2.92,5.83,5.83,0,0,0-3.85-1.19V62h16.92V63.9a9.33,9.33,0,0,0-4.89,2.33,30.48,30.48,0,0,0-4.57,5.08q-2.26,3.07-6.09,8.77l2.18,3.3A27.87,27.87,0,0,0,348.3,88a4,4,0,0,0,2.81,1.18c1.82,0,3.5-1.42,5-4.25l1.72.81a20.33,20.33,0,0,1-2.92,5.14,11.13,11.13,0,0,1-3.56,3,8.92,8.92,0,0,1-4.09,1,8.69,8.69,0,0,1-5.42-2.14,21.12,21.12,0,0,1-4.87-5.8,28.68,28.68,0,0,1-8,5.85A18.52,18.52,0,0,1,321,94.83Zm2.8-1.44a14.42,14.42,0,0,1-8.69-4.08A11.37,11.37,0,0,1,311.79,81a9.47,9.47,0,0,1,.44-3.21,37.47,37.47,0,0,1,1.63-3.6,18.68,18.68,0,0,0-3,3.95,9.61,9.61,0,0,0-1.05,4.62,10.08,10.08,0,0,0,1.6,5.58,11.14,11.14,0,0,0,4.16,3.88,10.87,10.87,0,0,0,5.26,1.39A24.78,24.78,0,0,0,323.79,93.39Zm12-8.22c-.49-.75-1.32-2-2.49-3.74S331.1,78.2,330.2,77s-2-2.7-3.4-4.39-2.76-3.27-4.16-4.73a26.41,26.41,0,0,0-5,5.31,9.18,9.18,0,0,0-1.53,5.12,10.68,10.68,0,0,0,1.53,5.44A12.46,12.46,0,0,0,321.72,88a9.61,9.61,0,0,0,5.3,1.63Q331.87,89.63,335.8,85.17Zm17.45,6a9.2,9.2,0,0,1-3.51.81A7.84,7.84,0,0,1,345,90.46a16.74,16.74,0,0,1-3.58-3.6q-1.47-2-5.58-8-3.09-4.48-5.74-7.69T324,64.07a52.35,52.35,0,0,1-4.69-5.88A7.08,7.08,0,0,1,318,54.42a8.76,8.76,0,0,1,.77-2.67,8,8,0,0,0-2.14,4.74,6.73,6.73,0,0,0,1.26,3.62A62.74,62.74,0,0,0,322.6,66q3.4,3.92,6.06,7.09a85,85,0,0,1,5.46,7.46c1.42,2.13,2.65,4,3.66,5.5a39.62,39.62,0,0,0,3,4A11.71,11.71,0,0,0,344,92.65a7.24,7.24,0,0,0,3.61.95A8.61,8.61,0,0,0,353.25,91.21ZM327.8,61Q332,57.86,332,55.47a6.17,6.17,0,0,0-1.08-3,12.37,12.37,0,0,0-2.69-3.11,4.89,4.89,0,0,0-3-1.32,4,4,0,0,0-2.91,1.3,3.81,3.81,0,0,0-1.26,2.6,4.24,4.24,0,0,0,.5,2,12.53,12.53,0,0,0,1.67,2.3c.77.87,1.51,1.65,2.21,2.33S326.93,60,327.8,61ZM333,56.28a4.81,4.81,0,0,0,.37-6.46,9.54,9.54,0,0,0-2.65-2.53,5.55,5.55,0,0,0-3-1,7.73,7.73,0,0,0-2.67.74,7,7,0,0,1,4,1.67,12.87,12.87,0,0,1,3,3.44A6.55,6.55,0,0,1,333.2,55a2.54,2.54,0,0,1,0,.46,2.38,2.38,0,0,0-.07.31C333.07,55.87,333,56.05,333,56.28Zm19.49,7.62h-7.27a4.14,4.14,0,0,1,2.46,4,1.66,1.66,0,0,1-.09.5,1.6,1.6,0,0,0-.09.49A15.25,15.25,0,0,1,352.48,63.9Z" transform="translate(-10.64 -9.92)" style="fill:#111"/><path d="M407.63,93.88H379V92h.81a9.15,9.15,0,0,0,4.69-.9,3.5,3.5,0,0,0,1.7-2.35,27.29,27.29,0,0,0,.28-4.69V52.91a14.19,14.19,0,0,0-.44-4.06,3.13,3.13,0,0,0-2-2,14.89,14.89,0,0,0-5.06-.62V44.34h27.49a22,22,0,0,1,6.71,1A15.54,15.54,0,0,1,418.34,48a12.34,12.34,0,0,1,3.28,4,10.69,10.69,0,0,1,1.18,4.95,9.84,9.84,0,0,1-1.48,5.28,11.48,11.48,0,0,1-4.49,4,22,22,0,0,1-7.34,2.27q7.1.94,10.88,4.4a11.2,11.2,0,0,1,3.8,8.62A10.69,10.69,0,0,1,423,86.45a11.68,11.68,0,0,1-3.34,3.94A16.05,16.05,0,0,1,414.41,93,23.81,23.81,0,0,1,407.63,93.88Zm-17.76-7.69V50.94a5.49,5.49,0,0,0-.95-3.53q-.94-1.14-3.51-1.14h-.74A3.64,3.64,0,0,1,387,47.94a8.54,8.54,0,0,1,.63,3.81V86.4a7.64,7.64,0,0,1-.69,3.79A4.45,4.45,0,0,1,384.67,92h1c1.82,0,3-.55,3.46-1.63A10.3,10.3,0,0,0,389.87,86.19Zm5.37-18.78h6.56q4.74,0,6.95-1.13A7.65,7.65,0,0,0,412,62.72a12.57,12.57,0,0,0,1.24-5.67,13.75,13.75,0,0,0-.79-4.72,9.34,9.34,0,0,0-2.23-3.6,6.86,6.86,0,0,0-3.31-2,21.67,21.67,0,0,0-4.87-.44q-4,0-5.42,1.23c-1,.82-1.42,2.24-1.42,4.25Zm0,2v17.1a7.71,7.71,0,0,0,.42,2.83A3.39,3.39,0,0,0,397.08,91a6.25,6.25,0,0,0,2.48.81,34.57,34.57,0,0,0,4,.19,12.56,12.56,0,0,0,6-1.28A8.17,8.17,0,0,0,413.12,87a13.56,13.56,0,0,0,1.18-6A13.41,13.41,0,0,0,413,74.83a9.51,9.51,0,0,0-3.81-4,11.66,11.66,0,0,0-5.92-1.43Zm13,.07a10.79,10.79,0,0,1,5.36,4.15,13.28,13.28,0,0,1,1.84,7.4q0,8.79-7.06,11.24a9.69,9.69,0,0,0,6.87-3.53q2.33-3,2.33-8.2a11.73,11.73,0,0,0-2.47-7.77A9.39,9.39,0,0,0,408.26,69.44Zm.42-2q8-2.07,8-10.57a13.78,13.78,0,0,0-.91-5.07A9.07,9.07,0,0,0,413,48a8.39,8.39,0,0,0-4.55-1.72,8.74,8.74,0,0,1,4.43,4.06,14.35,14.35,0,0,1,1.54,6.9Q414.44,64.6,408.68,67.41Z" transform="translate(-10.64 -9.92)" style="fill:#111"/><path d="M445.23,69.37V84.82a16.52,16.52,0,0,0,.37,4,3.51,3.51,0,0,0,1.35,2.1,5.85,5.85,0,0,0,2.83.86c1.23.12,2.9.18,5,.18a19.17,19.17,0,0,0,6.94-1.18,20,20,0,0,0,5.79-3.47,52.65,52.65,0,0,0,5.95-6.13h2.81l-4.39,12.71H428.69V92a19.6,19.6,0,0,0,4.76-.55,3.81,3.81,0,0,0,2.32-1.58,5.93,5.93,0,0,0,.68-3.14V52a7.65,7.65,0,0,0-.63-3.58,3.27,3.27,0,0,0-2.14-1.53,27,27,0,0,0-5-.58V44.34h41.5l4.25,11.2h-2.53a24.1,24.1,0,0,0-5-4.65,25.83,25.83,0,0,0-6.56-3.35,23,23,0,0,0-7.67-1.27,12.81,12.81,0,0,0-4.81.69,3.72,3.72,0,0,0-2.14,1.91,8.34,8.34,0,0,0-.53,3.23V67.41h7.06q9.22,0,9.34-8.46h2.45v18.6h-2.17c-.28-2.85-1.09-4.93-2.41-6.23s-3.34-1.95-6.05-1.95Zm-7.62-17.13V86.19A9,9,0,0,1,437,90a5.28,5.28,0,0,1-1.8,2q2.92,0,3.78-1.53a10.16,10.16,0,0,0,.86-4.83v-34c0-2-.34-3.31-1-4a5.51,5.51,0,0,0-3.62-1,4.14,4.14,0,0,1,1.85,1.88A9.57,9.57,0,0,1,437.61,52.24ZM461.2,71.66V64.77a8.15,8.15,0,0,1-5,3.45,10.77,10.77,0,0,1,3,1.26A6,6,0,0,1,461.2,71.66Zm5.69-25.39h-6.35a23.68,23.68,0,0,1,4.67,2.11,51.5,51.5,0,0,1,4.31,2.95ZM468.4,92l2.42-6.11a20.86,20.86,0,0,1-3.75,3.35q-1.69,1.11-4.78,2.76Z" transform="translate(-10.64 -9.92)" style="fill:#111"/><path d="M523.41,43.68h2.88V59.23h-2.17a38,38,0,0,0-3.57-6.06,23,23,0,0,0-4-4.35,15.6,15.6,0,0,0-4.5-2.6,14.63,14.63,0,0,0-5.05-.86A13.58,13.58,0,0,0,500.31,47a15,15,0,0,0-5.09,4.67,23.81,23.81,0,0,0-3.28,7.39,35.81,35.81,0,0,0-1.18,9.31,30.81,30.81,0,0,0,2.32,12.28A19.64,19.64,0,0,0,499.56,89,15.77,15.77,0,0,0,509,92a18.86,18.86,0,0,0,6.3-1.07,20.1,20.1,0,0,0,5.81-3.27,27.62,27.62,0,0,0,5.16-5.46l2.07,1.16A26.37,26.37,0,0,1,518.85,92a27.24,27.24,0,0,1-12.78,2.9,26.82,26.82,0,0,1-10.36-2,24.3,24.3,0,0,1-13.46-13.69,26.59,26.59,0,0,1-1.84-9.87,27.08,27.08,0,0,1,2-10.44,24.67,24.67,0,0,1,13.71-13.66A26.16,26.16,0,0,1,506,43.39a21.22,21.22,0,0,1,3.67.3q1.71.3,4.05.93c1.57.43,2.63.7,3.18.83a8.43,8.43,0,0,0,1.92.19A6,6,0,0,0,523.41,43.68Zm-24.54,1.54a31.33,31.33,0,0,0-8.91,5A21.6,21.6,0,0,0,486.41,54a24.7,24.7,0,0,0-4.26,9.64,25.9,25.9,0,0,0-.58,5.39,26.4,26.4,0,0,0,2.59,11.67,22.64,22.64,0,0,0,7.76,8.88,26.68,26.68,0,0,0,12.29,4.34,31,31,0,0,1-8.51-3.62,25.42,25.42,0,0,1-6.53-5.72,23.92,23.92,0,0,1-4-7.25,24.85,24.85,0,0,1-1.35-8.16,25.36,25.36,0,0,1,1.16-7.37,23.93,23.93,0,0,1,3.23-6.85A28.15,28.15,0,0,1,493,49.43,56.64,56.64,0,0,1,498.87,45.22Zm23.18,7.3-.22-6a8.26,8.26,0,0,1-3.47.74,8.6,8.6,0,0,1-1.65-.14,23.93,23.93,0,0,1,3,2.65C520.49,50.66,521.27,51.56,522.05,52.52Z" transform="translate(-10.64 -9.92)" style="fill:#111"/><path d="M561.58,46.27V44.34h21v1.93a17.32,17.32,0,0,0-4.79,1.41A27.09,27.09,0,0,0,573,50.47c-1.59,1.13-3.39,2.57-5.41,4.3l-8.46,7.48,18.61,23.27a40.72,40.72,0,0,0,3.3,3.79A8.82,8.82,0,0,0,586.47,92v1.93H562.88V92q5.61,0,5.61-2.53a3.46,3.46,0,0,0-.56-1.81,18.83,18.83,0,0,0-1.51-2.09l-13.9-17.37-4.39,3.93V85.52a9,9,0,0,0,.86,4.39,3.78,3.78,0,0,0,3.11,1.76c.77,0,1.41.1,1.91.16s.94.1,1.32.12v1.93h-24V92h1.09a10.77,10.77,0,0,0,4.57-.74,3.47,3.47,0,0,0,1.89-2.12,13.24,13.24,0,0,0,.42-3.71v-33a9.65,9.65,0,0,0-.52-3.6,3.59,3.59,0,0,0-2.23-1.87,15.78,15.78,0,0,0-5.22-.64V44.34h24v1.93h-.49c-2.74,0-4.55.44-5.41,1.3s-1.3,2.33-1.3,4.39V69.44L562.38,56.7a26.63,26.63,0,0,0,3.6-3.77,5.29,5.29,0,0,0,1.21-3.11,3.24,3.24,0,0,0-1.1-2.56,4.57,4.57,0,0,0-3.14-1ZM542.76,85.84V52.66c0-2.57-.28-4.29-.84-5.14s-1.92-1.27-4.08-1.25a4,4,0,0,1,2.2,1.9,16.82,16.82,0,0,1,.47,5.09V86.4a8.45,8.45,0,0,1-.58,3.72A4.39,4.39,0,0,1,537.56,92h.88a5.14,5.14,0,0,0,3-.69,2.68,2.68,0,0,0,1.09-1.86A25.63,25.63,0,0,0,542.76,85.84Zm26.51-2.11L555.05,65.9l-1.58,1.44L566.7,84.19a26.14,26.14,0,0,1,2.23,3,4.55,4.55,0,0,1,.72,2.35A2.66,2.66,0,0,1,567.93,92h.91a3.18,3.18,0,0,0,2.29-.84,2.67,2.67,0,0,0,.87-2C572,87.81,571.09,86,569.27,83.73ZM575,46.27H566.7a3.93,3.93,0,0,1,1.65,3,5.14,5.14,0,0,1-.52,2.18q2.38-2.17,3.75-3.25A16.09,16.09,0,0,1,575,46.27Z" transform="translate(-10.64 -9.92)" style="fill:#111"/><path d="M605.5,69.37V84.82a16.52,16.52,0,0,0,.37,4,3.47,3.47,0,0,0,1.35,2.1,5.77,5.77,0,0,0,2.82.86q1.85.18,5,.18A19.08,19.08,0,0,0,622,90.77a20.13,20.13,0,0,0,5.8-3.47,53.48,53.48,0,0,0,6-6.13h2.81l-4.39,12.71H589V92a19.67,19.67,0,0,0,4.76-.55A3.81,3.81,0,0,0,596,89.82a6,6,0,0,0,.68-3.14V52a7.65,7.65,0,0,0-.63-3.58A3.3,3.3,0,0,0,594,46.85a27,27,0,0,0-5-.58V44.34h41.5l4.24,11.2h-2.52a24.36,24.36,0,0,0-5-4.65,25.83,25.83,0,0,0-6.56-3.35A23.09,23.09,0,0,0,613,46.27a12.85,12.85,0,0,0-4.81.69A3.75,3.75,0,0,0,606,48.87a8.36,8.36,0,0,0-.52,3.23V67.41h7q9.24,0,9.34-8.46h2.46v18.6h-2.18q-.42-4.27-2.4-6.23c-1.33-1.3-3.34-1.95-6.06-1.95Zm-7.62-17.13V86.19a8.84,8.84,0,0,1-.6,3.76,5.25,5.25,0,0,1-1.79,2c1.94,0,3.2-.53,3.77-1.53a10,10,0,0,0,.86-4.83v-34c0-2-.33-3.31-1-4a5.53,5.53,0,0,0-3.62-1,4.07,4.07,0,0,1,1.84,1.88A9.35,9.35,0,0,1,597.88,52.24Zm23.59,19.42V64.77a8.14,8.14,0,0,1-5,3.45,10.85,10.85,0,0,1,3.06,1.26A6.1,6.1,0,0,1,621.47,71.66Zm5.69-25.39H620.8a23.42,23.42,0,0,1,4.67,2.11,50,50,0,0,1,4.32,2.95ZM628.67,92l2.42-6.11a20.54,20.54,0,0,1-3.76,3.35q-1.68,1.11-4.77,2.76Z" transform="translate(-10.64 -9.92)" style="fill:#111"/><path d="M663.84,93.88H639.51V92a21.27,21.27,0,0,0,5.06-.55,3.38,3.38,0,0,0,2.26-1.7,9.06,9.06,0,0,0,.62-3.86V53.05a12.41,12.41,0,0,0-.53-4.18,3.31,3.31,0,0,0-2.16-1.93,19.53,19.53,0,0,0-5.25-.67V44.34h27.7a21.71,21.71,0,0,1,9.15,1.81,13.77,13.77,0,0,1,5.9,4.81,11.54,11.54,0,0,1,2,6.48,11.27,11.27,0,0,1-.91,4.44,12.64,12.64,0,0,1-2.63,3.91,16.28,16.28,0,0,1-4.16,3,19.26,19.26,0,0,1-5.67,1.77,87.7,87.7,0,0,1,6,6.84l3.48,4.11.7.79,1.09,1.21q1.68,2,2.84,3.36c.78.87,1.54,1.66,2.3,2.37a13.76,13.76,0,0,0,2.23,1.7,10.17,10.17,0,0,0,2.32,1v1.93h-6.6a9.35,9.35,0,0,1-4.25-1,15.18,15.18,0,0,1-3.84-2.83,52.47,52.47,0,0,1-4.2-4.81L668,79a73,73,0,0,0-5.08-6.12A4.52,4.52,0,0,0,660,71.16h-3.9V86.05a8.89,8.89,0,0,0,.56,3.48,3.6,3.6,0,0,0,2.46,1.82,17.23,17.23,0,0,0,2.49.46,14.69,14.69,0,0,0,2.21.14ZM648.57,52.77V87.42q0,3.3-2.42,4.53,4.61-.11,4.6-3.55V53a20.77,20.77,0,0,0-.3-4.09,3.06,3.06,0,0,0-1.37-2,5.75,5.75,0,0,0-3.28-.57,3.93,3.93,0,0,1,2.3,2.13A14.44,14.44,0,0,1,648.57,52.77Zm7.55.63V69.23h5.69a17.93,17.93,0,0,0,5.68-.93A10.86,10.86,0,0,0,671.74,66q2.88-2.7,2.88-8.25,0-6.57-4.46-9.66a9.09,9.09,0,0,0-3.3-1.44,22.87,22.87,0,0,0-4.39-.35,9.16,9.16,0,0,0-4.09.72,3.52,3.52,0,0,0-1.82,2.18A15.61,15.61,0,0,0,656.12,53.4Zm9.16,17.76h-2.87A21.47,21.47,0,0,1,665.34,74q1.67,1.89,4.19,5.12c1.69,2.16,3.38,4.35,5.09,6.57A27.9,27.9,0,0,0,679,90.28a10.76,10.76,0,0,0,3.54,2,13.4,13.4,0,0,0,3.3.53A17.63,17.63,0,0,1,681.64,90a46.8,46.8,0,0,1-4.3-4.67q-2.3-2.83-4.74-6c-1.62-2.09-3.3-4-5-5.9q-.36-.49-.87-1.11A5.63,5.63,0,0,0,665.28,71.16Zm3.09-2.1a11,11,0,0,0,7.24-3.51,11.69,11.69,0,0,0,2.52-7.9,12.21,12.21,0,0,0-2.24-7.71,9.48,9.48,0,0,0-6.39-3.46,11.15,11.15,0,0,1,4.72,4.34,14.53,14.53,0,0,1,1.56,7.25q0,4.77-1.84,7.16A12.57,12.57,0,0,1,668.37,69.06Z" transform="translate(-10.64 -9.92)" style="fill:#111"/><path d="M278.26,117.12h2.18l3.41,10.47h-2l-1.6-5.57c-.33-1.11-.64-2.3-.94-3.45h-.07c-.29,1.16-.59,2.34-.93,3.45l-1.6,5.57h-1.9Zm-1.39,6.18h4.93v1.46h-4.93Z" transform="translate(-10.64 -9.92)" style="fill:#111"/><path d="M289.2,123.67c0-2.56,1.61-4.13,3.33-4.13a2.89,2.89,0,0,1,2.06.86l-.07-1.27v-2.85h1.84v11.31h-1.51l-.14-.85h0a3.29,3.29,0,0,1-2.23,1C290.47,127.78,289.2,126.26,289.2,123.67Zm5.32,1.71v-3.67a2.32,2.32,0,0,0-1.6-.65c-1,0-1.83,1-1.83,2.59s.66,2.61,1.79,2.61A2.09,2.09,0,0,0,294.52,125.38Z" transform="translate(-10.64 -9.92)" style="fill:#111"/><path d="M302.41,119.73h1.87l1.25,4.08c.22.77.45,1.58.66,2.37h.07c.22-.79.45-1.6.66-2.37l1.25-4.08H310l-2.67,7.86h-2.13Z" transform="translate(-10.64 -9.92)" style="fill:#111"/><path d="M315.39,123.67a3.76,3.76,0,1,1,3.74,4.11A3.81,3.81,0,0,1,315.39,123.67Zm5.58,0c0-1.58-.69-2.63-1.84-2.63s-1.85,1-1.85,2.63.69,2.61,1.85,2.61S321,125.24,321,123.67Z" transform="translate(-10.64 -9.92)" style="fill:#111"/><path d="M328.84,129a2,2,0,0,1,1.13-1.68v-.06a1.5,1.5,0,0,1-.71-1.31,1.92,1.92,0,0,1,.87-1.47v-.07a2.59,2.59,0,0,1-1-2.07,2.86,2.86,0,0,1,3.11-2.82,3.4,3.4,0,0,1,1.16.19h2.81v1.37h-1.43a2,2,0,0,1,.45,1.32,2.68,2.68,0,0,1-3,2.68,2.9,2.9,0,0,1-1.06-.21.9.9,0,0,0-.39.75c0,.45.32.72,1.27.72h1.4c1.88,0,2.88.58,2.88,1.94,0,1.55-1.62,2.77-4.19,2.77C330.23,131.07,328.84,130.4,328.84,129Zm5.68-.42c0-.61-.48-.79-1.38-.79h-1.08a4.14,4.14,0,0,1-1.07-.11,1.3,1.3,0,0,0-.6,1c0,.71.76,1.13,2,1.13S334.52,129.27,334.52,128.6Zm-1-6.24a1.38,1.38,0,1,0-2.73,0,1.38,1.38,0,1,0,2.73,0Z" transform="translate(-10.64 -9.92)" style="fill:#111"/><path d="M341.66,125.48c0-1.69,1.4-2.56,4.63-2.91,0-.84-.37-1.55-1.43-1.55a4.28,4.28,0,0,0-2.21.78l-.68-1.23a6.1,6.1,0,0,1,3.23-1c2,0,2.93,1.21,2.93,3.4v4.65h-1.51l-.14-.87h-.05a3.82,3.82,0,0,1-2.44,1.06A2.2,2.2,0,0,1,341.66,125.48Zm4.63,0v-1.76c-2.13.27-2.85.82-2.85,1.62s.48,1,1.14,1A2.5,2.5,0,0,0,346.29,125.48Z" transform="translate(-10.64 -9.92)" style="fill:#111"/><path d="M354.55,123.67c0-2.56,1.61-4.13,3.33-4.13a2.89,2.89,0,0,1,2.06.86l-.07-1.27v-2.85h1.85v11.31H360.2l-.14-.85H360a3.29,3.29,0,0,1-2.23,1C355.82,127.78,354.55,126.26,354.55,123.67Zm5.32,1.71v-3.67a2.32,2.32,0,0,0-1.6-.65c-1,0-1.82,1-1.82,2.59s.65,2.61,1.78,2.61A2.09,2.09,0,0,0,359.87,125.38Z" transform="translate(-10.64 -9.92)" style="fill:#111"/><path d="M368.22,123.67a3.76,3.76,0,1,1,3.74,4.11A3.81,3.81,0,0,1,368.22,123.67Zm5.59,0c0-1.58-.69-2.63-1.85-2.63s-1.84,1-1.84,2.63.69,2.61,1.84,2.61S373.81,125.24,373.81,123.67Z" transform="translate(-10.64 -9.92)" style="fill:#111"/><path d="M381.37,126.69l.85-1.17a3.51,3.51,0,0,0,2.18.87c.85,0,1.26-.4,1.26-.94s-.85-1-1.69-1.27c-1-.39-2.21-1-2.21-2.29s1.1-2.35,2.86-2.35a4.22,4.22,0,0,1,2.61.94l-.84,1.13a3,3,0,0,0-1.73-.68c-.79,0-1.16.37-1.16.87s.79.85,1.64,1.17c1.07.4,2.26.91,2.26,2.37s-1.07,2.44-3.06,2.44A4.93,4.93,0,0,1,381.37,126.69Z" transform="translate(-10.64 -9.92)" style="fill:#111"/></svg>